<?xml version="1.0" encoding="utf-8"?>
<!-- Generator: Adobe Illustrator 27.0.1, SVG Export Plug-In . SVG Version: 6.00 Build 0)  -->
<svg version="1.1" id="Layer_1" xmlns="http://www.w3.org/2000/svg" xmlns:xlink="http://www.w3.org/1999/xlink" x="0px" y="0px"
	 viewBox="0 0 132.4 155.66" style="enable-background:new 0 0 132.4 155.66;" xml:space="preserve">
<style type="text/css">
	.st0{fill:#B17F49;}
	.st1{fill:#1E837B;}
	.st2{fill:#AF7A4E;}
	.st3{fill:#B82C3E;}
	.st4{fill:#77C2AB;}
	.st5{fill:#E167A2;}
	.st6{fill:#E55252;}
	.st7{fill:#50BBE6;}
	.st8{fill:none;}
</style>
<g>
	<path class="st0" d="M14.04,117.72h2.74v6.12l5.02-6.12h3.44l-5.95,6.87l6.17,7.13h-3.53l-5.14-6.29v6.29h-2.76V117.72z"/>
	<path class="st0" d="M31.03,117.72h10.32v2.55H33.8v3.13h6.35v2.44H33.8v3.36h7.58v2.53H31.03V117.72z"/>
	<path class="st0" d="M46.03,127.69h2.67c0,1.11,0.85,1.86,2.53,1.86c1.67,0,2.53-0.75,2.53-1.86c0-1.22-1.31-1.45-2.82-1.74
		c-2.12-0.38-4.63-0.83-4.63-4.09c0-2.59,1.98-4.41,4.94-4.41s4.84,1.74,4.94,4.3h-2.59c0-1.07-0.81-1.84-2.34-1.84
		c-1.52,0-2.31,0.83-2.31,1.86c0,1.22,1.31,1.45,2.82,1.73c2.12,0.39,4.64,0.84,4.64,4.09c0,2.72-2.07,4.41-5.2,4.41
		S46.09,130.36,46.03,127.69z"/>
	<path class="st0" d="M63.6,120.28h-4.17v-2.55h11.06v2.55h-4.18v11.45h-2.74L63.6,120.28z"/>
	<path class="st0" d="M74.29,123.53c0-3.75,2.12-6.08,6.1-6.08c3.99,0,6.15,2.33,6.15,6.08v8.2H83.8v-4.19h-6.82v4.19h-2.68V123.53z
		 M76.8,114.8c0.02-0.82,0.69-1.47,1.51-1.45c0.82,0.02,1.47,0.69,1.45,1.51c-0.02,0.82-0.69,1.47-1.51,1.45
		c-0.8,0-1.45-0.65-1.45-1.45C76.8,114.84,76.8,114.82,76.8,114.8z M83.8,125.05v-1.52c0-2.24-1.11-3.53-3.42-3.53
		s-3.4,1.28-3.4,3.53v1.52H83.8z M81.08,114.8c-0.01-0.82,0.65-1.5,1.47-1.5c0.82-0.01,1.5,0.65,1.5,1.47
		c0.01,0.82-0.65,1.5-1.47,1.5c-0.01,0-0.02,0-0.03,0c-0.8,0.01-1.46-0.63-1.47-1.43C81.08,114.83,81.08,114.82,81.08,114.8z"/>
	<path class="st0" d="M89.34,117.72h2.98l3.66,10.81l3.63-10.81h2.91l-5.07,14h-3.02L89.34,117.72z"/>
	<path class="st0" d="M105.77,123.53c0-3.75,2.12-6.08,6.1-6.08s6.15,2.33,6.15,6.08v8.2h-2.74v-4.19h-6.83v4.19h-2.67V123.53z
		 M108.28,114.8c0-0.81,0.66-1.47,1.47-1.47c0.81,0,1.47,0.66,1.47,1.47c0,0.81-0.66,1.47-1.47,1.47l0,0
		c-0.8,0.03-1.48-0.59-1.51-1.4c0-0.03,0-0.05,0-0.08H108.28z M115.28,125.05v-1.52c0-2.24-1.11-3.53-3.43-3.53
		c-2.31,0-3.4,1.28-3.4,3.53v1.52H115.28z M112.58,114.8c-0.01-0.82,0.65-1.5,1.47-1.5c0.82-0.01,1.5,0.65,1.5,1.47
		c0.01,0.82-0.65,1.5-1.47,1.5c-0.01,0-0.01,0-0.02,0c-0.8,0.04-1.48-0.59-1.52-1.39c0-0.03,0-0.06,0-0.09H112.58z"/>
	<path class="st0" d="M0.7,140.56h2.76v6.12l5.01-6.12h3.46l-5.95,6.87l6.16,7.13H8.61l-5.15-6.29v6.29H0.7V140.56z"/>
	<path class="st0" d="M16.41,140.56h10.33v2.56h-7.59v3.13h6.35v2.44h-6.35v3.36h7.59v2.53H16.41V140.56z"/>
	<path class="st0" d="M33.02,140.56h2.74v14h-2.74V140.56z"/>
	<path class="st0" d="M41.21,140.56h2.74v6.12l5.01-6.12h3.44l-5.95,6.87l6.16,7.13h-3.53l-5.14-6.29v6.29h-2.74V140.56z"/>
	<path class="st0" d="M56.92,140.56h2.74v6.12l5.01-6.12h3.44l-5.95,6.87l6.17,7.13H64.8l-5.14-6.29v6.29h-2.74L56.92,140.56z"/>
	<path class="st0" d="M72.28,146.36c0-3.75,2.12-6.08,6.1-6.08c3.99,0,6.15,2.33,6.15,6.08v8.2h-2.75v-4.2h-6.83v4.2h-2.67
		L72.28,146.36z M81.78,147.89v-1.52c0-2.24-1.11-3.53-3.42-3.53c-2.31,0-3.41,1.28-3.41,3.53v1.52H81.78z"/>
	<path class="st0" d="M92.51,143.13h-4.18v-2.55h11.09v2.55h-4.17v11.45h-2.74L92.51,143.13z"/>
	<path class="st0" d="M107.34,148.66l-5.35-8.09h3.23l3.46,5.65l3.53-5.65h3.17l-5.29,8.03v5.97h-2.74L107.34,148.66z"/>
	<path class="st0" d="M116.8,147.56c0-4.23,3.08-7.28,7.44-7.28c4.36,0,7.45,3.08,7.45,7.28s-3.08,7.28-7.45,7.28
		C119.88,154.84,116.8,151.76,116.8,147.56z M128.92,147.56c-0.04-2.58-2.17-4.64-4.75-4.59s-4.64,2.17-4.59,4.75
		c0.04,2.55,2.12,4.59,4.67,4.59c2.48,0.1,4.58-1.84,4.67-4.32C128.93,147.85,128.93,147.71,128.92,147.56z M120.59,137.63
		c0-0.81,0.67-1.47,1.48-1.47c0.81,0,1.47,0.67,1.47,1.48c0,0.81-0.66,1.47-1.47,1.47c-0.8,0.01-1.46-0.63-1.47-1.43
		C120.59,137.66,120.59,137.65,120.59,137.63z M124.89,137.63c0-0.82,0.66-1.49,1.48-1.5c0.82,0,1.49,0.66,1.5,1.48
		c0,0.82-0.66,1.49-1.48,1.5c0,0-0.01,0-0.01,0c-0.8,0-1.46-0.64-1.46-1.45c0-0.01,0-0.02,0-0.04H124.89z"/>
	<path class="st1" d="M82.18,16.21c-1.37,2.85-2.44,5.84-3.18,8.91c-0.58,2.42-0.88,4.89-0.89,7.38c-3.2,1.81-6.81,2.78-10.49,2.82
		h-0.07c-3.86-0.05-7.64-1.11-10.97-3.08c0.47-4.83-0.27-9.69-2.15-14.16c3.94,5.2,8.47,8.08,13.1,8.08h0.05
		C72.75,26.13,77.89,22.52,82.18,16.21z"/>
	<circle class="st1" cx="67.8" cy="11.18" r="9.19"/>
	<path class="st2" d="M98.1,8.35c-1.71,2.41-3.03,4.54-4.23,6.41c-1.47,2.25-2.48,3.8-3.58,5.86c-3.53,5.39-7.66,9.43-12.15,11.91
		c0.01-2.49,0.31-4.96,0.89-7.38c0.74-3.08,1.8-6.06,3.18-8.91c1.14-2.38,2.43-4.69,3.87-6.91c1.53-2.35,3.18-4.61,4.94-6.78
		c1.58-1.98,4.46-2.3,6.44-0.72c0.01,0.01,0.01,0.01,0.02,0.02C99.39,3.49,99.67,6.36,98.1,8.35z"/>
	<path class="st3" d="M102.1,46.74c-6.51,0.46-11.34,2.12-14.88,4.2c-2.39-1.7-4.41-3.88-5.92-6.4c-2.14-3.63-3.24-7.78-3.18-12
		c4.49-2.51,8.6-6.55,12.13-11.95c-3.53,7.61-4.01,14.36-1.11,19.16C91.48,43.63,96.03,46,102.1,46.74z"/>
	<path class="st2" d="M122.07,51.39c-0.39,1.78-1.8,3.17-3.59,3.53c-2.4,0.49-4.82,0.85-7.25,1.07c-1.67,0.16-3.3,0.23-4.88,0.23
		c-1.68,0-3.35-0.09-5.02-0.27c-5.57-0.62-10.35-2.32-14.11-5.03c3.53-2.06,8.37-3.74,14.88-4.2c2.78,0.32,5.58,0.34,8.37,0.07
		c2.08-0.19,4.15-0.5,6.2-0.92c2.51-0.48,4.93,1.16,5.41,3.66c0.12,0.6,0.11,1.22-0.02,1.83L122.07,51.39z"/>
	<ellipse class="st3" cx="102.94" cy="30.54" rx="9.19" ry="9.11"/>
	<path class="st2" d="M95.96,98.32c-1.91,1.66-4.79,1.47-6.46-0.42c-1.7-1.92-3.3-3.94-4.8-6.03c-1.99-2.77-3.71-5.71-5.14-8.81
		c-0.86-1.88-1.56-3.81-2.12-5.8c-0.82-2.89-1.17-5.89-1.05-8.89c4.34,2.3,8.07,5.58,10.92,9.58c1.46,3.49,3.35,6.77,5.65,9.78
		c1.03,1.41,2.17,2.78,3.4,4.18c1.66,1.86,1.51,4.71-0.35,6.38C95.99,98.29,95.97,98.31,95.96,98.32z"/>
	<path class="st4" d="M87.07,63.39c-2.21,3.85-2.06,8.91,0.24,14.59c-2.85-4-6.59-7.27-10.92-9.58c0.14-3.34,1.07-6.59,2.71-9.5
		c1.97-3.31,4.77-6.05,8.13-7.93c3.76,2.71,8.54,4.41,14.11,5.03C94.48,56.71,89.43,59.23,87.07,63.39z"/>
	<ellipse class="st4" cx="100.47" cy="70.96" rx="9.19" ry="9.11"/>
	<path class="st5" d="M79.55,83.06c-3.94-5.17-8.5-8.03-13.17-8.04l0,0c-5.88,0-11.78,4.59-16.47,12.47
		c3.28-6.27,4.9-12.5,4.76-18.24c3.52-2.18,7.56-3.35,11.7-3.39l0,0c3.48,0.04,6.9,0.9,9.98,2.5c-0.12,3,0.23,6,1.05,8.89
		C77.97,79.25,78.69,81.19,79.55,83.06z"/>
	<ellipse class="st5" cx="66.1" cy="90.01" rx="9.29" ry="9.19"/>
	<path class="st2" d="M49.9,87.49c-0.42,0.8-0.86,1.6-1.33,2.4v0.04c-1.74,2.92-3.71,5.7-5.89,8.31c-0.81,1-2.03,1.57-3.32,1.58
		c-0.73,0-1.44-0.19-2.07-0.55c-0.28-0.16-0.55-0.35-0.79-0.56c-1.83-1.69-2.03-4.52-0.44-6.44c1.08-1.29,2.07-2.59,2.97-3.87
		c1.84-2.59,3.4-5.37,4.66-8.29c2.84-4.36,6.59-8.06,10.99-10.85C54.81,75,53.19,81.22,49.9,87.49z"/>
	<path class="st2" d="M44.12,49.63c-4.4,2.29-9.78,3.65-15.89,4.01c-2.54-0.26-5.1-0.28-7.64-0.06c-1.97,0.17-3.94,0.44-5.88,0.83
		c-2.39,0.43-4.67-1.16-5.1-3.55c-0.01-0.03-0.01-0.06-0.01-0.09c-0.11-0.56-0.11-1.14,0-1.71c0.31-1.81,1.69-3.25,3.49-3.63
		c2.51-0.5,5.06-0.84,7.61-1.03c2.63-0.19,5.27-0.17,7.89,0.06C34.63,45.04,39.91,46.76,44.12,49.63z"/>
	<path class="st6" d="M54.66,69.25c-4.4,2.78-8.15,6.48-10.99,10.85c2.82-6.7,3.06-12.9,0.42-17.68c-2.74-4.94-8.42-8-15.86-8.79
		c6.11-0.36,11.49-1.72,15.89-4.01c3.14,2.11,5.73,4.93,7.56,8.24C53.58,61.37,54.61,65.27,54.66,69.25z"/>
	<circle class="st6" cx="32.08" cy="68.63" r="9.15"/>
	<path class="st2" d="M56.6,32.24c-3.42-1.95-7.11-5.1-10.58-10.13c-2.08-3.06-3.87-6.31-5.32-9.72c-0.71-1.61-1.41-3.34-2.03-5.17
		c-0.82-2.3,0.32-4.84,2.58-5.76l0.21-0.08c2.39-0.84,5,0.41,5.84,2.8c0,0.01,0.01,0.02,0.01,0.02c0.4,1.14,0.83,2.25,1.27,3.32
		c1.5,3.76,3.47,7.32,5.87,10.58C56.33,22.55,57.07,27.42,56.6,32.24z"/>
	<path class="st7" d="M56.6,32.24c-0.35,2.99-1.31,5.87-2.82,8.47c-2.3,3.83-5.65,6.93-9.65,8.92c-4.23-2.86-9.48-4.61-15.52-5.16
		c8.2-0.62,14.27-3.49,17.11-8.33c2.21-3.78,2.26-8.64,0.31-14.03C49.49,27.13,53.18,30.29,56.6,32.24z"/>
	<ellipse class="st7" cx="33.15" cy="30.67" rx="9.33" ry="9.19"/>
</g>
<rect x="-91.72" y="-89.63" class="st8" width="315.48" height="336.7"/>
</svg>
