<?xml version="1.0" encoding="utf-8"?>
<!-- Generator: Adobe Illustrator 27.0.1, SVG Export Plug-In . SVG Version: 6.00 Build 0)  -->
<svg version="1.1" id="FI_x5F_ESR" xmlns="http://www.w3.org/2000/svg" xmlns:xlink="http://www.w3.org/1999/xlink" x="0px" y="0px"
	 viewBox="0 0 109 100.92" style="enable-background:new 0 0 109 100.92;" xml:space="preserve">
<style type="text/css">
	.st0{fill:#000099;}
	.st1{fill:#FFCC00;}
</style>
<g>
	<rect class="st0" width="109" height="72.66"/>
	<g>
		<polygon class="st1" points="54.5,8.14 55.41,10.93 58.35,10.93 55.97,12.66 56.87,15.47 54.5,13.74 52.12,15.47 53.01,12.66 
			50.64,10.93 53.58,10.93 		"/>
		<polygon class="st1" points="66.61,11.39 67.52,14.19 70.46,14.19 68.09,15.92 68.98,18.73 66.61,17 64.23,18.73 65.14,15.92 
			62.75,14.19 65.7,14.19 		"/>
		<polygon class="st1" points="75.43,20.23 76.34,23.02 79.28,23.03 76.9,24.76 77.8,27.56 75.43,25.83 73.05,27.56 73.94,24.76 
			71.57,23.03 74.51,23.02 		"/>
		<polygon class="st1" points="78.66,32.3 79.57,35.09 82.51,35.09 80.13,36.82 81.03,39.63 78.66,37.9 76.28,39.63 77.19,36.82 
			74.8,35.09 77.74,35.09 		"/>
		<polygon class="st1" points="75.43,44.37 76.34,47.17 79.28,47.17 76.9,48.9 77.8,51.69 75.43,49.98 73.05,51.69 73.94,48.9 
			71.57,47.17 74.51,47.17 		"/>
		<polygon class="st1" points="66.61,53.21 67.52,56 70.46,56 68.09,57.73 68.98,60.54 66.61,58.81 64.23,60.54 65.14,57.73 
			62.75,56 65.7,56 		"/>
		<polygon class="st1" points="54.49,56.46 55.4,59.26 58.35,59.26 55.96,60.99 56.87,63.79 54.49,62.06 52.12,63.79 53.01,60.99 
			50.64,59.26 53.58,59.26 		"/>
		<polygon class="st1" points="42.37,53.21 43.3,56 46.23,56 43.85,57.73 44.76,60.54 42.37,58.81 40,60.54 40.9,57.73 38.53,56 
			41.46,56 		"/>
		<polygon class="st1" points="33.57,44.37 34.48,47.17 37.41,47.17 35.04,48.9 35.94,51.69 33.57,49.98 31.18,51.69 32.1,48.9 
			29.71,47.17 32.65,47.17 		"/>
		<polygon class="st1" points="30.33,32.3 31.24,35.09 34.18,35.09 31.8,36.82 32.71,39.63 30.33,37.9 27.95,39.63 28.85,36.82 
			26.48,35.09 29.42,35.09 		"/>
		<polygon class="st1" points="33.57,20.23 34.48,23.02 37.41,23.03 35.04,24.76 35.94,27.56 33.57,25.83 31.18,27.56 32.1,24.76 
			29.71,23.03 32.65,23.02 		"/>
		<polygon class="st1" points="42.37,11.39 43.3,14.19 46.23,14.19 43.85,15.92 44.76,18.73 42.37,17 40,18.73 40.9,15.92 
			38.53,14.19 41.46,14.19 		"/>
	</g>
	<g>
		<polygon points="0.35,99.22 4.26,99.22 4.26,98.43 1.23,98.43 1.23,96.22 4.05,96.22 4.05,95.44 1.23,95.44 1.23,93.82 
			4.26,93.82 4.26,93.03 0.35,93.03 		"/>
		<path d="M7.91,98.02c-0.17,0.15-0.36,0.28-0.56,0.38c-0.21,0.1-0.41,0.15-0.59,0.15c-0.19,0-0.35-0.03-0.45-0.08
			c-0.1-0.05-0.18-0.13-0.24-0.24c-0.06-0.12-0.1-0.26-0.12-0.41c-0.01-0.15-0.03-0.36-0.03-0.6v-2.65H5.06v3.01
			c0,0.31,0.04,0.58,0.12,0.79c0.08,0.22,0.18,0.41,0.32,0.55s0.29,0.26,0.47,0.32c0.18,0.06,0.37,0.1,0.58,0.1
			c0.27,0,0.51-0.05,0.73-0.17c0.19-0.1,0.41-0.24,0.63-0.44v0.47h0.85v-4.67H7.91V98.02z"/>
		<path d="M12.23,94.57c-0.04,0-0.1,0-0.18,0c-0.21,0-0.41,0.05-0.63,0.15c-0.19,0.1-0.42,0.26-0.69,0.49v-0.64H9.88v4.67h0.85
			v-3.28c0.18-0.17,0.37-0.29,0.56-0.38c0.21-0.09,0.41-0.13,0.6-0.13c0.09,0,0.17,0,0.23,0s0.12,0.01,0.18,0.03h0.09v-0.87h-0.03
			C12.3,94.58,12.27,94.57,12.23,94.57z"/>
		<path d="M14.73,94.44c-0.63,0-1.14,0.22-1.51,0.65c-0.38,0.44-0.58,1.04-0.58,1.81c0,0.76,0.19,1.36,0.55,1.79
			c0.37,0.44,0.88,0.67,1.54,0.67c0.63,0,1.14-0.22,1.51-0.64c0.37-0.42,0.56-1.04,0.56-1.82s-0.19-1.38-0.56-1.82
			C15.87,94.66,15.36,94.44,14.73,94.44z M15.62,98.19c-0.21,0.28-0.51,0.42-0.9,0.42s-0.69-0.14-0.91-0.44
			c-0.22-0.29-0.32-0.72-0.32-1.29c0-0.59,0.1-1.03,0.32-1.31c0.21-0.28,0.51-0.42,0.91-0.42c0.38,0,0.69,0.14,0.9,0.42
			s0.32,0.72,0.32,1.31S15.84,97.91,15.62,98.19z"/>
		<path d="M19.39,94.44c-0.63,0-1.14,0.22-1.51,0.65c-0.38,0.44-0.58,1.04-0.58,1.81c0,0.76,0.19,1.36,0.55,1.79
			c0.37,0.44,0.88,0.67,1.54,0.67c0.63,0,1.14-0.22,1.51-0.64c0.37-0.42,0.56-1.04,0.56-1.82s-0.19-1.38-0.56-1.82
			C20.52,94.66,20.02,94.44,19.39,94.44z M20.28,98.19c-0.21,0.28-0.51,0.42-0.9,0.42s-0.69-0.14-0.91-0.44
			c-0.22-0.29-0.32-0.72-0.32-1.29c0-0.59,0.1-1.03,0.32-1.31c0.21-0.28,0.51-0.42,0.91-0.42c0.38,0,0.69,0.14,0.9,0.42
			s0.32,0.72,0.32,1.31S20.5,97.91,20.28,98.19z"/>
		<path d="M24.49,94.44c-0.28,0-0.54,0.06-0.78,0.18c-0.22,0.1-0.41,0.23-0.59,0.38v-0.44h-0.85v6.36h0.85v-1.9
			c0.17,0.09,0.33,0.17,0.5,0.22c0.18,0.05,0.38,0.08,0.62,0.08c0.56,0,1.04-0.23,1.41-0.69c0.37-0.46,0.55-1.08,0.55-1.85
			c0-0.7-0.15-1.28-0.45-1.7C25.46,94.64,25.03,94.44,24.49,94.44z M25.01,98.13c-0.22,0.28-0.51,0.42-0.91,0.42
			c-0.18,0-0.35-0.01-0.49-0.05c-0.14-0.04-0.31-0.1-0.5-0.19v-2.56c0.18-0.14,0.37-0.27,0.56-0.36c0.21-0.09,0.41-0.14,0.62-0.14
			c0.37,0,0.63,0.14,0.78,0.42c0.17,0.28,0.24,0.69,0.24,1.2C25.34,97.41,25.22,97.84,25.01,98.13z"/>
		<path d="M29.92,94.8c-0.18-0.13-0.37-0.22-0.6-0.27c-0.22-0.05-0.49-0.08-0.81-0.08c-0.26,0-0.53,0.03-0.79,0.08
			c-0.27,0.05-0.47,0.09-0.62,0.14l-0.03,0.01v0.85h0.08h0.01c0.24-0.1,0.47-0.18,0.72-0.23c0.24-0.05,0.45-0.08,0.63-0.08
			c0.15,0,0.29,0.01,0.44,0.03c0.14,0.01,0.26,0.06,0.35,0.12c0.09,0.05,0.17,0.14,0.22,0.24c0.05,0.1,0.08,0.24,0.08,0.42v0.1
			c-0.4,0.03-0.77,0.05-1.1,0.1c-0.35,0.05-0.67,0.13-0.92,0.24c-0.29,0.13-0.51,0.32-0.65,0.55c-0.14,0.23-0.21,0.51-0.21,0.83
			c0,0.21,0.04,0.41,0.12,0.6c0.08,0.19,0.18,0.35,0.31,0.47c0.13,0.13,0.28,0.23,0.46,0.31c0.18,0.08,0.36,0.12,0.55,0.12
			c0.23,0,0.42-0.03,0.55-0.06c0.13-0.04,0.27-0.09,0.4-0.17c0.1-0.05,0.21-0.12,0.31-0.21c0.08-0.06,0.14-0.12,0.19-0.15v0.45h0.83
			v-3.18c0-0.29-0.04-0.54-0.13-0.74C30.22,95.09,30.08,94.93,29.92,94.8z M29.58,98.04c-0.17,0.14-0.35,0.27-0.54,0.37
			c-0.19,0.1-0.41,0.15-0.64,0.15c-0.27,0-0.49-0.06-0.63-0.19s-0.21-0.32-0.21-0.58c0-0.22,0.06-0.4,0.19-0.53
			c0.13-0.13,0.29-0.22,0.5-0.28c0.17-0.05,0.4-0.09,0.68-0.12c0.26-0.03,0.49-0.05,0.65-0.06v1.23H29.58z"/>
		<path d="M33.74,94.44c-0.26,0-0.5,0.05-0.73,0.17c-0.21,0.1-0.42,0.24-0.63,0.42v-0.46h-0.85v4.67h0.85v-3.45
			c0.19-0.15,0.38-0.28,0.58-0.38c0.19-0.1,0.4-0.15,0.58-0.15c0.19,0,0.33,0.03,0.45,0.08c0.1,0.05,0.19,0.13,0.24,0.24
			c0.05,0.1,0.09,0.24,0.12,0.42c0.03,0.18,0.03,0.37,0.03,0.59v2.65h0.85v-3.01c0-0.58-0.13-1.01-0.38-1.32
			C34.56,94.59,34.2,94.44,33.74,94.44z"/>
		<path d="M41.08,96.61c-0.15-0.04-0.31-0.08-0.45-0.1c-0.14-0.03-0.27-0.06-0.38-0.09c-0.22-0.06-0.38-0.13-0.49-0.22
			c-0.09-0.09-0.14-0.22-0.14-0.41c0-0.21,0.08-0.36,0.24-0.46c0.17-0.1,0.38-0.15,0.63-0.15c0.24,0,0.49,0.05,0.72,0.13
			c0.24,0.09,0.46,0.22,0.65,0.36l0.01,0.01h0.09v-0.88l-0.01-0.01c-0.18-0.1-0.4-0.18-0.65-0.24c-0.26-0.06-0.53-0.09-0.78-0.09
			c-0.53,0-0.95,0.13-1.27,0.4s-0.49,0.62-0.49,1.04c0,0.31,0.08,0.58,0.24,0.79c0.17,0.22,0.42,0.38,0.78,0.49
			c0.13,0.04,0.28,0.08,0.45,0.1c0.15,0.04,0.28,0.06,0.38,0.09c0.24,0.06,0.42,0.14,0.51,0.23s0.14,0.22,0.14,0.38
			c0,0.14-0.03,0.24-0.06,0.31c-0.04,0.06-0.1,0.13-0.19,0.19c-0.06,0.04-0.17,0.08-0.29,0.1c-0.32,0.06-0.6,0.05-0.87-0.03
			c-0.15-0.05-0.29-0.1-0.42-0.15c-0.14-0.06-0.27-0.13-0.35-0.19c-0.09-0.06-0.17-0.12-0.23-0.17l-0.01-0.01h-0.09v0.92l0.01,0.01
			c0.18,0.09,0.4,0.18,0.67,0.27c0.27,0.08,0.56,0.13,0.87,0.13c0.32,0,0.58-0.04,0.79-0.12c0.21-0.08,0.4-0.18,0.56-0.32
			c0.15-0.13,0.27-0.28,0.36-0.46c0.08-0.18,0.12-0.37,0.12-0.58c0-0.35-0.09-0.63-0.27-0.83C41.7,96.84,41.43,96.68,41.08,96.61z"
			/>
		<path d="M44.64,94.44c-0.63,0-1.14,0.22-1.51,0.65c-0.38,0.44-0.58,1.04-0.58,1.81c0,0.76,0.19,1.36,0.55,1.79
			c0.37,0.44,0.88,0.67,1.54,0.67c0.63,0,1.14-0.22,1.51-0.64s0.56-1.04,0.56-1.82s-0.19-1.38-0.56-1.82
			C45.77,94.66,45.27,94.44,44.64,94.44z M45.54,98.19c-0.21,0.28-0.51,0.42-0.9,0.42c-0.38,0-0.69-0.14-0.91-0.44
			c-0.22-0.29-0.32-0.72-0.32-1.29c0-0.59,0.1-1.03,0.32-1.31c0.21-0.28,0.51-0.42,0.91-0.42c0.38,0,0.69,0.14,0.9,0.42
			c0.21,0.28,0.32,0.72,0.32,1.31C45.85,97.48,45.75,97.91,45.54,98.19z"/>
		<path d="M49.59,96.61c-0.15-0.04-0.31-0.08-0.45-0.1c-0.14-0.03-0.27-0.06-0.38-0.09c-0.22-0.06-0.38-0.13-0.49-0.22
			c-0.09-0.09-0.14-0.22-0.14-0.41c0-0.21,0.08-0.36,0.24-0.46c0.17-0.1,0.38-0.15,0.63-0.15c0.24,0,0.49,0.05,0.72,0.13
			c0.24,0.09,0.46,0.22,0.65,0.36l0.01,0.01h0.09v-0.88l-0.01-0.01c-0.18-0.1-0.4-0.18-0.65-0.24c-0.26-0.06-0.53-0.09-0.78-0.09
			c-0.53,0-0.95,0.13-1.27,0.4s-0.49,0.62-0.49,1.04c0,0.31,0.08,0.58,0.24,0.79c0.17,0.22,0.42,0.38,0.78,0.49
			c0.13,0.04,0.28,0.08,0.45,0.1c0.15,0.04,0.28,0.06,0.38,0.09c0.24,0.06,0.42,0.14,0.51,0.23c0.09,0.09,0.14,0.22,0.14,0.38
			c0,0.14-0.03,0.24-0.06,0.31c-0.04,0.06-0.1,0.13-0.19,0.19c-0.06,0.04-0.17,0.08-0.29,0.1c-0.32,0.06-0.6,0.05-0.87-0.03
			c-0.15-0.05-0.29-0.1-0.42-0.15c-0.14-0.06-0.27-0.13-0.35-0.19c-0.09-0.06-0.17-0.12-0.23-0.17l-0.01-0.01h-0.09v0.92l0.01,0.01
			c0.18,0.09,0.4,0.18,0.67,0.27c0.27,0.08,0.56,0.13,0.87,0.13c0.32,0,0.58-0.04,0.79-0.12c0.21-0.08,0.4-0.18,0.56-0.32
			c0.15-0.13,0.27-0.28,0.36-0.46c0.08-0.18,0.12-0.37,0.12-0.58c0-0.35-0.09-0.63-0.27-0.83C50.21,96.84,49.94,96.68,49.59,96.61z"
			/>
		<rect x="51.4" y="94.55" width="0.85" height="4.67"/>
		<rect x="51.33" y="92.99" width="0.95" height="0.87"/>
		<path d="M56.28,94.8c-0.18-0.13-0.37-0.22-0.6-0.27c-0.22-0.05-0.49-0.08-0.81-0.08c-0.26,0-0.53,0.03-0.79,0.08
			c-0.27,0.05-0.47,0.09-0.62,0.14l-0.03,0.01v0.85h0.08h0.01c0.24-0.1,0.47-0.18,0.72-0.23c0.24-0.05,0.45-0.08,0.63-0.08
			c0.15,0,0.29,0.01,0.44,0.03c0.14,0.01,0.26,0.06,0.35,0.12c0.09,0.05,0.17,0.14,0.22,0.24c0.05,0.1,0.08,0.24,0.08,0.42v0.1
			c-0.4,0.03-0.77,0.05-1.1,0.1c-0.35,0.05-0.67,0.13-0.92,0.24c-0.29,0.13-0.51,0.32-0.65,0.55c-0.14,0.23-0.21,0.51-0.21,0.83
			c0,0.21,0.04,0.41,0.12,0.6c0.08,0.19,0.18,0.35,0.31,0.47c0.13,0.13,0.28,0.23,0.46,0.31c0.18,0.08,0.36,0.12,0.55,0.12
			c0.23,0,0.42-0.03,0.55-0.06c0.13-0.04,0.27-0.09,0.4-0.17c0.1-0.05,0.21-0.12,0.31-0.21c0.08-0.06,0.14-0.12,0.19-0.15v0.45h0.83
			v-3.18c0-0.29-0.04-0.54-0.13-0.74C56.58,95.09,56.45,94.93,56.28,94.8z M55.95,98.04c-0.17,0.14-0.35,0.27-0.54,0.37
			c-0.19,0.1-0.41,0.15-0.64,0.15c-0.27,0-0.49-0.06-0.63-0.19c-0.14-0.13-0.21-0.32-0.21-0.58c0-0.22,0.06-0.4,0.19-0.53
			c0.13-0.13,0.29-0.22,0.5-0.28c0.17-0.05,0.4-0.09,0.68-0.12c0.26-0.03,0.49-0.05,0.65-0.06v1.23H55.95z"/>
		<path d="M60.78,94.8c-0.18-0.13-0.37-0.22-0.6-0.27c-0.22-0.05-0.49-0.08-0.81-0.08c-0.26,0-0.53,0.03-0.79,0.08
			c-0.27,0.05-0.47,0.09-0.62,0.14l-0.03,0.01v0.85h0.08h0.01c0.24-0.1,0.47-0.18,0.72-0.23c0.24-0.05,0.45-0.08,0.63-0.08
			c0.15,0,0.29,0.01,0.44,0.03c0.14,0.01,0.26,0.06,0.35,0.12c0.09,0.05,0.17,0.14,0.22,0.24c0.05,0.1,0.08,0.24,0.08,0.42v0.1
			c-0.4,0.03-0.77,0.05-1.1,0.1c-0.35,0.05-0.67,0.13-0.92,0.24c-0.29,0.13-0.51,0.32-0.65,0.55c-0.14,0.23-0.21,0.51-0.21,0.83
			c0,0.21,0.04,0.41,0.12,0.6c0.08,0.19,0.18,0.35,0.31,0.47c0.13,0.13,0.28,0.23,0.46,0.31c0.18,0.08,0.36,0.12,0.55,0.12
			c0.23,0,0.42-0.03,0.55-0.06c0.13-0.04,0.27-0.09,0.4-0.17c0.1-0.05,0.21-0.12,0.31-0.21c0.08-0.06,0.14-0.12,0.19-0.15v0.45h0.83
			v-3.18c0-0.29-0.04-0.54-0.13-0.74C61.09,95.09,60.96,94.93,60.78,94.8z M60.46,98.04c-0.17,0.14-0.35,0.27-0.54,0.37
			c-0.19,0.1-0.41,0.15-0.64,0.15c-0.27,0-0.49-0.06-0.63-0.19c-0.14-0.13-0.21-0.32-0.21-0.58c0-0.22,0.06-0.4,0.19-0.53
			c0.13-0.13,0.29-0.22,0.5-0.28c0.17-0.05,0.4-0.09,0.68-0.12c0.26-0.03,0.49-0.05,0.65-0.06v1.23H60.46z"/>
		<rect x="62.41" y="92.76" width="0.85" height="6.47"/>
		<rect x="64.43" y="94.55" width="0.85" height="4.67"/>
		<rect x="64.38" y="92.99" width="0.95" height="0.87"/>
		<path d="M68.77,94.57c-0.04,0-0.1,0-0.18,0c-0.21,0-0.41,0.05-0.63,0.15c-0.19,0.1-0.42,0.26-0.69,0.49v-0.64h-0.85v4.67h0.85
			v-3.28c0.18-0.17,0.37-0.29,0.56-0.38c0.21-0.09,0.41-0.13,0.6-0.13c0.09,0,0.17,0,0.23,0s0.12,0.01,0.18,0.03h0.09v-0.87h-0.03
			C68.86,94.58,68.8,94.57,68.77,94.57z"/>
		<path d="M72.3,94.8c-0.18-0.13-0.37-0.22-0.6-0.27c-0.22-0.05-0.49-0.08-0.81-0.08c-0.26,0-0.53,0.03-0.79,0.08
			c-0.27,0.05-0.47,0.09-0.62,0.14l-0.03,0.01v0.85h0.08h0.01c0.24-0.1,0.47-0.18,0.72-0.23c0.24-0.05,0.45-0.08,0.63-0.08
			c0.15,0,0.29,0.01,0.44,0.03c0.14,0.01,0.26,0.06,0.35,0.12c0.09,0.05,0.17,0.14,0.22,0.24c0.05,0.1,0.08,0.24,0.08,0.42v0.1
			c-0.4,0.03-0.77,0.05-1.1,0.1c-0.35,0.05-0.67,0.13-0.92,0.24c-0.29,0.13-0.51,0.32-0.65,0.55c-0.14,0.23-0.21,0.51-0.21,0.83
			c0,0.21,0.04,0.41,0.12,0.6c0.08,0.19,0.18,0.35,0.31,0.47c0.13,0.13,0.28,0.23,0.46,0.31c0.18,0.08,0.36,0.12,0.55,0.12
			c0.23,0,0.42-0.03,0.55-0.06c0.13-0.04,0.27-0.09,0.4-0.17c0.1-0.05,0.21-0.12,0.31-0.21c0.08-0.06,0.14-0.12,0.19-0.15v0.45h0.83
			v-3.18c0-0.29-0.04-0.54-0.13-0.74C72.6,95.09,72.47,94.93,72.3,94.8z M71.97,98.04c-0.17,0.14-0.35,0.27-0.54,0.37
			c-0.19,0.1-0.41,0.15-0.64,0.15c-0.27,0-0.49-0.06-0.63-0.19s-0.21-0.32-0.21-0.58c0-0.22,0.06-0.4,0.19-0.53
			c0.13-0.13,0.29-0.22,0.5-0.28c0.17-0.05,0.4-0.09,0.68-0.12c0.26-0.03,0.49-0.05,0.65-0.06v1.23H71.97z"/>
		<path d="M76.11,94.44c-0.26,0-0.5,0.05-0.73,0.17c-0.21,0.1-0.42,0.24-0.63,0.42v-2.27h-0.85v6.47h0.85v-3.45
			c0.19-0.15,0.38-0.28,0.58-0.38c0.19-0.1,0.4-0.15,0.58-0.15c0.19,0,0.33,0.03,0.45,0.08c0.1,0.05,0.19,0.13,0.24,0.24
			c0.05,0.1,0.09,0.24,0.12,0.42s0.03,0.37,0.03,0.59v2.65h0.85v-3.01c0-0.58-0.13-1.01-0.38-1.32S76.57,94.44,76.11,94.44z"/>
		<path d="M81.58,94.8c-0.18-0.13-0.37-0.22-0.6-0.27c-0.22-0.05-0.49-0.08-0.81-0.08c-0.26,0-0.53,0.03-0.79,0.08
			c-0.27,0.05-0.47,0.09-0.62,0.14l-0.03,0.01v0.85h0.08h0.01c0.24-0.1,0.47-0.18,0.72-0.23c0.24-0.05,0.45-0.08,0.63-0.08
			c0.15,0,0.29,0.01,0.44,0.03c0.14,0.01,0.26,0.06,0.35,0.12c0.09,0.05,0.17,0.14,0.22,0.24c0.05,0.1,0.08,0.24,0.08,0.42v0.1
			c-0.4,0.03-0.77,0.05-1.1,0.1c-0.35,0.05-0.67,0.13-0.92,0.24c-0.29,0.13-0.51,0.32-0.65,0.55c-0.14,0.23-0.21,0.51-0.21,0.83
			c0,0.21,0.04,0.41,0.12,0.6c0.08,0.19,0.18,0.35,0.31,0.47c0.13,0.13,0.28,0.23,0.46,0.31c0.18,0.08,0.36,0.12,0.55,0.12
			c0.23,0,0.42-0.03,0.55-0.06c0.13-0.04,0.27-0.09,0.4-0.17c0.1-0.05,0.21-0.12,0.31-0.21c0.08-0.06,0.14-0.12,0.19-0.15v0.45h0.83
			v-3.18c0-0.29-0.04-0.54-0.13-0.74C81.89,95.09,81.76,94.93,81.58,94.8z M81.26,98.04c-0.17,0.14-0.35,0.27-0.54,0.37
			c-0.19,0.1-0.41,0.15-0.64,0.15c-0.27,0-0.49-0.06-0.63-0.19s-0.21-0.32-0.21-0.58c0-0.22,0.06-0.4,0.19-0.53
			c0.13-0.13,0.29-0.22,0.5-0.28c0.17-0.05,0.4-0.09,0.68-0.12c0.26-0.03,0.49-0.05,0.65-0.06v1.23H81.26z"/>
		<path d="M85.26,96.61c-0.15-0.04-0.31-0.08-0.45-0.1c-0.14-0.03-0.27-0.06-0.38-0.09c-0.22-0.06-0.38-0.13-0.49-0.22
			c-0.09-0.09-0.14-0.22-0.14-0.41c0-0.21,0.08-0.36,0.24-0.46c0.17-0.1,0.38-0.15,0.63-0.15c0.24,0,0.49,0.05,0.72,0.13
			c0.24,0.09,0.46,0.22,0.65,0.36l0.01,0.01h0.09v-0.88l-0.01-0.01c-0.18-0.1-0.4-0.18-0.65-0.24c-0.26-0.06-0.53-0.09-0.78-0.09
			c-0.53,0-0.95,0.13-1.27,0.4c-0.32,0.27-0.49,0.62-0.49,1.04c0,0.31,0.08,0.58,0.24,0.79c0.17,0.22,0.42,0.38,0.78,0.49
			c0.13,0.04,0.28,0.08,0.45,0.1c0.15,0.04,0.28,0.06,0.38,0.09c0.24,0.06,0.42,0.14,0.51,0.23s0.14,0.22,0.14,0.38
			c0,0.14-0.03,0.24-0.06,0.31c-0.04,0.06-0.1,0.13-0.19,0.19c-0.06,0.04-0.17,0.08-0.29,0.1c-0.32,0.06-0.6,0.05-0.87-0.03
			c-0.15-0.05-0.29-0.1-0.42-0.15c-0.14-0.06-0.27-0.13-0.35-0.19c-0.09-0.06-0.17-0.12-0.23-0.17l-0.01-0.01h-0.1v0.92l0.01,0.01
			c0.18,0.09,0.4,0.18,0.67,0.27c0.27,0.08,0.56,0.13,0.87,0.13c0.32,0,0.58-0.04,0.79-0.12c0.21-0.08,0.4-0.18,0.56-0.32
			c0.15-0.13,0.27-0.28,0.36-0.46c0.08-0.18,0.12-0.37,0.12-0.58c0-0.35-0.09-0.63-0.27-0.83C85.86,96.84,85.61,96.68,85.26,96.61z"
			/>
		<path d="M87.94,93.23h-0.85v1.32h-0.53v0.72h0.53v2.51c0,0.53,0.13,0.92,0.36,1.17c0.24,0.24,0.58,0.37,1.01,0.37
			c0.13,0,0.27-0.01,0.42-0.04s0.29-0.05,0.45-0.1l0.03-0.01v-0.76h-0.08h-0.01c-0.05,0.03-0.13,0.05-0.26,0.09
			c-0.12,0.04-0.23,0.05-0.36,0.05c-0.17,0-0.31-0.03-0.41-0.06c-0.1-0.04-0.17-0.12-0.21-0.21c-0.05-0.1-0.08-0.22-0.09-0.35
			c-0.01-0.13-0.01-0.31-0.01-0.54v-2.15h1.42v-0.72h-1.42C87.94,94.53,87.94,93.23,87.94,93.23z"/>
		<path d="M91.71,94.44c-0.63,0-1.14,0.22-1.51,0.65c-0.38,0.44-0.58,1.04-0.58,1.81c0,0.76,0.19,1.36,0.55,1.79
			c0.37,0.44,0.88,0.67,1.54,0.67c0.63,0,1.14-0.22,1.51-0.64c0.37-0.42,0.56-1.04,0.56-1.82s-0.19-1.38-0.56-1.82
			C92.85,94.66,92.34,94.44,91.71,94.44z M92.61,98.19c-0.21,0.28-0.51,0.42-0.9,0.42c-0.38,0-0.69-0.14-0.91-0.44
			c-0.22-0.29-0.32-0.72-0.32-1.29c0-0.59,0.1-1.03,0.32-1.31c0.21-0.28,0.51-0.42,0.91-0.42c0.38,0,0.69,0.14,0.9,0.42
			c0.21,0.28,0.32,0.72,0.32,1.31S92.82,97.91,92.61,98.19z"/>
	</g>
	<g>
		<path d="M0.35,87.49V76.33h6.99v1.32h-5.5v3.06h5.13v1.32H1.83v4.15h5.5v1.32H0.35V87.49z"/>
		<path d="M15.38,87.49h-1.41v-0.94c-0.44,0.38-0.85,0.67-1.24,0.87c-0.4,0.21-0.82,0.29-1.31,0.29c-0.37,0-0.7-0.06-1.03-0.18
			c-0.32-0.12-0.6-0.31-0.85-0.56c-0.24-0.26-0.42-0.59-0.56-0.99c-0.13-0.4-0.21-0.87-0.21-1.44v-5.43h1.41v4.77
			c0,0.45,0.01,0.81,0.05,1.1s0.1,0.55,0.22,0.77s0.27,0.37,0.47,0.47c0.19,0.1,0.49,0.15,0.85,0.15c0.35,0,0.72-0.1,1.1-0.29
			c0.38-0.19,0.74-0.44,1.08-0.72v-6.25h1.41v8.37H15.38z"/>
		<path d="M21.87,80.62h-0.08c-0.1-0.03-0.22-0.05-0.33-0.05c-0.12,0-0.26-0.01-0.42-0.01c-0.38,0-0.76,0.08-1.13,0.24
			c-0.37,0.17-0.73,0.41-1.06,0.73v5.95h-1.41V79.1h1.41v1.24c0.51-0.45,0.96-0.78,1.35-0.96c0.38-0.19,0.76-0.28,1.12-0.28
			c0.14,0,0.26,0,0.32,0.01c0.08,0.01,0.15,0.01,0.24,0.04C21.87,79.15,21.87,80.62,21.87,80.62z"/>
		<path d="M29.78,83.3c0,1.41-0.35,2.5-1.03,3.27c-0.68,0.77-1.59,1.15-2.72,1.15c-1.17,0-2.08-0.4-2.76-1.19
			c-0.68-0.79-1-1.87-1-3.23c0-1.4,0.35-2.49,1.03-3.26c0.68-0.77,1.59-1.17,2.72-1.17s2.04,0.38,2.72,1.15
			C29.44,80.81,29.78,81.9,29.78,83.3z M28.33,83.3c0-1.09-0.19-1.9-0.59-2.42c-0.4-0.53-0.96-0.79-1.69-0.79s-1.31,0.27-1.7,0.79
			c-0.4,0.53-0.6,1.33-0.6,2.42c0,1.05,0.21,1.85,0.6,2.38c0.4,0.54,0.96,0.81,1.7,0.81c0.73,0,1.28-0.27,1.68-0.79
			C28.12,85.17,28.33,84.38,28.33,83.3z"/>
		<path d="M38.12,83.3c0,1.41-0.35,2.5-1.03,3.27c-0.68,0.77-1.59,1.15-2.72,1.15c-1.17,0-2.08-0.4-2.76-1.19
			c-0.68-0.79-1-1.87-1-3.23c0-1.4,0.35-2.49,1.03-3.26c0.68-0.77,1.59-1.17,2.72-1.17c1.13,0,2.04,0.38,2.72,1.15
			C37.77,80.81,38.12,81.9,38.12,83.3z M36.66,83.3c0-1.09-0.19-1.9-0.59-2.42c-0.4-0.53-0.96-0.79-1.69-0.79s-1.31,0.27-1.7,0.79
			c-0.4,0.53-0.6,1.33-0.6,2.42c0,1.05,0.21,1.85,0.6,2.38s0.96,0.81,1.7,0.81c0.73,0,1.28-0.27,1.68-0.79
			C36.47,85.17,36.66,84.38,36.66,83.3z"/>
		<path d="M46.59,83.08c0,1.4-0.33,2.51-1,3.33c-0.67,0.82-1.51,1.24-2.54,1.24c-0.41,0-0.78-0.05-1.1-0.14
			c-0.32-0.09-0.65-0.24-0.99-0.45v3.51h-1.41V79.11h1.41v0.87c0.35-0.32,0.74-0.58,1.17-0.79c0.42-0.22,0.9-0.32,1.4-0.32
			c0.96,0,1.7,0.38,2.24,1.14C46.32,80.78,46.59,81.8,46.59,83.08z M45.14,83.24c0-0.96-0.15-1.69-0.46-2.23
			c-0.31-0.53-0.79-0.79-1.49-0.79c-0.4,0-0.78,0.09-1.15,0.27c-0.37,0.18-0.73,0.41-1.06,0.69v4.74c0.37,0.18,0.69,0.31,0.95,0.37
			c0.27,0.06,0.56,0.1,0.91,0.1c0.73,0,1.29-0.27,1.7-0.81C44.94,85.04,45.14,84.28,45.14,83.24z"/>
		<path d="M52.73,86.6c-0.12,0.09-0.27,0.21-0.46,0.36c-0.19,0.15-0.38,0.27-0.56,0.36c-0.26,0.13-0.49,0.23-0.72,0.29
			c-0.23,0.06-0.56,0.1-0.97,0.1c-0.35,0-0.67-0.06-0.99-0.19c-0.32-0.13-0.58-0.31-0.82-0.55c-0.23-0.23-0.41-0.51-0.54-0.86
			c-0.14-0.33-0.21-0.69-0.21-1.06c0-0.58,0.13-1.08,0.37-1.49c0.24-0.41,0.63-0.73,1.17-0.97c0.47-0.22,1.03-0.36,1.67-0.45
			c0.64-0.08,1.33-0.14,2.08-0.18v-0.27c0-0.33-0.05-0.59-0.15-0.79c-0.1-0.21-0.24-0.36-0.42-0.47c-0.18-0.12-0.4-0.19-0.67-0.23
			c-0.26-0.04-0.53-0.05-0.81-0.05c-0.32,0-0.7,0.05-1.15,0.14c-0.44,0.1-0.88,0.24-1.32,0.42h-0.08v-1.44
			c0.26-0.08,0.63-0.15,1.12-0.24c0.49-0.09,0.96-0.14,1.44-0.14c0.58,0,1.06,0.05,1.46,0.14c0.4,0.09,0.74,0.26,1.06,0.49
			c0.31,0.23,0.54,0.53,0.68,0.9c0.15,0.37,0.23,0.81,0.23,1.33v5.73h-1.4C52.73,87.47,52.73,86.6,52.73,86.6z M52.73,85.43v-2.32
			c-0.33,0.03-0.76,0.08-1.27,0.13c-0.51,0.05-0.92,0.13-1.24,0.22c-0.37,0.12-0.68,0.29-0.94,0.53c-0.24,0.24-0.37,0.56-0.37,1
			c0,0.47,0.14,0.85,0.41,1.09c0.27,0.24,0.67,0.37,1.18,0.37c0.45,0,0.85-0.1,1.2-0.29C52.08,85.94,52.42,85.71,52.73,85.43z"/>
		<path d="M62.7,87.49h-1.41v-4.77c0-0.38-0.01-0.74-0.05-1.08s-0.1-0.6-0.22-0.79c-0.12-0.21-0.27-0.37-0.47-0.47
			c-0.21-0.1-0.49-0.15-0.85-0.15c-0.35,0-0.72,0.09-1.09,0.28c-0.37,0.19-0.73,0.44-1.09,0.73v6.25h-1.41v-8.38h1.41v0.94
			c0.42-0.37,0.83-0.67,1.24-0.86c0.41-0.21,0.85-0.29,1.29-0.29c0.82,0,1.47,0.27,1.94,0.81c0.46,0.54,0.69,1.33,0.69,2.36v5.43
			H62.7z"/>
		<path d="M76.01,87.49H74.6v-0.94c-0.44,0.38-0.85,0.67-1.24,0.87s-0.82,0.29-1.31,0.29c-0.37,0-0.7-0.06-1.03-0.18
			c-0.32-0.12-0.6-0.31-0.85-0.56c-0.24-0.26-0.42-0.59-0.56-0.99c-0.13-0.4-0.21-0.87-0.21-1.44v-5.43h1.41v4.77
			c0,0.45,0.01,0.81,0.05,1.1s0.1,0.55,0.22,0.77c0.12,0.22,0.27,0.37,0.47,0.47c0.19,0.1,0.49,0.15,0.85,0.15
			c0.35,0,0.72-0.1,1.1-0.29c0.38-0.19,0.74-0.44,1.08-0.72v-6.25h1.41v8.37H76.01z"/>
		<path d="M84.63,87.49h-1.41v-4.77c0-0.38-0.01-0.74-0.05-1.08c-0.04-0.33-0.1-0.6-0.22-0.79c-0.12-0.21-0.27-0.37-0.47-0.47
			c-0.21-0.1-0.49-0.15-0.85-0.15c-0.35,0-0.72,0.09-1.09,0.28c-0.37,0.19-0.73,0.44-1.09,0.73v6.25h-1.41v-8.38h1.41v0.94
			c0.42-0.37,0.83-0.67,1.24-0.86c0.41-0.21,0.85-0.29,1.29-0.29c0.82,0,1.47,0.27,1.94,0.81c0.46,0.54,0.69,1.33,0.69,2.36v5.43
			H84.63z"/>
		<path d="M88.16,77.71h-1.6v-1.46h1.6V77.71z M88.06,87.49h-1.41v-8.38h1.41V87.49z"/>
		<path d="M97.02,83.3c0,1.41-0.35,2.5-1.03,3.27c-0.68,0.77-1.59,1.15-2.72,1.15c-1.17,0-2.08-0.4-2.76-1.19
			c-0.68-0.79-1-1.87-1-3.23c0-1.4,0.35-2.49,1.03-3.26c0.68-0.77,1.59-1.17,2.72-1.17c1.13,0,2.04,0.38,2.72,1.15
			C96.68,80.81,97.02,81.9,97.02,83.3z M95.57,83.3c0-1.09-0.19-1.9-0.59-2.42c-0.4-0.53-0.96-0.79-1.69-0.79s-1.31,0.27-1.7,0.79
			c-0.4,0.54-0.59,1.35-0.59,2.42c0,1.05,0.21,1.85,0.6,2.38s0.96,0.81,1.7,0.81c0.73,0,1.28-0.27,1.68-0.79
			C95.36,85.17,95.57,84.38,95.57,83.3z"/>
		<path d="M105.05,87.49h-1.41v-4.77c0-0.38-0.01-0.74-0.05-1.08c-0.04-0.33-0.1-0.6-0.22-0.79c-0.12-0.21-0.27-0.37-0.47-0.47
			c-0.21-0.1-0.49-0.15-0.85-0.15c-0.35,0-0.72,0.09-1.09,0.28c-0.37,0.19-0.73,0.44-1.09,0.73v6.25h-1.41v-8.38h1.41v0.94
			c0.42-0.37,0.83-0.67,1.24-0.86c0.41-0.21,0.85-0.29,1.29-0.29c0.82,0,1.47,0.27,1.94,0.81c0.46,0.54,0.69,1.33,0.69,2.36v5.43
			H105.05z"/>
		<path d="M108.58,77.71h-1.6v-1.46h1.6V77.71z M108.47,87.49h-1.41v-8.38h1.41V87.49z"/>
	</g>
</g>
</svg>
