<?xml version="1.0" encoding="utf-8"?>
<!-- Generator: Adobe Illustrator 27.0.1, SVG Export Plug-In . SVG Version: 6.00 Build 0)  -->
<svg version="1.1" id="Layer_1" xmlns="http://www.w3.org/2000/svg" xmlns:xlink="http://www.w3.org/1999/xlink" x="0px" y="0px"
	 viewBox="0 0 119.09 91.64" style="enable-background:new 0 0 119.09 91.64;" xml:space="preserve">
<style type="text/css">
	.st0{fill:#FDBA12;}
	.st1{fill:#F89928;}
	.st2{fill:#F47D20;}
</style>
<g>
	<g>
		<path class="st0" d="M67.23,11.79c2.74-0.53,5.3-1.41,7.68-2.65c-5.3-6-13.6-9.18-21.98-7.5c-3.71,0.71-7.06,2.3-9.8,4.5
			C49.75,11.26,58.4,13.55,67.23,11.79z"/>
		<path class="st1" d="M69.88,36.86c0.44,2.12,1.06,4.06,1.85,6C78.44,37.65,81.97,28.91,80.2,20c-0.62-3.18-1.85-6.09-3.62-8.56
			C70.76,18.14,68.02,27.41,69.88,36.86z"/>
		<path class="st2" d="M38.98,10.38C35,15.5,33.24,22.21,34.56,29.09c2.47,12.62,14.74,20.75,27.37,18.27
			c1.68-0.35,3.27-0.79,4.77-1.5c0.71-3.62,0.71-7.5-0.09-11.39C63.96,20.79,52.31,11.17,38.98,10.38z"/>
	</g>
	<g>
		<path d="M117.55,67.23v0.53c0,0.53-0.35,0.88-1.06,0.88s-1.06-0.26-1.06-0.88v-0.53c0-0.62,0.35-0.88,1.06-0.88
			C117.11,66.35,117.55,66.7,117.55,67.23"/>
	</g>
	<g>
		<path d="M10.37,60.78c0,0.26-0.18,0.44-0.44,0.44H6.76v10.59c0,0.26-0.18,0.44-0.44,0.44H5.17V61.22H1.99
			c-0.26,0-0.44-0.18-0.44-0.44v-0.97h8.92v0.97H10.37z"/>
		<path d="M14.52,75.79h-0.97c-0.44,0-0.53-0.18-0.44-0.62l0.97-2.91h-0.62l-2.65-9.36h1.41c0.26,0,0.44,0.18,0.53,0.44l1.94,7.77
			l2.38-7.77c0.09-0.26,0.26-0.44,0.53-0.44h1.24L14.52,75.79z"/>
		<path d="M26.09,60.08v0.53c0,0.44-0.35,0.79-0.97,0.79c-0.62,0-0.97-0.26-0.97-0.79v-0.53c0-0.53,0.35-0.79,0.97-0.79
			S26.09,59.55,26.09,60.08 M21.76,66.08v3.09c0,1.32,0.62,2.03,1.77,2.03c1.06,0,1.77-0.71,1.77-2.03v-3.09
			c0-1.32-0.62-1.94-1.77-1.94C22.47,64.05,21.76,64.76,21.76,66.08 M22.91,60.08v0.53c0,0.44-0.35,0.79-0.97,0.79
			c-0.62,0-0.97-0.26-0.97-0.79v-0.53c0-0.53,0.35-0.79,0.97-0.79C22.56,59.28,22.91,59.55,22.91,60.08 M26.88,66.17v2.82
			c0,2.12-1.06,3.44-3.35,3.44s-3.35-1.32-3.35-3.44v-2.82c0-2.12,1.06-3.44,3.35-3.44C25.82,62.73,26.88,64.05,26.88,66.17"/>
		<path d="M29.8,69.61v-5.3h-1.32v-0.88c0-0.26,0.18-0.44,0.44-0.44h0.88l0.26-2.03c0-0.26,0.18-0.44,0.44-0.44h0.88v2.47h2.47v0.88
			c0,0.26-0.18,0.44-0.44,0.44h-2.03v5.47c0,0.97,0.44,1.32,1.24,1.32c0.35,0,0.79-0.09,1.15-0.18s0.53,0.09,0.53,0.44v0.88
			c-0.44,0.18-0.97,0.26-1.68,0.26C30.77,72.52,29.8,71.73,29.8,69.61"/>
		<path d="M42.6,72.26h-1.06c-0.26,0-0.44-0.18-0.44-0.44v-0.88c-0.71,0.97-1.59,1.59-2.47,1.59c-1.5,0-2.47-1.06-2.47-3.18v-6.36
			h1.15c0.26,0,0.44,0.18,0.44,0.44v5.56c0,1.41,0.44,1.94,1.15,1.94c0.71,0,1.5-0.62,2.03-1.59v-6c0-0.26,0.18-0.44,0.44-0.44h1.15
			v9.36H42.6z"/>
		<path d="M45.42,62.99h1.06c0.26,0,0.44,0.18,0.44,0.44v0.88c0.71-1.06,1.59-1.59,2.47-1.59c0.26,0,0.35,0,0.44,0v1.41
			c0,0.35-0.09,0.44-0.35,0.44c-0.18,0-0.18,0-0.35,0c-0.79,0-1.59,0.44-2.12,1.32v5.91c0,0.26-0.18,0.44-0.44,0.44h-1.15
			C45.42,72.26,45.42,62.99,45.42,62.99z"/>
		<path d="M55.93,72.26h-2.12l-2.82-9.36h1.32c0.26,0,0.44,0.18,0.53,0.44l2.12,7.77l2.12-7.77c0.09-0.26,0.26-0.44,0.53-0.44h1.32
			L55.93,72.26z"/>
		<path d="M64.76,69.35v-1.5c-0.53-0.09-1.15-0.18-1.59-0.18c-1.06,0-1.68,0.62-1.68,1.59v0.18c0,0.97,0.53,1.5,1.15,1.5
			C63.34,71.02,64.14,70.49,64.76,69.35 M59.9,69.7v-0.53c0-1.5,1.06-2.65,2.91-2.65c0.53,0,1.41,0.18,1.94,0.26v-1.06
			c0-1.15-0.53-1.59-1.5-1.59c-0.53,0-1.41,0.18-2.12,0.26c-0.35,0.09-0.53-0.09-0.53-0.44v-0.88c0.97-0.18,2.12-0.35,2.65-0.35
			c2.12,0,3.09,0.97,3.09,3.09v6.44h-1.06c-0.26,0-0.44-0.18-0.44-0.44v-0.97c-0.71,1.15-1.59,1.68-2.47,1.68
			C60.87,72.52,59.9,71.47,59.9,69.7"/>
		<path d="M70.14,59.19c0.26,0,0.44,0.18,0.44,0.44v12.54h-1.59V59.19H70.14z"/>
		<path d="M74.55,59.19c0.26,0,0.44,0.18,0.44,0.44v12.54h-1.59V59.19H74.55z"/>
		<path d="M78.97,62.99c0.26,0,0.44,0.18,0.44,0.44v8.83h-1.59v-9.27H78.97z M79.67,60.08v0.53c0,0.53-0.35,0.88-1.06,0.88
			c-0.71,0-1.06-0.26-1.06-0.88v-0.53c0-0.62,0.35-0.88,1.06-0.88S79.67,59.46,79.67,60.08"/>
		<path d="M81.79,72.08l0.09-0.97c0-0.35,0.18-0.53,0.53-0.44c0.62,0.26,1.32,0.35,1.85,0.35c1.24,0,1.59-0.35,1.59-1.15V69.7
			c0-0.62-0.18-0.97-0.79-1.15l-1.85-0.79c-1.15-0.53-1.59-1.24-1.59-2.12v-0.26c0-1.68,0.97-2.65,3.18-2.65
			c0.62,0,1.15,0.09,2.03,0.26v0.88c0,0.35-0.18,0.53-0.53,0.44c-0.44-0.09-0.97-0.18-1.41-0.18c-1.15,0-1.59,0.44-1.59,1.15v0.18
			c0,0.44,0.26,0.71,0.88,0.97l1.77,0.88c1.15,0.53,1.59,1.24,1.59,2.21v0.44c0,1.68-0.97,2.65-3.18,2.65
			C83.56,72.52,82.76,72.35,81.79,72.08"/>
		<path d="M96.09,72.26h-1.06c-0.26,0-0.44-0.18-0.44-0.44v-0.88c-0.71,0.97-1.59,1.59-2.47,1.59c-1.5,0-2.47-1.06-2.47-3.18v-6.36
			h1.15c0.26,0,0.44,0.18,0.44,0.44v5.56c0,1.41,0.44,1.94,1.15,1.94c0.71,0,1.5-0.62,2.03-1.59v-6c0-0.26,0.18-0.44,0.44-0.44h1.15
			v9.36H96.09z"/>
		<path d="M105.36,72.26h-1.06c-0.26,0-0.44-0.18-0.44-0.44v-0.88c-0.71,0.97-1.59,1.59-2.47,1.59c-1.5,0-2.47-1.06-2.47-3.18v-6.36
			h1.15c0.26,0,0.44,0.18,0.44,0.44v5.56c0,1.41,0.44,1.94,1.15,1.94s1.5-0.62,2.03-1.59v-6c0-0.26,0.18-0.44,0.44-0.44h1.15v9.36
			H105.36z"/>
		<path d="M107.75,72.08l0.09-0.97c0-0.35,0.18-0.53,0.53-0.44c0.62,0.26,1.32,0.35,1.85,0.35c1.24,0,1.59-0.35,1.59-1.15V69.7
			c0-0.62-0.18-0.97-0.79-1.15l-1.85-0.79c-1.15-0.53-1.59-1.24-1.59-2.12v-0.26c0-1.68,0.97-2.65,3.18-2.65
			c0.62,0,1.15,0.09,2.03,0.26v0.88c0,0.35-0.18,0.53-0.53,0.44c-0.44-0.09-0.97-0.18-1.41-0.18c-1.15,0-1.59,0.44-1.59,1.15v0.18
			c0,0.44,0.26,0.71,0.88,0.97l1.77,0.88c1.15,0.53,1.59,1.24,1.59,2.21v0.44c0,1.68-0.97,2.65-3.18,2.65
			C109.42,72.52,108.63,72.35,107.75,72.08"/>
	</g>
	<g>
		<path d="M37.3,76.94c0.26,0,0.44,0.18,0.44,0.44v7.33l2.82-3.8c0.18-0.18,0.35-0.26,0.53-0.26h1.5l-3.18,4.06l3.44,5.21h-1.59
			c-0.26,0-0.44-0.09-0.62-0.35l-2.91-4.68v4.5c0,0.26-0.18,0.44-0.44,0.44h-1.15V76.76h1.15V76.94z"/>
		<path d="M48.86,84.53v-0.88c0-1.24-0.71-1.85-1.68-1.85c-0.97,0-1.59,0.62-1.59,1.85v0.88H48.86z M43.92,86.91v-3
			c0-2.21,1.06-3.44,3.27-3.44c2.12,0,3.27,1.15,3.27,3.44v1.15c0,0.62-0.18,0.88-0.79,0.88h-4.15v1.15c0,1.32,0.62,1.85,1.94,1.85
			c0.62,0,1.32-0.09,1.94-0.26c0.35-0.09,0.53,0.09,0.53,0.44v0.97c-0.88,0.18-1.85,0.35-2.65,0.35
			C44.89,90.27,43.92,89.12,43.92,86.91"/>
		<path d="M52.4,89.83l0.09-0.97c0-0.35,0.18-0.53,0.53-0.44c0.62,0.26,1.32,0.35,1.85,0.35c1.24,0,1.59-0.35,1.59-1.15v-0.18
			c0-0.62-0.18-0.97-0.79-1.15l-1.85-0.79c-1.15-0.53-1.59-1.24-1.59-2.12v-0.26c0-1.68,0.97-2.65,3.18-2.65
			c0.62,0,1.15,0.09,2.03,0.26v0.88c0,0.35-0.18,0.53-0.53,0.44c-0.44-0.09-0.97-0.18-1.41-0.18c-1.15,0-1.59,0.44-1.59,1.15v0.18
			c0,0.44,0.26,0.71,0.88,0.97l1.77,0.88c1.15,0.53,1.59,1.24,1.59,2.21v0.44c0,1.68-0.97,2.65-3.18,2.65
			C54.07,90.27,53.28,90.09,52.4,89.83"/>
		<path d="M61.31,76.94c0.26,0,0.44,0.18,0.44,0.44v7.33l2.82-3.8c0.18-0.18,0.35-0.26,0.53-0.26h1.5l-3.18,4.06l3.44,5.21h-1.59
			c-0.26,0-0.44-0.09-0.62-0.35l-2.91-4.68v4.5c0,0.26-0.18,0.44-0.44,0.44h-1.15V76.76h1.15V76.94z"/>
		<path d="M74.82,90h-1.06c-0.26,0-0.44-0.18-0.44-0.44v-0.88c-0.71,0.97-1.59,1.59-2.47,1.59c-1.5,0-2.47-1.06-2.47-3.18v-6.36
			h1.15c0.26,0,0.44,0.18,0.44,0.44v5.56c0,1.41,0.44,1.94,1.15,1.94s1.5-0.62,2.03-1.59v-6c0-0.26,0.18-0.44,0.44-0.44h1.15V90
			H74.82z"/>
		<path d="M77.2,89.83l0.09-0.97c0-0.35,0.18-0.53,0.53-0.44c0.62,0.26,1.32,0.35,1.85,0.35c1.24,0,1.59-0.35,1.59-1.15v-0.18
			c0-0.62-0.18-0.97-0.79-1.15l-1.85-0.79c-1.15-0.53-1.59-1.24-1.59-2.12v-0.26c0-1.68,0.97-2.65,3.18-2.65
			c0.62,0,1.15,0.09,2.03,0.26v0.88c0,0.35-0.18,0.53-0.53,0.44c-0.44-0.09-0.97-0.18-1.41-0.18c-1.15,0-1.59,0.44-1.59,1.15v0.18
			c0,0.44,0.26,0.71,0.88,0.97l1.77,0.88c1.15,0.53,1.59,1.24,1.59,2.21v0.44c0,1.68-0.97,2.65-3.18,2.65
			C78.97,90.27,78.17,90.09,77.2,89.83"/>
	</g>
</g>
</svg>
