<?xml version="1.0" encoding="utf-8"?>
<!-- Generator: Adobe Illustrator 27.0.1, SVG Export Plug-In . SVG Version: 6.00 Build 0)  -->
<svg version="1.1" id="Layer_1" xmlns="http://www.w3.org/2000/svg" xmlns:xlink="http://www.w3.org/1999/xlink" x="0px" y="0px"
	 viewBox="0 0 111.44 74.42" style="enable-background:new 0 0 111.44 74.42;" xml:space="preserve">
<style type="text/css">
	.st0{fill:#82BE41;}
</style>
<g>
	<g>
		<path d="M4.07,68.56c0.15-0.1,0.29-0.24,0.49-0.39s0.34-0.29,0.58-0.44c0.19-0.15,0.39-0.29,0.58-0.44
			c0.19-0.15,0.34-0.24,0.44-0.39c0.15-0.1,0.24-0.19,0.29-0.19c0.44-0.34,0.87-0.68,1.21-0.97c0.34-0.29,0.68-0.58,0.92-0.87
			c0.24-0.29,0.49-0.53,0.68-0.78c0.19-0.24,0.34-0.49,0.44-0.73c0.1-0.24,0.19-0.49,0.24-0.73c0.05-0.24,0.1-0.49,0.1-0.78
			c0-0.49-0.1-0.97-0.24-1.36c-0.15-0.44-0.44-0.82-0.73-1.12c-0.34-0.34-0.73-0.58-1.26-0.73c-0.49-0.19-1.07-0.29-1.75-0.29
			c-0.44,0-0.87,0.05-1.26,0.1c-0.39,0.05-0.78,0.19-1.16,0.34c-0.39,0.15-0.73,0.34-1.12,0.58c-0.39,0.24-0.78,0.53-1.16,0.82
			l0.87,1.26c0.39-0.29,0.78-0.53,1.07-0.73c0.34-0.19,0.63-0.34,0.87-0.44c0.29-0.1,0.53-0.15,0.78-0.19
			c0.24-0.05,0.49-0.05,0.78-0.05c0.34,0,0.68,0.05,0.97,0.15s0.53,0.24,0.73,0.44c0.19,0.19,0.34,0.39,0.49,0.68
			c0.1,0.24,0.15,0.53,0.15,0.82c0,0.19,0,0.39-0.05,0.53c-0.05,0.19-0.1,0.34-0.19,0.53c-0.1,0.19-0.24,0.39-0.39,0.58
			C7.27,64,7.08,64.24,6.83,64.48c-0.24,0.24-0.53,0.49-0.82,0.78c-0.34,0.29-0.73,0.58-1.12,0.92c-0.15,0.15-0.34,0.24-0.53,0.44
			c-0.19,0.15-0.39,0.29-0.63,0.49c-0.19,0.15-0.44,0.34-0.63,0.49c-0.24,0.15-0.44,0.34-0.63,0.49c-0.49,0.39-0.97,0.73-1.5,1.12
			l0.19,1.16h9.36l0.19-1.5H3.82C3.87,68.7,3.97,68.65,4.07,68.56z"/>
		<path d="M18.53,58.32c-0.63,0-1.21,0.05-1.75,0.19c-0.53,0.15-1.02,0.34-1.46,0.58c-0.44,0.24-0.82,0.58-1.16,0.92
			c-0.34,0.39-0.63,0.78-0.87,1.21c-0.24,0.44-0.39,0.97-0.53,1.46c-0.15,0.53-0.19,1.07-0.19,1.65c0,0.92,0.1,1.75,0.34,2.47
			c0.19,0.73,0.53,1.36,0.97,1.84c0.44,0.53,1.02,0.92,1.7,1.16c0.68,0.24,1.5,0.39,2.47,0.39c0.63,0,1.21-0.05,1.75-0.19
			c0.53-0.15,1.02-0.34,1.46-0.58c0.44-0.24,0.82-0.58,1.16-0.97c0.34-0.39,0.63-0.78,0.87-1.26c0.24-0.49,0.39-0.97,0.53-1.5
			c0.1-0.53,0.19-1.12,0.19-1.75c0-1.89-0.44-3.35-1.36-4.32C21.73,58.8,20.37,58.32,18.53,58.32z M21.63,66.28
			c-0.19,0.58-0.44,1.07-0.73,1.46c-0.34,0.39-0.68,0.68-1.16,0.87c-0.44,0.19-0.92,0.29-1.5,0.29c-0.63,0-1.21-0.1-1.65-0.29
			c-0.44-0.19-0.82-0.49-1.12-0.87c-0.29-0.39-0.49-0.87-0.63-1.46c-0.15-0.58-0.19-1.21-0.19-1.99c0-0.68,0.1-1.26,0.24-1.84
			c0.15-0.53,0.39-1.02,0.73-1.41c0.34-0.39,0.73-0.68,1.16-0.92c0.49-0.19,1.02-0.34,1.6-0.34c1.16,0,2.04,0.34,2.62,1.07
			c0.58,0.73,0.87,1.84,0.87,3.3C21.87,65.01,21.83,65.69,21.63,66.28z"/>
		<polygon points="25.71,60.21 28.96,60.31 28.96,70.26 30.95,70.26 30.95,58.66 25.76,58.85 		"/>
		<path d="M42.55,58.61l-1.84-0.15c-1.16,1.55-2.38,3.06-3.54,4.61c-1.21,1.5-2.38,3.06-3.54,4.56l0.29,1.41h6.74v4.9l1.94-0.1v-4.8
			h2.09l0.1-1.5h-2.18v-8.93H42.55z M40.6,67.54h-5.14c0.87-1.12,1.75-2.23,2.57-3.3c0.87-1.12,1.7-2.23,2.57-3.3
			C40.6,60.94,40.6,67.54,40.6,67.54z"/>
		<polygon points="46.33,64.68 58.41,64.68 58.51,63.32 46.48,63.32 		"/>
		<path d="M63.51,68.56c0.15-0.1,0.29-0.24,0.49-0.39c0.19-0.15,0.34-0.29,0.58-0.44c0.19-0.15,0.39-0.29,0.58-0.44
			c0.19-0.15,0.34-0.24,0.44-0.39c0.15-0.1,0.24-0.19,0.29-0.19c0.44-0.34,0.87-0.68,1.21-0.97c0.34-0.29,0.68-0.58,0.92-0.87
			c0.24-0.29,0.49-0.53,0.68-0.78c0.19-0.24,0.34-0.49,0.44-0.73c0.1-0.24,0.19-0.49,0.24-0.73c0.05-0.24,0.1-0.49,0.1-0.78
			c0-0.49-0.1-0.97-0.24-1.36c-0.15-0.44-0.44-0.82-0.73-1.12c-0.34-0.34-0.73-0.58-1.26-0.73c-0.49-0.19-1.07-0.29-1.75-0.29
			c-0.44,0-0.87,0.05-1.26,0.1c-0.39,0.05-0.78,0.19-1.16,0.34c-0.39,0.15-0.73,0.34-1.12,0.58c-0.39,0.24-0.78,0.53-1.21,0.82
			l0.87,1.26c0.39-0.29,0.78-0.53,1.07-0.73c0.29-0.19,0.63-0.34,0.87-0.44c0.29-0.1,0.53-0.15,0.78-0.19
			c0.24-0.05,0.49-0.05,0.78-0.05c0.34,0,0.68,0.05,0.97,0.15s0.53,0.24,0.73,0.44c0.19,0.19,0.34,0.39,0.49,0.68
			c0.1,0.24,0.15,0.53,0.15,0.82c0,0.19,0,0.39-0.05,0.53c-0.05,0.19-0.1,0.34-0.19,0.53c-0.1,0.19-0.24,0.39-0.39,0.58
			c-0.15,0.19-0.34,0.44-0.58,0.68c-0.24,0.24-0.53,0.49-0.82,0.78c-0.34,0.29-0.73,0.58-1.12,0.92c-0.15,0.15-0.34,0.24-0.53,0.44
			c-0.19,0.15-0.39,0.29-0.63,0.49c-0.19,0.15-0.44,0.34-0.68,0.49c-0.24,0.15-0.44,0.34-0.63,0.49c-0.49,0.39-0.97,0.73-1.5,1.12
			l0.19,1.16h9.36l0.19-1.5h-6.74C63.26,68.7,63.36,68.65,63.51,68.56z"/>
		<path d="M77.92,58.32c-0.63,0-1.21,0.05-1.75,0.19c-0.53,0.15-1.02,0.34-1.46,0.58s-0.82,0.58-1.16,0.92
			c-0.34,0.39-0.63,0.78-0.87,1.21c-0.24,0.44-0.39,0.97-0.53,1.46c-0.15,0.53-0.19,1.07-0.19,1.65c0,0.92,0.1,1.75,0.34,2.47
			c0.19,0.73,0.53,1.36,0.97,1.84c0.44,0.53,1.02,0.92,1.7,1.16c0.68,0.24,1.5,0.39,2.47,0.39c0.63,0,1.21-0.05,1.75-0.19
			c0.53-0.15,1.02-0.34,1.46-0.58c0.44-0.24,0.82-0.58,1.16-0.97c0.34-0.39,0.63-0.78,0.87-1.26c0.24-0.49,0.39-0.97,0.53-1.5
			c0.1-0.53,0.19-1.12,0.19-1.75c0-1.89-0.44-3.35-1.36-4.32C81.12,58.8,79.76,58.32,77.92,58.32z M81.02,66.28
			c-0.19,0.58-0.44,1.07-0.73,1.46c-0.34,0.39-0.68,0.68-1.16,0.87c-0.44,0.19-0.92,0.29-1.5,0.29c-0.63,0-1.21-0.1-1.65-0.29
			c-0.44-0.19-0.82-0.49-1.12-0.87c-0.29-0.39-0.49-0.87-0.63-1.46s-0.19-1.21-0.19-1.99c0-0.68,0.1-1.26,0.24-1.84
			c0.15-0.53,0.39-1.02,0.73-1.41c0.34-0.39,0.73-0.68,1.16-0.92c0.49-0.19,1.02-0.34,1.6-0.34c1.16,0,2.04,0.34,2.62,1.07
			c0.58,0.73,0.87,1.84,0.87,3.3C81.31,65.01,81.22,65.69,81.02,66.28z"/>
		<path d="M88.59,68.56c0.15-0.1,0.29-0.24,0.49-0.39s0.34-0.29,0.58-0.44c0.19-0.15,0.39-0.29,0.58-0.44
			c0.19-0.15,0.34-0.24,0.44-0.39c0.15-0.1,0.24-0.19,0.29-0.19c0.44-0.34,0.87-0.68,1.21-0.97c0.34-0.29,0.68-0.58,0.92-0.87
			c0.24-0.29,0.49-0.53,0.68-0.78c0.19-0.24,0.34-0.49,0.44-0.73c0.1-0.24,0.19-0.49,0.24-0.73c0.05-0.24,0.1-0.49,0.1-0.78
			c0-0.49-0.1-0.97-0.24-1.36c-0.15-0.44-0.44-0.82-0.73-1.12c-0.34-0.34-0.73-0.58-1.26-0.73c-0.49-0.19-1.07-0.29-1.75-0.29
			c-0.44,0-0.87,0.05-1.26,0.1c-0.39,0.05-0.78,0.19-1.16,0.34s-0.73,0.34-1.12,0.58c-0.39,0.24-0.78,0.53-1.16,0.82l0.87,1.26
			c0.39-0.29,0.78-0.53,1.07-0.73c0.29-0.19,0.63-0.34,0.87-0.44c0.29-0.1,0.53-0.15,0.78-0.19c0.24-0.05,0.49-0.05,0.78-0.05
			c0.34,0,0.68,0.05,0.97,0.15s0.53,0.24,0.73,0.44c0.19,0.19,0.34,0.39,0.49,0.68c0.1,0.24,0.15,0.53,0.15,0.82
			c0,0.19,0,0.39-0.05,0.53c-0.05,0.19-0.1,0.34-0.19,0.53c-0.1,0.19-0.24,0.39-0.39,0.58c-0.15,0.19-0.34,0.44-0.58,0.68
			c-0.24,0.24-0.53,0.49-0.82,0.78c-0.34,0.29-0.73,0.58-1.12,0.92c-0.15,0.15-0.34,0.24-0.53,0.44c-0.19,0.15-0.39,0.29-0.63,0.49
			c-0.19,0.15-0.44,0.34-0.63,0.49c-0.24,0.15-0.44,0.34-0.63,0.49c-0.49,0.39-0.97,0.73-1.5,1.12l0.19,1.16h9.36l0.19-1.5H88.5
			C88.35,68.7,88.45,68.65,88.59,68.56z"/>
		<path d="M103.05,58.32c-0.63,0-1.21,0.05-1.75,0.19c-0.53,0.15-1.02,0.34-1.46,0.58s-0.82,0.58-1.16,0.92
			c-0.34,0.39-0.63,0.78-0.87,1.21c-0.24,0.44-0.39,0.97-0.53,1.46c-0.15,0.53-0.19,1.07-0.19,1.65c0,0.92,0.1,1.75,0.34,2.47
			c0.19,0.73,0.53,1.36,0.97,1.84c0.44,0.53,1.02,0.92,1.7,1.16c0.68,0.24,1.5,0.39,2.47,0.39c0.63,0,1.21-0.05,1.75-0.19
			c0.53-0.15,1.02-0.34,1.46-0.58c0.44-0.24,0.82-0.58,1.16-0.97c0.34-0.39,0.63-0.78,0.87-1.26c0.24-0.49,0.39-0.97,0.53-1.5
			c0.1-0.53,0.19-1.12,0.19-1.75c0-1.89-0.44-3.35-1.36-4.32C106.25,58.8,104.9,58.32,103.05,58.32z M106.16,66.28
			c-0.19,0.58-0.44,1.07-0.73,1.46c-0.34,0.39-0.68,0.68-1.16,0.87c-0.44,0.19-0.92,0.29-1.5,0.29c-0.63,0-1.21-0.1-1.65-0.29
			c-0.44-0.19-0.82-0.49-1.12-0.87c-0.29-0.39-0.49-0.87-0.63-1.46s-0.19-1.21-0.19-1.99c0-0.68,0.1-1.26,0.24-1.84
			c0.15-0.53,0.39-1.02,0.73-1.41c0.34-0.39,0.73-0.68,1.16-0.92c0.49-0.19,1.02-0.34,1.6-0.34c1.16,0,2.04,0.34,2.62,1.07
			c0.58,0.73,0.87,1.84,0.87,3.3C106.4,65.01,106.3,65.69,106.16,66.28z"/>
		<path d="M91.84,47.11c0,3.74,2.47,5.34,5.39,5.34c2.77,0,5.29-1.12,7.18-3.25c0,2.09,0.78,3.06,2.81,3.06
			c1.36,0,2.57-0.29,3.49-0.58l-0.15-1.65c-0.82,0.19-1.84,0.34-2.77,0.34c-1.02,0-1.12-0.34-1.12-1.41l0.05-12.57
			c0-3.54-1.55-5.43-5.09-5.43c-3.74,0-6.21,1.02-8.73,2.91l1.12,1.6c2.04-1.6,4.8-2.52,7.08-2.52c2.33,0,3.45,1.07,3.4,3.69
			l-0.05,4.9C93.35,42.16,91.84,44.25,91.84,47.11z M104.41,47.16c-1.31,1.7-4.08,3.49-6.45,3.49c-2.52,0-3.78-1.55-3.78-3.78
			c0-2.18,2.91-3.06,10.34-3.59L104.41,47.16z"/>
		<path d="M78.45,47.6c0,3.3,1.41,4.8,4.56,4.8c2.04,0,3.93-0.49,5.68-1.55l-0.63-1.75c-1.5,0.82-3.06,1.31-4.56,1.31
			c-1.99,0-2.77-0.82-2.77-3.01V33.33h7.23l0.15-1.99h-7.38v-7.08l-1.84,0.19l-0.39,6.94l-2.81,0.19l-0.19,1.6l3.01,0.1V47.6H78.45z
			"/>
		<path d="M69.81,52.25c1.36,0,2.52-0.19,3.45-0.49l-0.15-1.7c-0.87,0.19-1.8,0.29-2.77,0.29c-0.97,0-1.07-0.34-1.07-1.36
			l-0.15-28.87l-2.28,0.19L67,49.05C67,51.33,67.78,52.25,69.81,52.25z"/>
		<path d="M48.22,21.73h-2.23v18.1c0,6.84-2.38,10.53-9.32,10.53c-6.7,0-8.98-3.4-8.98-10.04V21.73h-2.33v19.02
			c0,7.52,2.72,11.65,11.16,11.65c8.15,0,11.65-5.05,11.65-12.42V21.73H48.22z"/>
		<rect x="55.84" y="34.49" width="3.59" height="3.01"/>
		<polygon points="18.87,50.17 4.02,50.17 4.02,37.21 16.88,37.21 16.88,35.27 4.02,35.27 4.02,23.63 18.87,23.63 19.01,21.73 
			1.69,21.73 1.69,52.06 19.01,52.06 		"/>
		<rect x="55.84" y="46.14" width="3.59" height="3.01"/>
	</g>
	<path class="st0" d="M100.82,11.74c0,0.63,0.34,1.02,0.92,1.02c0.58,0,1.07-0.24,1.36-0.53v-1.5
		C100.97,10.96,100.82,11.15,100.82,11.74 M100.38,14.94c-1.55,0-2.86-1.16-2.86-3.11c0-1.46,0.78-2.43,5.53-2.77V8.1
		c0-0.63-0.19-0.82-0.68-0.82c-1.02,0-2.23,0.44-3.2,1.12l-1.26-2.04c1.5-1.12,3.15-1.65,5.34-1.65c2.47,0,3.3,1.21,3.3,3.15v4.12
		c0,0.24,0.19,0.29,1.07,0.49l-0.53,2.47c-0.39,0-0.68,0-0.97,0c-1.89,0-2.52-0.39-2.91-1.16C102.42,14.65,101.6,14.94,100.38,14.94
		 M89.9,11.74c0,0.63,0.34,1.02,0.92,1.02s1.07-0.24,1.36-0.53v-1.5C90.05,10.96,89.9,11.15,89.9,11.74 M89.47,14.94
		c-1.55,0-2.86-1.16-2.86-3.11c0-1.46,0.78-2.43,5.53-2.77V8.1c0-0.63-0.19-0.82-0.68-0.82c-1.02,0-2.23,0.44-3.2,1.12l-1.26-2.04
		c1.5-1.12,3.15-1.65,5.34-1.65c2.47,0,3.3,1.21,3.3,3.15v4.12c0,0.24,0.19,0.29,1.07,0.49l-0.53,2.47c-0.39,0-0.68,0-0.97,0
		c-1.89,0-2.52-0.39-2.91-1.16C91.5,14.65,90.68,14.94,89.47,14.94 M81.61,8.29c0-0.53-0.24-0.68-0.63-0.68
		c-0.44,0-1.02,0.34-1.6,0.82v6.36h-3.35v-6.5c0-0.53-0.24-0.68-0.63-0.68c-0.44,0-1.07,0.34-1.65,0.82v6.36H70.4V4.94l2.96-0.15
		c0.15,0.29,0.24,0.87,0.29,1.36c1.02-0.87,2.13-1.46,3.15-1.46c1.55,0,2.13,0.63,2.43,1.5c0.78-0.73,2.04-1.5,3.11-1.5
		C84.37,4.7,85,5.62,85,7.42v7.38h-3.35v-6.5H81.61z M64.77,0.53h3.3v2.91h-3.3V0.53z M64.77,14.79V5.04l3.4-0.15v9.9
		C68.16,14.79,64.77,14.79,64.77,14.79z M58.02,7.18c-0.97,0-1.5,0.82-1.5,2.57c0,2.13,0.34,2.86,1.41,2.86
		c1.16,0,1.55-0.82,1.55-2.81C59.48,7.81,59.04,7.18,58.02,7.18 M57.73,14.94c-3.3,0-4.8-1.65-4.8-4.95c0-3.15,1.99-5.24,5.24-5.24
		c3.35,0,4.85,1.55,4.85,4.9C63.02,12.71,61.18,14.94,57.73,14.94 M47.2,10.04c0.15,0.39,0.19,0.78,0.19,1.07
		c0-0.24,0.05-0.68,0.19-1.07l1.65-5.05h3.11l-3.69,9.8H45.5l-3.49-9.8h3.59L47.2,10.04z M31.97,5.04l3.49-0.15v6.45
		c0,0.53,0.15,0.73,0.58,0.73s0.87-0.24,1.5-0.78V4.99l3.45-0.15v9.8l-3.06,0.19c-0.15-0.34-0.19-0.87-0.29-1.36
		c-0.92,0.82-2.13,1.41-3.11,1.41c-1.89,0-2.57-0.87-2.57-2.86L31.97,5.04L31.97,5.04z M25.32,7.47c-0.49,0-0.87,0.19-1.31,0.49
		v4.42c0.24,0.1,0.73,0.15,1.07,0.15c1.16,0,1.7-0.73,1.7-2.72C26.78,8.2,26.19,7.47,25.32,7.47 M25.22,14.79
		c-0.24,0-1.02,0-1.21-0.05v2.33l-3.49,0.19V4.94l3.06-0.15c0.15,0.34,0.19,0.68,0.24,1.16c0.87-0.82,1.8-1.26,2.91-1.26
		c2.04,0,3.49,1.36,3.49,4.85C30.27,12.37,29.01,14.79,25.22,14.79 M14.94,0.53h3.3v2.91h-3.3V0.53z M14.89,14.79V5.04l3.45-0.15
		v9.9C18.33,14.79,14.89,14.79,14.89,14.79z M10.52,0.48h3.4L8.73,14.79h-3.4L0.72,0.48h4.08l2.47,8.78
		c0.1,0.39,0.15,0.78,0.15,1.02c0-0.24,0.1-0.68,0.19-1.02L10.52,0.48z"/>
</g>
</svg>
