<?xml version="1.0" encoding="utf-8"?>
<!-- Generator: Adobe Illustrator 27.0.1, SVG Export Plug-In . SVG Version: 6.00 Build 0)  -->
<svg version="1.1" id="Layer_1" xmlns="http://www.w3.org/2000/svg" xmlns:xlink="http://www.w3.org/1999/xlink" x="0px" y="0px"
	 viewBox="0 0 32.1 32.13" style="enable-background:new 0 0 32.1 32.13;" xml:space="preserve">
<style type="text/css">
	.st0{fill:#2C2C2C;}
</style>
<g>
	<path class="st0" d="M0.05,17.06c0-0.67,0-1.34,0-2c0.02-0.1,0.04-0.2,0.06-0.3c0.12-0.76,0.18-1.54,0.36-2.28
		C1.68,7.54,4.58,3.9,9.13,1.65c3.01-1.49,6.23-1.93,9.54-1.36c4.15,0.71,7.54,2.76,10.09,6.1c2.67,3.5,3.7,7.48,3.13,11.84
		c-0.42,3.21-1.74,6.05-3.9,8.46c-2.46,2.76-5.52,4.48-9.16,5.14c-0.59,0.11-1.19,0.17-1.79,0.25c-0.67,0-1.34,0-2,0
		c-0.39-0.05-0.78-0.09-1.17-0.14c-3.18-0.46-6-1.73-8.4-3.87c-2.78-2.47-4.52-5.54-5.18-9.2C0.2,18.26,0.13,17.66,0.05,17.06z
		 M16.04,23.34c2.72,0,5.44,0,8.16,0c1.35,0,2.17-0.83,2.17-2.19c0-3.38,0-6.77,0-10.15c0-1.38-0.82-2.2-2.19-2.2
		c-5.42,0-10.83,0-16.25,0c-1.37,0-2.19,0.83-2.19,2.2c0,3.37,0.03,6.73-0.02,10.09c-0.02,1.27,0.87,2.29,2.25,2.26
		C10.66,23.3,13.35,23.34,16.04,23.34z"/>
	<path class="st0" d="M24.69,11.29c0.01,0.17,0.02,0.27,0.02,0.37c0,3.13,0,6.27,0,9.4c0,0.54-0.08,0.62-0.61,0.62
		c-5.36,0-10.73,0-16.09,0c-0.53,0-0.61-0.08-0.61-0.62c0-3.13,0-6.27,0-9.4c0-0.1,0-0.2,0-0.38c0.36,0.28,0.66,0.52,0.95,0.75
		c2.36,1.88,4.73,3.76,7.1,5.64c0.44,0.35,0.78,0.34,1.24-0.02c2.53-2,5.05-4.02,7.58-6.02C24.39,11.54,24.51,11.44,24.69,11.29z"/>
	<path class="st0" d="M9.04,10.45c4.69,0,9.33,0,14.01,0c-0.1,0.09-0.16,0.16-0.23,0.21c-2.19,1.74-4.38,3.47-6.56,5.21
		c-0.15,0.13-0.25,0.15-0.43,0.02c-2.21-1.77-4.43-3.52-6.66-5.29C9.16,10.57,9.12,10.53,9.04,10.45z"/>
</g>
</svg>
