<?xml version="1.0" encoding="utf-8"?>
<!-- Generator: Adobe Illustrator 27.0.1, SVG Export Plug-In . SVG Version: 6.00 Build 0)  -->
<svg version="1.1" id="Layer_1" xmlns="http://www.w3.org/2000/svg" xmlns:xlink="http://www.w3.org/1999/xlink" x="0px" y="0px"
	 viewBox="0 0 39.67 39.67" style="enable-background:new 0 0 39.67 39.67;" xml:space="preserve">
<style type="text/css">
	.st0{fill:#F47D20;}
	.st1{fill:#2C2C2C;}
</style>
<g>
	<path class="st0" d="M33.11,5.55c-7.89-7.33-20.23-6.88-27.56,1s-6.88,20.23,1,27.56s20.23,6.88,27.56-1S41,12.89,33.11,5.55z"/>
	<path class="st1" d="M24.27,28.24c-0.03,0.03-0.05,0.06-0.08,0.08c-0.01,0.01-0.02,0.02-0.03,0.03c-0.42,0.36-1.05,0.31-1.41-0.11
		c-0.37-0.43-0.33-1.09,0.08-1.48l5.44-5.53l-20,0.03c-0.04,0-0.09,0-0.12,0c-0.55-0.05-0.96-0.52-0.95-1.06
		c0.01-0.58,0.49-1.04,1.07-1.02l19.92-0.03l-5.39-5.51c-0.37-0.4-0.38-1.03,0-1.44c0.01-0.01,0.02-0.02,0.03-0.03
		c0.39-0.39,1.02-0.4,1.42,0l7.16,7.34l0,0c0.4,0.41,0.4,1.06,0,1.47L24.27,28.24z"/>
</g>
</svg>
