<?xml version="1.0" encoding="utf-8"?>
<!-- Generator: Adobe Illustrator 27.0.1, SVG Export Plug-In . SVG Version: 6.00 Build 0)  -->
<svg version="1.1" id="Layer_1" xmlns="http://www.w3.org/2000/svg" xmlns:xlink="http://www.w3.org/1999/xlink" x="0px" y="0px"
	 viewBox="0 0 187 187" style="enable-background:new 0 0 187 187;" xml:space="preserve">
<style type="text/css">
	.st0{fill:none;}
	.st1{fill:#FFFFFF;}
	.st2{fill:#FBB816;}
	.st3{fill:#F7AF77;}
	.st4{fill:#EF995A;}
	.st5{fill:#2C3966;}
	.st6{fill:#F59A28;}
</style>
<g>
	<rect class="st0" width="187" height="187"/>
	<g>
		<circle class="st1" cx="93.5" cy="93.5" r="89.8"/>
		<g>
			<path class="st0" d="M120.06,68.06c-0.29-0.79-1.07-1.44-1.91-1.47c0.43,1.58,0.85,3.16,1.28,4.74
				C120,70.33,120.47,69.15,120.06,68.06z"/>
			<path class="st2" d="M112.67,130.57c6.19,5.71,14.02,15.31,18.85,30.12c1.31,4.01,2.51,8.16,3.63,12.38
				c2.25-1.18,4.45-2.45,6.58-3.81c-4.27-10.97-9.05-21.58-16.81-30.7c-3.46-4.06-7.54-7.89-12.32-10.09
				C112.68,129.16,112.7,129.87,112.67,130.57z"/>
			<path class="st2" d="M101.11,182.98c12.21-1.02,23.72-4.49,34.05-9.91c-1.11-4.23-2.31-8.37-3.63-12.38
				c-4.84-14.81-12.66-24.41-18.85-30.12c-0.13,3.33-1.2,6.46-1.2,6.46c-2.85-8.54-14.73-11.64-14.73-11.64
				c-0.14,6.36,2.6,16.38,2.6,16.38c-21,2.38-35.9-14.7-37.51-16.62c-2.7,1.42-5.53,3.09-8.5,5.06c-3.59,2.39-7.03,5.57-10.09,9.48
				c7.22-7.24,13.28-10.68,13.28-10.68S95.86,169.58,101.11,182.98z"/>
			<path class="st2" d="M96.58,125.37c0.1,0.01,0.17,0.02,0.17,0.02c0.2-0.06,0.38-0.12,0.57-0.19
				C97.07,125.26,96.82,125.31,96.58,125.37z"/>
			<path class="st3" d="M105.03,110.85c0.14-3.93,0.07-6.81,0-8.49C105.1,104.77,105.14,107.82,105.03,110.85z"/>
			<path class="st3" d="M96.58,125.37c0.25-0.06,0.49-0.11,0.74-0.17c8.97-3,7.42-8.03,7.42-8.03c0.32-3.86,0.25-3.5,0.29-6.32
				c-16.17-2.82-25.81-17.2-25.81-17.2l0.14-0.02c-0.15-0.21-0.31-0.42-0.45-0.64c-0.36,7.7-2.35,14-4.69,18.87c0,0,0.01,0,0.01,0
				C77.94,122.7,94.76,125.13,96.58,125.37z"/>
			<path class="st4" d="M79.36,93.64l-0.14,0.02c0,0,9.64,14.38,25.81,17.2c0.1-3.03,0.07-6.08,0-8.49
				c-0.02-0.78-0.05-1.5-0.07-2.12C96.25,101.6,85.07,101.43,79.36,93.64z"/>
			<path class="st3" d="M96.74,55.84c-4.98,1.4-6.59,6.55-7.68,10.81c1.69-0.16,3.39-0.17,5.08-0.04c0.43-0.35,0.94-0.62,1.55-0.77
				c0.85-0.2,1.72-0.23,2.59-0.24c1.18-0.02,2.35-0.04,3.53-0.06l3.41-0.06c1.11-0.02,2.27-0.12,3.38-0.04
				c0.67,0.05,1.15,0.32,1.47,0.72c2.03-1.1,4.49-1.23,6.63-0.35c-0.12-0.26-0.05-0.7,0.24-0.81c0.09-0.03,0.19-0.04,0.28-0.06
				c-0.86-3.35-1.8-6.36-2.69-8.69C109.12,55.93,102,54.36,96.74,55.84z"/>
			<path class="st3" d="M108.12,67.18c-0.57-0.27-1.46-0.12-2.07-0.11c-1.62,0.03-3.25,0.05-4.87,0.08
				c-1.42,0.02-2.95-0.11-4.35,0.2c-0.6,0.14-1.22,0.39-1.59,0.91c-0.13,0.18-0.2,0.39-0.26,0.6c0.65,2.5,2.75,4.52,5.26,5.14
				c2.39,0.58,4.97-0.31,6.66-2.06c0.82-0.85,1.51-1.96,1.74-3.14C108.75,68.22,108.73,67.47,108.12,67.18z"/>
			<path class="st3" d="M104.96,100.25c6.76-1.05,12.01-3.01,12.01-3.01c4.49-1.99,4.06-13.17,2.09-23.98
				c0-0.01-0.01-0.01-0.01-0.01c-0.57-2.1-1.05-2.82-1.62-4.92c-0.09-0.14-0.3-0.25-0.43-0.32c-1.98-1.02-4.38-1.05-6.38-0.07
				c0,0.25-0.02,0.5-0.06,0.75c-0.29,1.62-1.23,3.17-2.39,4.33c-2.35,2.35-5.81,3.41-9.02,2.36c-0.72-0.24-1.41-0.57-2.04-0.98
				c-0.1,0.06-0.22,0.08-0.35-0.02c-1.67-1.13-3.46-2.47-3.76-4.61c-0.05-0.39-0.04-0.76,0.02-1.12c-0.02-0.07-0.04-0.14-0.06-0.21
				c-1.45-0.1-2.9-0.1-4.34,0.02c-0.47,1.87-0.92,3.38-1.64,4.02c-2.47,2.18-1.94-0.92-6.05-1.88c-4.11-0.96-3.23,5.36-1.34,9.21
				c1.86,3.78-2.09,10-2.22,10.21c0.44,1.09,0.96,2.08,1.55,2.98c0.14,0.22,0.3,0.43,0.45,0.64
				C85.07,101.43,96.25,101.6,104.96,100.25z M102.81,86.03l14.59,3.6c0,0-1.13,4.43-8.92,2.33
				C102.1,90.25,102.81,86.03,102.81,86.03z"/>
			<path class="st5" d="M79.58,79.81c-1.89-3.85-2.77-10.17,1.34-9.21c4.11,0.96,3.58,4.06,6.05,1.88c0.73-0.64,1.17-2.15,1.64-4.02
				c-3.01,0.23-5.97,0.92-8.79,2.06c-0.49,0.2,0.33-1.63,0.77-1.81c2.72-1.09,5.57-1.78,8.47-2.05c1.08-4.26,2.7-9.41,7.68-10.81
				c5.26-1.48,12.38,0.09,17.79,0.41c2.92,0.18,5.34-0.01,6.7-1.22c3.9-3.47,10.82-27.5-23.78-23.46
				c-26.25,3.07-34.94,8.17-38.42,13.5c-0.19-2.38,1.61-3.85,1.61-3.85c-3.58,1.68-3.97,5.78-3.87,8.03
				c-1.67,0.37-2.77,1.41-2.77,1.41c1.59-0.22,2.35-0.08,2.73,0.21c-0.12,0.5-0.24,1-0.36,1.49C55,57.92,64.65,80.83,71,85.43
				c6.35,4.61,6.35,4.61,6.35,4.61s0.01-0.02,0.01-0.02C77.5,89.81,81.44,83.59,79.58,79.81z"/>
			<path class="st2" d="M30,157c16.25,16.25,38.7,26.3,63.5,26.3c2.56,0,5.1-0.11,7.61-0.32c-5.25-13.4-44.58-53.97-44.58-53.97
				s-6.06,3.44-13.28,10.68C38.9,144.05,34.13,149.79,30,157z"/>
			<path class="st6" d="M99.35,141.77c0,0-2.74-10.02-2.6-16.38c0,0-0.06-0.01-0.17-0.02c-1.81-0.23-18.64-2.67-22.34-13.5
				c0,0,0,0-0.01,0c-0.16,0.08-4.41,2.29-12.54,13.09c0,0,0.06,0.07,0.15,0.18C63.45,127.07,78.35,144.15,99.35,141.77z"/>
			<path class="st6" d="M97.32,125.2c-0.19,0.06-0.38,0.13-0.57,0.19c0,0,11.88,3.1,14.73,11.64c0,0,1.07-3.13,1.2-6.46
				c0.03-0.7,0.01-1.41-0.07-2.1c-0.12-1.05-0.36-2.07-0.83-2.94c-2.22-4.15-7.04-8.36-7.04-8.36S106.29,122.2,97.32,125.2z"/>
			<path class="st5" d="M109.97,66.22c0.04-0.02,0.07-0.03,0.11-0.05c-0.32-0.4-0.8-0.67-1.47-0.72c-1.11-0.09-2.26,0.02-3.38,0.04
				l-3.41,0.06c-1.18,0.02-2.35,0.04-3.53,0.06c-0.87,0.01-1.74,0.04-2.59,0.24c-0.61,0.15-1.13,0.42-1.55,0.77
				c0.13,0.01,0.26,0.01,0.39,0.02c0.5,0.04-0.48,1.88-0.97,1.84c-0.21-0.02-0.42-0.02-0.62-0.04c0.02,0.07,0.04,0.14,0.06,0.21
				c-0.05,0.35-0.07,0.72-0.02,1.12c0.3,2.15,2.09,3.48,3.76,4.61c0.14,0.09,0.25,0.08,0.35,0.02c0.64,0.41,1.32,0.74,2.04,0.98
				c3.21,1.05,6.67-0.01,9.02-2.36c1.15-1.15,2.09-2.7,2.39-4.33c0.05-0.25,0.06-0.5,0.06-0.75c-0.12,0.06-0.24,0.1-0.35,0.17
				C109.76,68.39,109.56,66.45,109.97,66.22z M108.64,68.8c-0.22,1.18-0.92,2.28-1.74,3.14c-1.69,1.75-4.27,2.65-6.66,2.06
				c-2.51-0.61-4.61-2.63-5.26-5.14c0.05-0.21,0.13-0.41,0.26-0.6c0.37-0.52,0.99-0.77,1.59-0.91c1.39-0.31,2.93-0.18,4.35-0.2
				c1.62-0.03,3.25-0.05,4.87-0.08c0.61-0.01,1.5-0.17,2.07,0.11C108.73,67.47,108.75,68.22,108.64,68.8z"/>
			<path class="st5" d="M116.71,65.82c-2.13-0.88-4.59-0.75-6.63,0.35c-0.04,0.02-0.07,0.03-0.11,0.05
				c-0.41,0.23-0.21,2.17,0.29,1.89c0.11-0.06,0.24-0.11,0.35-0.17c2-0.97,4.4-0.95,6.38,0.07c0.13,0.07,0.34,0.18,0.43,0.32
				c0.57,2.1,1.05,2.82,1.62,4.92c0,0.01,0.01,0.01,0.01,0.01c0.1,0.34,0.47,0.29,0.64,0.04c1.11-1.72,2.13-4.02,1.29-6.07
				c-0.59-1.45-2.15-2.69-3.76-2.29c-0.09,0.02-0.19,0.03-0.28,0.06C116.65,65.11,116.59,65.56,116.71,65.82z M120.06,68.06
				c0.41,1.09-0.06,2.28-0.63,3.27c-0.43-1.58-0.85-3.16-1.28-4.74C118.99,66.61,119.76,67.27,120.06,68.06z"/>
			<path class="st5" d="M94.54,66.64c-0.13-0.01-0.26-0.01-0.39-0.02c-1.7-0.13-3.4-0.12-5.08,0.04c-2.9,0.27-5.76,0.96-8.47,2.05
				c-0.44,0.18-1.26,2.01-0.77,1.81c2.82-1.14,5.78-1.82,8.79-2.06c1.44-0.11,2.89-0.12,4.34-0.02c0.21,0.01,0.42,0.02,0.62,0.04
				C94.07,68.52,95.04,66.68,94.54,66.64z"/>
			<path class="st1" d="M108.48,91.97c7.78,2.1,8.92-2.33,8.92-2.33l-14.59-3.6C102.81,86.03,102.1,90.25,108.48,91.97z"/>
		</g>
	</g>
</g>
</svg>
