<?xml version="1.0" encoding="utf-8"?>
<!-- Generator: Adobe Illustrator 27.0.1, SVG Export Plug-In . SVG Version: 6.00 Build 0)  -->
<svg version="1.1" id="Layer_1" xmlns="http://www.w3.org/2000/svg" xmlns:xlink="http://www.w3.org/1999/xlink" x="0px" y="0px"
	 viewBox="0 0 187 187" style="enable-background:new 0 0 187 187;" xml:space="preserve">
<style type="text/css">
	.st0{fill:#FFFFFF;}
	.st1{clip-path:url(#SVGID_00000115486724468371227830000003289148882482671504_);}
	.st2{fill:none;}
	.st3{fill:#3D2514;}
	.st4{fill:#AA7D4D;}
	.st5{fill:#764D26;}
	.st6{fill:#F5953A;}
	.st7{fill:#F17E18;}
</style>
<g>
	<g>
		<circle id="SVGID_1_" class="st0" cx="93.5" cy="93.64" r="89.8"/>
	</g>
	<g>
		<defs>
			<circle id="SVGID_00000140013548177465155850000016749981297132272771_" cx="93.5" cy="93.64" r="89.8"/>
		</defs>
		<clipPath id="SVGID_00000127722153183756241250000012114198076697924012_">
			<use xlink:href="#SVGID_00000140013548177465155850000016749981297132272771_"  style="overflow:visible;"/>
		</clipPath>
		<g style="clip-path:url(#SVGID_00000127722153183756241250000012114198076697924012_);">
			<path class="st2" d="M119.22,99.22c-0.1,0.75-1.07,7.88-3.54,14.54l0.99,0.43C117.7,110.76,118.65,105.97,119.22,99.22z"/>
			<path class="st3" d="M109.48,111.53c0,0.11,0,0.22,0.01,0.33C109.49,111.75,109.48,111.64,109.48,111.53z"/>
			<path class="st3" d="M83.32,111.99c0.13-0.05,0.26-0.1,0.4-0.15c0.06,0.07,0.13,0.14,0.19,0.21c1.51-2.24,1.98-7.87,1.94-21.17
				h0.01c-1.13-2-1.8-4.35-1.8-7.12c0-2.19-0.06-4.29-0.12-6.3c-6.85,0.4-9.92-1.49-9.92-1.49s9.73-7.73,11.75-21.22
				c0,0,20.6-14.08,27.13-4.34c1.42-1.22,3.64-2.2,6.51-0.56c-0.59-0.6-1.2-1.13-1.8-1.6c-2-4.89-4.29-8.41-6.63-9.74
				c-4.26-2.42-9.38-2.69-12.95-2.48c0.92-0.95,2.73-1.3,2.73-1.3c-2.22-0.33-7.16,1.87-7.16,1.87
				C62.75,24.72,57.91,70.13,58.56,80.67c0.64,10.55,0.56,22.97-15.49,31.28C26,120.8,31.14,143.3,39.02,161.47
				c1.04-12.87,3.12-24.36,5.89-30.54C51.95,115.26,79.7,112.31,83.32,111.99z"/>
			<path class="st3" d="M123.83,76.6c-1.16,11.2-4.39,25.06-9.56,25.47c0,0-1.84,0.03-4.6-0.21c-0.1,2.33-0.19,5.07-0.19,7.74
				c0,0.5,0,1,0.01,1.49l6.2,2.68c2.47-6.66,3.44-13.79,3.54-14.54c-0.56,6.75-1.52,11.54-2.55,14.97l1.46,0.63
				c5.79-8.85,7.06-23.91,5.76-38.38C123.85,76.54,123.83,76.6,123.83,76.6L123.83,76.6z"/>
			<path class="st4" d="M100.02,117.88c6.85-0.15,9.42-2.87,9.47-6.02c0-0.11,0-0.22-0.01-0.33c-0.01-0.15-0.01-0.3-0.03-0.46
				l0.02,0.01c0-0.49-0.01-0.99-0.01-1.49c-10.69-0.3-17.16-8.52-20.6-14.97c-1.19-1.08-2.21-2.32-3.01-3.74h-0.01
				c0.05,13.29-0.43,18.93-1.94,21.17C86.51,115.01,93.73,118.02,100.02,117.88z"/>
			<path class="st5" d="M109.47,109.59c0.01-2.67,0.09-5.41,0.19-7.74c-5.62-0.48-15.08-2.06-20.79-7.23
				C92.31,101.07,98.78,109.29,109.47,109.59z"/>
			<path class="st0" d="M109.45,111.07c0.02,0.15,0.02,0.3,0.03,0.46c0,0.11,0.01,0.22,0.01,0.33c-0.05,3.15-2.62,5.87-9.47,6.02
				c-6.29,0.14-13.5-2.87-16.1-5.83c-0.06-0.07-0.14-0.14-0.19-0.21c-0.13,0.05-0.27,0.1-0.4,0.15c0.25-0.02,0.39-0.03,0.4-0.03l0,0
				l0,0l0,0l0,0c0.06,0.13,19.06,42.79,20.08,53.56c0.2,2.08-0.49,8.52-1.72,17.52c9.01-0.85,17.64-3.04,25.68-6.36
				c-0.13-7.27-0.25-12.26-0.33-13.72C126.92,154.21,109.45,111.07,109.45,111.07z"/>
			<path class="st4" d="M88.87,94.62c5.71,5.17,15.17,6.75,20.79,7.23c2.76,0.24,4.6,0.21,4.6,0.21c5.17-0.4,8.4-14.26,9.56-25.47
				c-2.87,0.33-3.55-9.52-5.05-14.31c-1.14-3.61-4.92-7.3-6.72-8.89c-2.63,5.93-9.87,20.14-19.86,22.71
				c-3.2,0.82-5.95,1.22-8.26,1.36c0.07,2.01,0.12,4.11,0.12,6.3c0,2.78,0.68,5.13,1.8,7.12C86.66,92.3,87.68,93.54,88.87,94.62z
				 M118.09,88.53c0,0-0.05,5.84-6.68,6.38c-8.09,0.66-8.42-5.6-8.42-5.6L118.09,88.53z"/>
			<path class="st3" d="M112.06,53.39c-0.58-0.52-0.96-0.82-0.96-0.82s0.63-1.16,1.79-2.17c-6.53-9.74-27.13,4.34-27.13,4.34
				c-2.02,13.49-11.75,21.22-11.75,21.22s3.08,1.9,9.92,1.49c2.31-0.14,5.06-0.53,8.26-1.36C102.18,73.54,109.43,59.33,112.06,53.39
				z"/>
			<path class="st3" d="M112.89,50.41c-1.16,1-1.79,2.17-1.79,2.17s0.38,0.3,0.96,0.82c1.79,1.59,5.58,5.28,6.72,8.89
				c1.5,4.79,2.18,14.64,5.05,14.31l0,0c0,0,0.02-0.06,0.06-0.15c0.61-1.56,5.76-15.33-0.83-23.32c-1.31-1.59-2.53-2.63-3.66-3.27
				C116.53,48.21,114.31,49.19,112.89,50.41z"/>
			<path class="st6" d="M144.28,167.71c2.28-1.57,4.49-3.23,6.61-5c-2.07-13.42-4.15-24.83-5.9-28.57
				c-4.87-10.4-21.67-17.07-21.67-17.07S137.92,142.71,144.28,167.71z"/>
			<path class="st6" d="M115.68,113.76l-6.2-2.68l-0.02-0.01c0,0,17.46,43.14,17.98,51.87c0.09,1.46,0.2,6.45,0.33,13.72
				c5.84-2.41,11.38-5.43,16.52-8.96c-6.36-24.99-20.96-50.64-20.96-50.64l-5.19-2.24l-1.46-0.63L115.68,113.76z"/>
			<path class="st6" d="M103.8,165.51c-1.03-10.77-20.03-53.42-20.08-53.56c-0.02,0.08-6.19,27.45-11.46,50.23
				c3.96,6.68,7.48,13.97,8.77,20.39c4.07,0.57,8.23,0.87,12.46,0.87c2.9,0,5.76-0.14,8.58-0.41
				C103.32,174.03,104,167.6,103.8,165.51z"/>
			<path class="st6" d="M83.72,111.95L83.72,111.95L83.72,111.95z"/>
			<path class="st7" d="M72.26,162.18c-1.5,6.49-2.93,12.61-4.12,17.62c4.18,1.23,8.49,2.16,12.89,2.77
				C79.74,176.16,76.22,168.86,72.26,162.18z"/>
			<path class="st6" d="M68.14,179.8c1.19-5.01,2.62-11.12,4.12-17.62c5.27-22.78,11.44-50.15,11.46-50.23l0,0l0,0l0,0
				c0,0-0.14,0.01-0.4,0.03c-3.63,0.32-31.37,3.28-38.41,18.95c-2.78,6.18-4.85,17.68-5.89,30.54c-0.09,1.11-0.17,2.23-0.25,3.37
				C47.45,171.51,57.37,176.64,68.14,179.8z"/>
			<path class="st0" d="M111.41,94.91c6.63-0.54,6.68-6.38,6.68-6.38l-15.1,0.78C102.99,89.32,103.32,95.57,111.41,94.91z"/>
		</g>
	</g>
</g>
</svg>
