<?xml version="1.0" encoding="utf-8"?>
<!-- Generator: Adobe Illustrator 27.0.1, SVG Export Plug-In . SVG Version: 6.00 Build 0)  -->
<svg version="1.1" id="Layer_1" xmlns="http://www.w3.org/2000/svg" xmlns:xlink="http://www.w3.org/1999/xlink" x="0px" y="0px"
	 viewBox="0 0 610 301.23" style="enable-background:new 0 0 610 301.23;" xml:space="preserve">
<style type="text/css">
	.st0{fill:none;}
	.st1{fill:#E6ECFF;}
	.st2{fill:#ACC1FF;}
	.st3{fill:#223763;}
	.st4{fill:#F7CC7F;}
	.st5{fill:#CCA666;}
	.st6{fill:#FFFFFF;}
	.st7{fill:#FA963B;}
	.st8{fill:#CDDCFF;}
	.st9{fill:#233862;}
	.st10{fill:#3D2413;}
	.st11{fill:#A97C4C;}
	.st12{fill:#764C25;}
	.st13{fill:#284C97;}
	.st14{fill:#EE7D18;}
	.st15{fill:#AA443A;}
	.st16{fill:#FCB813;}
	.st17{fill:#FFB178;}
	.st18{fill:#EE9759;}
	.st19{fill:#2B3965;}
	.st20{fill:#F69826;}
</style>
<g>
	<g>
		<path class="st0" d="M147.54,92.21c-0.28-0.76-1.03-1.39-1.84-1.42c0.41,1.52,0.82,3.05,1.24,4.57
			C147.48,94.41,147.93,93.26,147.54,92.21z"/>
		<path class="st0" d="M468,112.51c0.57,6.84,1.54,11.71,2.58,15.18l1.01-0.43C469.09,120.51,468.1,113.27,468,112.51z"/>
		<path class="st1" d="M348.49,62.16h-14.9c5.07,2.51,8.54,7.56,8.54,13.23h20C362.13,75.39,359.97,62.16,348.49,62.16z"/>
		<path class="st2" d="M333.59,62.16c-2.15-1.07-4.59-1.69-7.17-1.69h-11.8c5.18,2.96,8.69,8.52,8.81,14.93h18.7c0,0,0-0.01,0-0.01
			C342.13,69.72,338.65,64.67,333.59,62.16z"/>
		<path class="st1" d="M218.3,75.74c0-0.05,0.01-0.09,0.01-0.13h-0.01V75.74z"/>
		<path class="st1" d="M323.44,75.6L323.44,75.6c-0.01,0.05,0,0.09,0,0.13V75.6z"/>
		<path class="st1" d="M314.62,60.47c-2.51-1.43-5.41-2.26-8.5-2.26h-70.5c-9.52,0-17.25,7.77-17.32,17.39h105.14
			c0-0.07-0.01-0.13-0.01-0.2C323.31,68.99,319.79,63.43,314.62,60.47z M239.08,65.91h41.32v4.06h-41.32V65.91z"/>
		<path class="st1" d="M410.39,289.32L410.39,289.32l12.62-38.47c-1.1-0.79-1.75-1.33-1.75-1.33s2.24-5.75,5.21-13.02
			c0.82-2,1.98-8.79,3.33-17.81l-4.39,1.37l-4.7-0.16l3.76-2.84l5.84-1.82c0.84-5.7,1.73-12.09,2.66-18.61V77.79H218.3v111.17
			c0.7-0.74,1.42-1.47,2.11-2.21c0.98,0.22,1.85,0.5,2.65,0.8c0,0,0,0,0,0l0,0c0,0,1.54-6.59,2.69-9.42
			c1.15-2.83,1.27-5.3,1.96-5.09c0.69,0.21,0.84,0.86,0.72,1.87c-0.07,0.61-0.37,3.03-0.6,4.89c0.41-0.41,0.83-0.79,1.28-1.11
			c1.33-0.95,2.51-2.01,3.84-2.89v-9.44h56.24v56.24h-56.24v-27.91c-0.04,0.02-0.09,0.04-0.13,0.06c-0.01,0-0.03,0-0.04,0.01
			c-0.92,0.53-1.81,1.03-2.61,1.48c0.09,0.96,0.01,1.58,0.01,1.58s-4.81,10.12-11.88,22.54v80.88h179.13
			c0.02-0.09,0.05-0.17,0.07-0.26C398.81,296.79,406.61,291.62,410.39,289.32z M274.43,282.33h-10.21v-7.9h-6.5v7.9h-9.9v-31.58
			l2.32-3.63h22.44l1.86,3.63V282.33z M347.22,110.78h27.33v2.49h-27.33V110.78z M341.26,116.6h33.28v2.49h-33.28V116.6z
			 M304.07,93.93h21.56v21.56h-21.56V93.93z M304.07,132.68h70.47v1.41h-70.47V132.68z M304.07,139.28h70.47v1.41h-70.47V139.28z
			 M304.07,145.96h70.47v1.41h-70.47V145.96z M344.06,186.52v-2.49h30.48v2.49H344.06z M374.54,189.86v2.49h-37.12v-2.49H374.54z
			 M304.07,167.19h21.56v21.56h-21.56V167.19z M304.07,205.94h73.13v1.41h-73.13V205.94z M304.07,212.54h73.13v1.41h-73.13V212.54z
			 M304.07,219.21h73.13v1.41h-73.13V219.21z M304.07,237.88h21.56v21.56h-21.56V237.88z M257.24,136.24
			c0.02,0.01,0.04,0.02,0.05,0.03c0.41-0.57,0.72-1.59,0.83-3.38c-2.43-0.22-5.2-0.5-7.43-1.56c-1.56-0.74-1.45-0.59-1.24-2.09
			c0.19-1.4,0.88-2.67,0.96-4.17c0.11-2.11-0.16-4.24-0.04-6.35c0.31-5.39,2.99-11.55,8.99-12.04c0.75-0.06,5.3-0.82,8.59,0.09
			c10.05,2.79,7.4,17.59,8.98,24.99c0.03,0.13,0.06,0.27,0.01,0.39c-0.07,0.18-0.29,0.26-0.48,0.32c-2.76,0.8-5.76,1.04-8.79,1.02
			c0.02,0.55,0.04,1.11,0.08,1.67c0.04,0.73,0.1,1.44,0.18,2.07v0c0.01-0.05,0.02-0.08,0.02-0.08v0c0,0,6.95,1.18,10.04,4.06
			c0.65,0.6,1.13,1.29,1.34,2.05c0.44,1.6,1.66,6.07,3.02,11.09h-43.91c1.96-5.63,4.19-10.59,5.84-12.9
			C247.6,136.83,257.23,136.23,257.24,136.24L257.24,136.24C257.23,136.24,257.23,136.24,257.24,136.24z M378.58,291.32h-74.5v-1.41
			h74.5V291.32z M378.58,284.64h-74.5v-1.41h74.5V284.64z M378.58,278.04h-74.5v-1.41h74.5V278.04z M378.58,263.04h-35.19v-2.49
			h35.19V263.04z M378.58,257.21h-28.89v-2.49h28.89V257.21z"/>
		<path class="st1" d="M416.07,301.23h16.9v-31.95l-14.31,23.32C417.69,294.99,416.99,298.89,416.07,301.23z"/>
		<path class="st3" d="M258.05,128.45L258.05,128.45c-0.48-0.75-0.81-1.65-0.88-2.74c-0.05-0.85-0.13-1.67-0.2-2.46
			c0.9-0.11,1.96-0.33,3.19-0.73c3.12-1.02,6.68-4.62,8.84-7.08c0.55,0.47,1.06,0.97,1.4,1.45c1.1,1.52,2.19,5.46,1.97,7.23
			c-0.36,3.85-1.27,7.76-2.96,8c0,0-0.72,0.06-1.8,0.03c0.01,0.42,0.02,0.88,0.04,1.36c3.03,0.02,6.03-0.23,8.79-1.02
			c0.19-0.06,0.41-0.13,0.48-0.32c0.05-0.12,0.02-0.26-0.01-0.39c-1.57-7.4,1.08-22.19-8.98-24.99c-3.29-0.92-7.84-0.15-8.59-0.09
			c-6,0.48-8.68,6.64-8.99,12.04c-0.12,2.11,0.15,4.23,0.04,6.35c-0.07,1.49-0.77,2.76-0.96,4.17c-0.2,1.5-0.31,1.34,1.24,2.09
			c2.22,1.06,5,1.34,7.43,1.56C258.19,131.76,258.17,130.31,258.05,128.45z"/>
		<path class="st4" d="M264.95,139.12c2.34,0,2.87-1.49,2.97-1.86v-0.01c-0.08-0.64-0.14-1.35-0.18-2.07
			c-4.18,0.15-6.9-2.9-8.41-5.34c2.36,1.88,6.09,2.26,8.29,2.31c1.09,0.02,1.8-0.03,1.8-0.03c1.69-0.24,2.6-4.14,2.96-8
			c0.22-1.77-0.87-5.71-1.97-7.23c-0.35-0.48-0.86-0.98-1.4-1.45c-2.16,2.46-5.72,6.06-8.84,7.08c-1.23,0.4-2.29,0.62-3.19,0.73
			c0.08,0.78,0.15,1.6,0.2,2.46c0.07,1.08,0.39,1.98,0.88,2.74l0,0c0.12,1.86,0.14,3.3,0.07,4.44c-0.11,1.79-0.42,2.81-0.83,3.38
			c0,0,0,0,0,0C260.95,138.43,263.36,139.12,264.95,139.12z"/>
		<path class="st5" d="M259.33,129.84c1.5,2.43,4.23,5.48,8.41,5.34c-0.03-0.56-0.06-1.13-0.08-1.67c-0.02-0.47-0.03-0.93-0.04-1.36
			C265.41,132.1,261.69,131.72,259.33,129.84z"/>
		<path class="st2" d="M244.27,141.47c-1.66,2.31-3.88,7.28-5.84,12.9h43.91c-1.37-5.02-2.59-9.49-3.02-11.09
			c-0.21-0.76-0.69-1.45-1.34-2.05c-3.09-2.88-10.04-4.06-10.04-4.06v0c0,0,0,0.03-0.02,0.08v0v0.01c-0.1,0.37-0.63,1.86-2.97,1.86
			c-1.58,0-3.99-0.68-7.66-2.84c0,0,0,0,0,0c-0.02-0.01-0.04-0.02-0.05-0.03c0,0-0.01,0-0.01,0v0
			C257.23,136.23,247.6,136.83,244.27,141.47z"/>
		<rect x="304.07" y="132.68" class="st2" width="70.47" height="1.41"/>
		<rect x="304.07" y="139.28" class="st2" width="70.47" height="1.41"/>
		<rect x="304.07" y="145.96" class="st2" width="70.47" height="1.41"/>
		<path class="st6" d="M325.64,93.93h-21.56v21.56h21.56V93.93z M313.39,113.14l-7.21-9.93l5.83,3.11l9.96-9.06L313.39,113.14z"/>
		<rect x="347.22" y="110.78" class="st2" width="27.33" height="2.49"/>
		<rect x="341.26" y="116.6" class="st2" width="33.28" height="2.49"/>
		<rect x="304.07" y="276.63" class="st2" width="74.5" height="1.41"/>
		<rect x="304.07" y="283.23" class="st2" width="74.5" height="1.41"/>
		<rect x="304.07" y="289.91" class="st2" width="74.5" height="1.41"/>
		<rect x="304.07" y="237.88" class="st6" width="21.56" height="21.56"/>
		<rect x="349.68" y="254.73" class="st2" width="28.89" height="2.49"/>
		<rect x="343.39" y="260.55" class="st2" width="35.19" height="2.49"/>
		<path class="st2" d="M247.82,282.33h9.9v-7.9H253l4.56-7.22h6.97l3.84,7.22h-4.15v7.9h10.21v-31.58h-26.61V282.33z M266.29,253.68
			h4.58v4.58h-4.58V253.68z M266.29,260.11h4.58v4.58h-4.58V260.11z M258.86,253.68h4.58v4.58h-4.58V253.68z M258.86,260.11h4.58
			v4.58h-4.58V260.11z M251.38,253.68h4.58v4.58h-4.58V253.68z M251.38,260.11h4.58v4.58h-4.58V260.11z"/>
		<polygon class="st7" points="264.52,267.21 257.56,267.21 253,274.43 257.72,274.43 264.22,274.43 268.37,274.43 		"/>
		<polygon class="st7" points="250.14,247.11 247.82,250.74 274.43,250.74 272.57,247.11 		"/>
		<rect x="251.38" y="253.68" class="st6" width="4.58" height="4.58"/>
		<rect x="258.86" y="253.68" class="st6" width="4.58" height="4.58"/>
		<rect x="266.29" y="253.68" class="st6" width="4.58" height="4.58"/>
		<rect x="251.38" y="260.11" class="st6" width="4.58" height="4.58"/>
		<rect x="258.86" y="260.11" class="st6" width="4.58" height="4.58"/>
		<rect x="266.29" y="260.11" class="st6" width="4.58" height="4.58"/>
		<path class="st6" d="M244.18,168.62c0.48-0.2,0.99-0.39,1.52-0.36c0.52,0.03,1.06,0.35,1.2,0.85c0.09,0.35-0.02,0.73-0.15,1.07
			c-0.35,0.94-0.82,1.83-1.37,2.67c0.54-0.6,1.78-0.41,2.29,0.31c0.59,0.83,0.5,1.94,0.4,2.95c-0.02,0.17-0.04,0.35-0.06,0.52
			c-0.07,0.67-0.14,1.33-0.21,2c-0.8,7.52-8.07,13.3-14.83,16.05v27.91h56.24v-56.24h-56.24v9.44c0.47-0.31,0.96-0.6,1.48-0.86
			C237.9,173.23,240.46,170.18,244.18,168.62z M251.53,179.03c1.44-3.92,2.15-3.35,6.33-3.28c1.91,0.03,22.94,0.34,22.94,0.4
			c-0.27,1.68-0.56,3.36-0.86,5.03c2.63,0.05,4.47,0.09,4.47,0.1c-1.97,12.27-4.77,24.4-8.39,36.28
			c-10.71,0.03-22.13-0.13-31.08-6.02c1.17-0.38,2.21-1.02,3.11-1.85c-2.35-0.83-4.61-1.89-6.72-3.28c3.07-0.98,5.24-3.83,6.33-6.87
			c1.09-3.04,1.3-6.3,1.7-9.51C249.81,186.44,250.28,182.45,251.53,179.03z"/>
		<rect x="304.07" y="205.94" class="st2" width="73.13" height="1.41"/>
		<rect x="304.07" y="212.54" class="st2" width="73.13" height="1.41"/>
		<rect x="304.07" y="219.21" class="st2" width="73.13" height="1.41"/>
		<path class="st6" d="M325.64,167.19h-21.56v21.56h21.56V167.19z M314.17,185.91l-7.21-9.93l5.83,3.11l9.96-9.06L314.17,185.91z"/>
		<rect x="344.06" y="184.04" class="st2" width="30.48" height="2.49"/>
		<rect x="337.42" y="189.86" class="st2" width="37.12" height="2.49"/>
		<path class="st8" d="M248.06,209.69c-0.9,0.83-1.94,1.47-3.11,1.85c8.95,5.89,20.36,6.06,31.08,6.02
			c3.62-11.88,6.43-24.01,8.39-36.28c0-0.02-1.84-0.06-4.47-0.1c-1.89,10.55-4.41,20.99-7.54,31.25
			C264.23,212.45,255.64,212.35,248.06,209.69z"/>
		<path class="st2" d="M241.33,206.4c2.12,1.39,4.37,2.46,6.72,3.28c7.59,2.67,16.17,2.77,24.35,2.74
			c3.13-10.25,5.64-20.69,7.54-31.25c0.3-1.67,0.59-3.35,0.86-5.03c0-0.06-21.03-0.36-22.94-0.4c-4.18-0.07-4.89-0.64-6.33,3.28
			c-1.26,3.41-1.72,7.4-2.17,11c-0.4,3.2-0.6,6.47-1.7,9.51C246.57,202.57,244.41,205.42,241.33,206.4z M268.7,206.46
			c-1.11,0.41-2.22,0.82-3.33,1.23c-0.11,0.04-0.23-0.02-0.3-0.12c-0.31-0.47-0.62-0.93-0.94-1.4c-0.19,0.55-0.58,1.01-1.17,1.21
			c-0.8,0.27-1.6-0.1-2.06-0.74c-0.54,0.43-1.08,0.86-1.63,1.29c-0.31,0.24-0.47-0.26-0.44-0.48c0.09-0.6,0.2-1.32-0.22-1.82
			c-0.17-0.21-0.43-0.38-0.71-0.35c-0.2,0.02-0.57,0.21-0.48,0.46c0.14,0.4-0.37,0.9-0.55,0.4c-0.34-0.95,0.55-2,1.55-1.6
			c0.92,0.38,1.11,1.34,1.08,2.25c0.44-0.35,0.88-0.7,1.32-1.05c0.17-0.13,0.34,0.01,0.42,0.16c0.55,1.14,2.53,0.84,2.4-0.54
			c-0.03-0.27,0.27-0.76,0.53-0.38c0.41,0.61,0.82,1.22,1.23,1.83c1.05-0.39,2.11-0.78,3.16-1.16
			C268.98,205.51,269.07,206.33,268.7,206.46z"/>
		<path class="st6" d="M268.57,205.66c-1.05,0.39-2.11,0.78-3.16,1.16c-0.41-0.61-0.82-1.22-1.23-1.83
			c-0.26-0.38-0.55,0.11-0.53,0.38c0.13,1.37-1.85,1.68-2.4,0.54c-0.07-0.15-0.25-0.3-0.42-0.16c-0.44,0.35-0.88,0.7-1.32,1.05
			c0.03-0.91-0.15-1.87-1.08-2.25c-1-0.41-1.88,0.65-1.55,1.6c0.18,0.51,0.69,0,0.55-0.4c-0.09-0.26,0.28-0.44,0.48-0.46
			c0.28-0.03,0.54,0.14,0.71,0.35c0.42,0.51,0.3,1.22,0.22,1.82c-0.03,0.22,0.13,0.72,0.44,0.48c0.54-0.43,1.08-0.86,1.63-1.29
			c0.47,0.64,1.27,1.01,2.06,0.74c0.59-0.2,0.98-0.66,1.17-1.21c0.31,0.47,0.62,0.93,0.94,1.4c0.06,0.09,0.18,0.16,0.3,0.12
			c1.11-0.41,2.22-0.82,3.33-1.23C269.07,206.33,268.98,205.51,268.57,205.66z"/>
		<rect x="239.08" y="65.91" class="st2" width="41.32" height="4.06"/>
		<polygon class="st9" points="306.96,175.98 314.17,185.91 322.75,170.03 312.79,179.09 		"/>
		<polygon class="st9" points="306.18,103.2 313.39,113.14 321.97,97.26 312.01,106.32 		"/>
		<path class="st10" d="M545.24,125.43c-16.27-8.43-16.36-21.03-15.71-31.73C530.19,83,525.27,36.95,494,49c0,0-5.02-2.23-7.27-1.9
			c0,0,1.84,0.35,2.77,1.31c-3.63-0.21-8.81,0.05-13.14,2.51c-2.37,1.35-4.69,4.92-6.72,9.88c-0.61,0.47-1.22,1.02-1.83,1.62
			c-1.14,0.65-2.38,1.7-3.71,3.32c-6.69,8.11-1.47,22.08-0.84,23.66c-1.32,14.67-0.03,29.95,5.84,38.93l1.49-0.64
			c-1.05-3.48-2.01-8.34-2.58-15.18c0.1,0.76,1.09,8,3.59,14.75l6.29-2.72c0-0.5,0.01-1,0.01-1.51c-0.01-2.71-0.09-5.48-0.19-7.85
			c-2.8,0.24-4.67,0.21-4.67,0.21c-5.25-0.41-8.52-14.47-9.7-25.83c2.91,0.34,3.6-9.66,5.13-14.51c1.15-3.66,4.99-7.4,6.81-9.02
			c2.67,6.02,10.02,20.43,20.14,23.04c3.25,0.84,6.03,1.24,8.38,1.38c-0.07,2.04-0.12,4.17-0.12,6.39c0,2.82-0.69,5.2-1.83,7.23
			l0.01,0c-0.05,13.48,0.43,19.2,1.96,21.47c0.06-0.07,0.14-0.14,0.2-0.22c0.14,0.05,0.27,0.1,0.4,0.15
			c3.68,0.33,31.82,3.32,38.96,19.22c2.82,6.27,4.92,17.93,5.98,30.98C557.34,157.22,562.56,134.4,545.24,125.43z"/>
		<path class="st10" d="M477.87,125.33c0-0.11,0-0.22,0.01-0.34C477.87,125.11,477.87,125.22,477.87,125.33z"/>
		<path class="st11" d="M477.88,125c0,0.11,0,0.22-0.01,0.34c0.05,3.19,2.66,5.95,9.61,6.11c6.38,0.14,13.7-2.91,16.33-5.91
			c-1.53-2.27-2.01-7.99-1.96-21.47l-0.01,0c1.14-2.03,1.83-4.41,1.83-7.23c0-2.22,0.06-4.35,0.12-6.39
			c-2.35-0.14-5.13-0.54-8.38-1.38c-10.13-2.6-17.47-17.02-20.14-23.04c-1.82,1.62-5.66,5.36-6.81,9.02
			c-1.53,4.86-2.21,14.85-5.13,14.51c1.18,11.36,4.45,25.42,9.7,25.83c0,0,1.87,0.03,4.67-0.21c5.7-0.49,15.29-2.09,21.09-7.34
			c-3.49,6.54-10.05,14.88-20.89,15.19c0,0.51,0,1.01-0.01,1.51l0.02-0.01C477.89,124.69,477.88,124.84,477.88,125z M469.15,101.67
			l15.32,0.8c0,0-0.34,6.34-8.54,5.68C469.19,107.59,469.15,101.67,469.15,101.67z"/>
		<path class="st12" d="M498.78,107.85c-5.8,5.25-15.39,6.85-21.09,7.34c0.1,2.37,0.19,5.14,0.19,7.85
			C488.73,122.73,495.29,114.39,498.78,107.85z"/>
		<path class="st13" d="M458.15,275.27c-0.12,9.63-0.23,18.54-0.32,25.96h44.49c-1.09-6.26-2.4-13.77-3.8-21.96
			C481.74,281.04,467.34,278.1,458.15,275.27z"/>
		<path class="st6" d="M458.86,221.41c-0.24,17.08-0.5,36.6-0.71,53.86c9.2,2.82,23.59,5.77,40.37,4
			c-2.66-15.48-5.67-33.37-8.29-49.71c-8.89-1.82-18.77-4.43-29.52-8.13C460.06,221.43,459.45,221.43,458.86,221.41z"/>
		<path class="st6" d="M487.48,131.44c-6.95-0.15-9.56-2.91-9.61-6.11c0-0.11,0-0.22,0.01-0.34c0.01-0.15,0.01-0.31,0.03-0.46
			c0,0-17.71,43.76-18.24,52.62c-0.14,2.36-0.35,13.72-0.59,29.13l17.44-5.43c0,0,0.91,0,1.29,1.16c0.34,1.05-0.35,1.84-0.35,1.84
			l-17.74,5.52c0.63,0.36,0.99,0.59,0.99,0.59s12.45,0.65,26.69,1.48c-2.46-16.22-4.06-28.61-3.77-31.69
			c1.04-10.92,20.31-54.19,20.37-54.33c0,0,0,0,0,0s0,0,0,0l0,0l0,0c0,0,0.15,0.01,0.4,0.03c-0.14-0.05-0.27-0.1-0.4-0.15
			c-0.06,0.07-0.13,0.14-0.2,0.22C501.18,128.52,493.86,131.58,487.48,131.44z"/>
		<path class="st11" d="M423.01,250.86l-12.62,38.47l0,0c-3.78,2.3-11.58,7.47-12.89,11.65c-0.03,0.08-0.05,0.17-0.07,0.26h18.64
			c0.92-2.34,1.62-6.25,2.58-8.63l14.31-23.32l5.23-8.53c0.1-1.15,0.2-2.3,0.29-3.45C432.2,256.91,425.95,252.97,423.01,250.86z"/>
		<path class="st7" d="M431,215.02c-1.61-3.09,8.61-10.22,12.95-11.2c2.88-0.65,8.06,1.53,11.91,3.47l3.23-1
			c0.24-15.41,0.45-26.78,0.59-29.13c0.52-8.86,18.24-52.62,18.24-52.62l-0.02,0.01l-6.29,2.72l-1.01,0.43l-1.49,0.64l-5.26,2.27
			c0,0-17.05,6.77-21.99,17.32c-2.6,5.56-5.9,27.81-8.88,48.7c-0.93,6.52-1.83,12.9-2.66,18.61L431,215.02z"/>
		<path class="st7" d="M458.86,221.41c-9.23-0.25-10.89-2.66-13.09-4.01c-1.88-1.16-5.44-0.04-9.92-0.59l-6.05,1.88
			c-1.35,9.02-2.51,15.82-3.33,17.81c-2.98,7.27-5.21,13.02-5.21,13.02s0.65,0.54,1.75,1.33c2.94,2.12,9.2,6.05,15.49,6.44
			c-0.1,1.15-0.19,2.3-0.29,3.45c-1.29,14.77-2.92,29.4-4.24,40.48h23.87c0.09-7.42,0.2-16.33,0.32-25.96
			C458.36,258.01,458.62,238.49,458.86,221.41z"/>
		<path class="st14" d="M522.88,206.5c-0.81-2.57-3.84-15.4-7.25-30.12c-5.22,8.82-9.72,18.7-9.42,26.3c0.11,2.78,0.3,5.96,0.7,9.43
			C511.85,212.17,524.56,211.83,522.88,206.5z"/>
		<path class="st14" d="M512.57,235.33c5.56,13.86,15.98,28.1,35.67,37.85c0.1,0.05,0.2,0.1,0.3,0.14
			c-3.48-11.62-7.25-24.41-10.93-37.3C532.36,236.61,523.88,236.93,512.57,235.33z"/>
		<path class="st7" d="M504.41,125.46c-0.26-0.02-0.4-0.03-0.4-0.03l0,0l0,0c0,0,0,0,0,0s0,0,0,0c-0.06,0.14-19.33,43.4-20.37,54.33
			c-0.29,3.08,1.31,15.47,3.77,31.69c5.6,0.32,11.47,0.67,16.97,1.02c-4.42,3.47-1.07,14.79,0.6,19.57
			c-4.55-0.59-9.47-1.4-14.74-2.48c2.62,16.35,5.63,34.23,8.29,49.71c1.4,8.19,2.71,15.71,3.8,21.96h54.68
			c-2.41-7.82-5.32-17.39-8.48-27.91c-0.1-0.04-0.2-0.09-0.3-0.14c-19.68-9.75-30.11-23.98-35.67-37.85
			c11.31,1.6,19.79,1.27,25.03,0.69c4.01-0.45,6.12-1.05,6.12-1.05c6.14-10.53,7.43-36.97,5.63-59.32
			c-1.05-13.05-3.16-24.71-5.98-30.98C536.23,128.78,508.09,125.79,504.41,125.46z M506.21,202.68c-0.3-7.59,4.2-17.48,9.42-26.3
			c3.41,14.72,6.44,27.55,7.25,30.12c1.68,5.33-11.03,5.67-15.97,5.61C506.51,208.64,506.32,205.45,506.21,202.68z"/>
		<path class="st15" d="M459.72,209.38l17.74-5.52c0,0,0.69-0.79,0.35-1.84c-0.38-1.16-1.29-1.16-1.29-1.16l-17.44,5.43l-3.23,1
			C457.47,208.11,458.85,208.88,459.72,209.38z"/>
		<path class="st15" d="M432.44,216.06c-0.75-0.25-1.22-0.6-1.45-1.04l-0.69,0.21l-5.84,1.82l-3.76,2.84l4.7,0.16l4.39-1.37
			l6.05-1.88C434.76,216.67,433.63,216.45,432.44,216.06z"/>
		<path class="st11" d="M459.72,209.38c-0.87-0.5-2.25-1.28-3.86-2.09c-3.85-1.94-9.03-4.12-11.91-3.47
			c-4.34,0.98-14.57,8.12-12.95,11.2c0.23,0.44,0.69,0.79,1.45,1.04c1.18,0.39,2.32,0.61,3.4,0.75c4.49,0.55,8.04-0.57,9.92,0.59
			c2.2,1.35,3.86,3.76,13.09,4.01c0.59,0.02,1.2,0.02,1.85,0.02c10.75,3.7,20.63,6.3,29.52,8.13c5.27,1.08,10.19,1.89,14.74,2.48
			c-1.67-4.78-5.02-16.09-0.6-19.57c-5.5-0.35-11.37-0.7-16.97-1.02c-14.24-0.82-26.69-1.48-26.69-1.48S460.34,209.74,459.72,209.38
			z"/>
		<path class="st6" d="M484.46,102.47l-15.32-0.8c0,0,0.05,5.92,6.77,6.47C484.12,108.81,484.46,102.47,484.46,102.47z"/>
		<path class="st16" d="M230.17,196.22c-1.9,1.05-3.27,1.77-3.27,1.77l-4.77-8.01c0,0,0.33-1.01,0.93-2.43
			c-0.79-0.31-1.67-0.58-2.65-0.8c-0.7,0.74-1.41,1.47-2.11,2.21c-3.48,3.66-7.01,7.29-10.57,10.88
			c-5.98,6.01-10.73,14.23-18.59,18.07c-3.91,1.91-7.18,1.54-9.14-2.41c-3.66-7.36-7.45-14.89-10.39-22.61
			c-4.43-11.62-9.18-22.95-17.36-32.56c-3.34-3.92-7.28-7.63-11.9-9.75c0.42,3.84-1.09,8.27-1.09,8.27
			c-2.75-8.25-14.23-11.25-14.23-11.25c-0.14,6.15,2.51,15.82,2.51,15.82c-20.27,2.3-34.66-14.17-36.23-16.05
			c-2.61,1.37-5.35,2.98-8.21,4.89c-3.47,2.31-6.79,5.38-9.74,9.16c-7.36,7.38-15.97,18.85-20.31,34.87
			c-6.92,25.56-17.62,63.59-18.91,75.48c-0.46,4.29,1.11,16.12,3.31,29.47h26.19c0.2-7.44,0.25-14.46,0.02-19.95
			c-0.12-2.86,4.01-10.52,10.44-19.91c2.98,16.9,3.76,29.86,3.76,39.85h0.24c0.09-10.08-0.64-23.18-3.7-40.29
			c5.99-8.7,13.9-18.83,22.23-27.98c-0.15,18.15-1.88,45.93-9.85,68.26h87.66c-0.08-8.32-0.41-21.44-1.53-36.82
			c0.56,0.25,1.12,0.49,1.65,0.69c12.64,4.93,31.56-23.34,43.75-44.76c7.07-12.42,11.88-22.54,11.88-22.54
			S230.26,197.18,230.17,196.22z"/>
		<path class="st17" d="M226.9,198c0,0,1.37-0.72,3.27-1.77c0.8-0.44,1.69-0.94,2.61-1.48c0.01,0,0.02,0,0.04-0.01
			c0.04-0.02,0.09-0.04,0.13-0.06c6.77-2.75,14.03-8.53,14.83-16.05c0.07-0.67,0.14-1.33,0.21-2c0.02-0.17,0.04-0.35,0.06-0.52
			c0.11-1.01,0.19-2.12-0.4-2.95c-0.51-0.72-1.75-0.91-2.29-0.31c0.55-0.84,1.02-1.73,1.37-2.67c0.13-0.34,0.24-0.72,0.15-1.07
			c-0.13-0.51-0.68-0.82-1.2-0.85c-0.52-0.03-1.03,0.16-1.52,0.36c-3.72,1.55-6.27,4.6-9.74,6.32c-0.52,0.26-1.01,0.55-1.48,0.86
			c-1.33,0.88-2.51,1.94-3.84,2.89c-0.45,0.32-0.87,0.7-1.28,1.11c0.23-1.86,0.52-4.28,0.6-4.89c0.12-1.02-0.03-1.67-0.72-1.87
			c-0.69-0.21-0.81,2.26-1.96,5.09c-1.15,2.83-2.69,9.42-2.69,9.42l0,0c0,0,0,0,0,0c-0.6,1.43-0.93,2.43-0.93,2.43L226.9,198z"/>
		<path class="st16" d="M124.85,147.57c0.1,0.01,0.16,0.02,0.16,0.02c0.19-0.06,0.37-0.12,0.55-0.18
			C125.33,147.47,125.09,147.52,124.85,147.57z"/>
		<path class="st17" d="M133.02,133.55c0.13-3.8,0.07-6.58,0-8.2C133.09,127.68,133.12,130.63,133.02,133.55z"/>
		<path class="st17" d="M124.85,147.57c0.24-0.05,0.48-0.1,0.72-0.16c8.67-2.89,7.17-7.75,7.17-7.75c0.31-3.73,0.24-3.38,0.28-6.11
			c-15.62-2.72-24.93-16.61-24.93-16.61l0.14-0.02c5.51,7.53,16.32,7.69,24.72,6.39c6.53-1.01,11.6-2.9,11.6-2.9
			c4.34-1.92,3.93-12.72,2.02-23.16c0-0.01-0.01-0.01-0.01-0.01c-0.55-2.02-1.02-2.73-1.56-4.75c-0.09-0.14-0.29-0.24-0.42-0.31
			c-1.91-0.99-4.24-1.01-6.17-0.07c0,0.24-0.02,0.48-0.06,0.73c-0.28,1.57-1.19,3.06-2.31,4.18c-2.27,2.27-5.61,3.29-8.71,2.28
			c-0.7-0.23-1.36-0.56-1.97-0.95c-0.09,0.06-0.21,0.07-0.34-0.02c-1.61-1.1-3.34-2.38-3.63-4.46c-0.05-0.38-0.04-0.74,0.02-1.08
			c-0.02-0.07-0.04-0.14-0.05-0.2c-1.4-0.1-2.8-0.09-4.19,0.02c-0.46,1.8-0.89,3.26-1.59,3.88c-2.38,2.11-1.87-0.89-5.84-1.81
			c-3.97-0.93-3.12,5.18-1.29,8.9c1.8,3.65-2.01,9.66-2.14,9.87c0.43,1.05,0.93,2.01,1.5,2.88c-0.35,7.44-2.27,13.53-4.53,18.23
			c0,0,0.01,0,0.01,0C106.85,144.99,123.1,147.35,124.85,147.57z M130.87,109.58l14.1,3.48c0,0-1.1,4.28-8.61,2.25
			C130.19,113.65,130.87,109.58,130.87,109.58z"/>
		<path class="st18" d="M108.23,116.92l-0.14,0.02c0,0,9.32,13.89,24.93,16.61c0.1-2.92,0.06-5.87,0-8.2
			c-0.02-0.75-0.05-1.45-0.07-2.05C124.54,124.62,113.74,124.45,108.23,116.92z"/>
		<path class="st17" d="M128.4,97.95c2.31,0.56,4.8-0.3,6.43-1.99c0.79-0.83,1.46-1.89,1.68-3.03c0.11-0.56,0.09-1.28-0.5-1.56
			c-0.55-0.26-1.41-0.11-2-0.1c-1.57,0.03-3.14,0.05-4.71,0.08c-1.37,0.02-2.85-0.11-4.2,0.2c-0.58,0.13-1.18,0.37-1.54,0.88
			c-0.13,0.18-0.2,0.37-0.25,0.58C123.94,95.4,125.97,97.36,128.4,97.95z"/>
		<path class="st17" d="M125.02,80.41c-4.81,1.35-6.37,6.33-7.42,10.45c1.63-0.15,3.27-0.16,4.91-0.04c0.41-0.34,0.91-0.6,1.5-0.74
			c0.82-0.2,1.66-0.22,2.5-0.23c1.14-0.02,2.27-0.04,3.41-0.06l3.29-0.05c1.08-0.02,2.19-0.12,3.26-0.04
			c0.65,0.05,1.11,0.31,1.42,0.7c1.96-1.06,4.34-1.19,6.4-0.34c-0.11-0.25-0.05-0.68,0.23-0.78c0.09-0.03,0.18-0.04,0.27-0.06
			c-0.83-3.24-1.74-6.15-2.6-8.4C136.97,80.49,130.1,78.98,125.02,80.41z"/>
		<path class="st19" d="M108.44,103.56c-1.83-3.72-2.67-9.82,1.29-8.9c3.97,0.93,3.46,3.92,5.84,1.81c0.7-0.62,1.13-2.08,1.59-3.88
			c1.39-0.11,2.79-0.11,4.19-0.02c0.02,0.07,0.04,0.13,0.05,0.2c-0.05,0.34-0.07,0.7-0.02,1.08c0.29,2.07,2.02,3.36,3.63,4.46
			c0.13,0.09,0.25,0.08,0.34,0.02c0.61,0.39,1.27,0.72,1.97,0.95c3.1,1.01,6.44-0.01,8.71-2.28c1.12-1.12,2.02-2.61,2.31-4.18
			c0.04-0.24,0.06-0.49,0.06-0.73c1.93-0.94,4.25-0.92,6.17,0.07c0.13,0.07,0.33,0.17,0.42,0.31c0.55,2.02,1.02,2.73,1.56,4.75
			c0,0.01,0.01,0.01,0.01,0.01c0.1,0.33,0.45,0.28,0.62,0.04c1.08-1.66,2.05-3.89,1.25-5.86c-0.57-1.4-2.08-2.6-3.63-2.22
			c-0.09,0.02-0.18,0.03-0.27,0.06c-0.28,0.1-0.34,0.53-0.23,0.78c-2.06-0.85-4.44-0.72-6.4,0.34c-0.31-0.38-0.77-0.65-1.42-0.7
			c-1.07-0.08-2.19,0.02-3.26,0.04l-3.29,0.05c-1.14,0.02-2.27,0.04-3.41,0.06c-0.84,0.01-1.68,0.04-2.5,0.23
			c-0.59,0.14-1.09,0.4-1.5,0.74c-1.64-0.12-3.28-0.11-4.91,0.04c1.05-4.12,2.61-9.09,7.42-10.45c5.08-1.43,11.96,0.08,17.19,0.39
			c2.81,0.17,5.16,0,6.48-1.18c3.76-3.35,10.45-26.57-22.97-22.66C100.34,59.92,91.95,64.85,88.59,70
			c-0.19-2.29,1.56-3.72,1.56-3.72c-3.45,1.63-3.84,5.58-3.74,7.76c-1.62,0.36-2.68,1.36-2.68,1.36c1.53-0.22,2.27-0.08,2.63,0.2
			c-0.12,0.48-0.23,0.96-0.35,1.44c-1.33,5.37,8,27.51,14.13,31.96c6.13,4.45,6.13,4.45,6.13,4.45s0.01-0.02,0.01-0.02
			C106.43,113.23,110.24,107.22,108.44,103.56z M147.54,92.21c0.39,1.05-0.05,2.2-0.6,3.16c-0.41-1.52-0.82-3.05-1.24-4.57
			C146.51,90.82,147.25,91.45,147.54,92.21z M123.56,92.41c0.36-0.5,0.96-0.75,1.54-0.88c1.35-0.3,2.83-0.17,4.2-0.2
			c1.57-0.03,3.14-0.05,4.71-0.08c0.59-0.01,1.45-0.16,2,0.1c0.59,0.28,0.61,1,0.5,1.56c-0.22,1.14-0.88,2.2-1.68,3.03
			c-1.63,1.69-4.12,2.56-6.43,1.99c-2.42-0.59-4.46-2.54-5.09-4.96C123.36,92.78,123.43,92.59,123.56,92.41z"/>
		<path class="st20" d="M74.39,260.94c3.06,17.11,3.79,30.21,3.7,40.29h8.68c7.97-22.33,9.7-50.11,9.85-68.26
			C88.29,242.12,80.38,252.24,74.39,260.94z"/>
		<path class="st20" d="M127.53,163.42c0,0-2.65-9.68-2.51-15.82c0,0-0.06-0.01-0.16-0.02c-1.75-0.22-18.01-2.58-21.58-13.04
			c0,0-0.01,0-0.01,0c-0.08,0.04-4.19,2.11-12.11,12.65c0,0,0.05,0.07,0.15,0.18C92.87,149.25,107.26,165.72,127.53,163.42z"/>
		<path class="st20" d="M125.57,147.41c-0.18,0.06-0.36,0.12-0.55,0.18c0,0,11.48,2.99,14.23,11.25c0,0,1.51-4.43,1.09-8.27
			c-0.11-1.02-0.35-2-0.8-2.84c-2.14-4.01-6.8-8.08-6.8-8.08S134.24,144.52,125.57,147.41z"/>
		<path class="st6" d="M136.36,115.31c7.52,2.03,8.61-2.25,8.61-2.25l-14.1-3.48C130.87,109.58,130.19,113.65,136.36,115.31z"/>
	</g>
	<rect class="st0" width="610" height="301.23"/>
</g>
</svg>
