<?xml version="1.0" encoding="utf-8"?>
<!-- Generator: Adobe Illustrator 27.0.1, SVG Export Plug-In . SVG Version: 6.00 Build 0)  -->
<svg version="1.1" id="Layer_1" xmlns="http://www.w3.org/2000/svg" xmlns:xlink="http://www.w3.org/1999/xlink" x="0px" y="0px"
	 viewBox="0 0 647 282" style="enable-background:new 0 0 647 282;" xml:space="preserve">
<style type="text/css">
	.st0{fill:none;}
	.st1{fill:#355389;}
	.st2{fill:#F5E7D4;}
	.st3{fill:#C2B7AA;}
	.st4{fill:#949599;}
	.st5{fill:#AF93C2;}
	.st6{fill:#907B6E;}
	.st7{fill:#302E2C;}
	.st8{fill:#236753;}
	.st9{fill:#2F806B;}
	.st10{fill:#F5A390;}
	.st11{fill:#EF7357;}
	.st12{fill:#FFFFFF;}
	.st13{fill:#12375B;}
	.st14{fill:#F5DB97;}
	.st15{fill:#6994CA;}
	.st16{fill:#C2AD7A;}
	.st17{fill:#9BBAE0;}
	.st18{fill:#E8B09A;}
	.st19{fill:#F9DB00;}
	.st20{fill:#0070A5;}
	.st21{fill:#F17B1E;}
	.st22{fill:#F59A28;}
	.st23{fill:#FCD1A6;}
	.st24{fill:#060400;}
	.st25{fill:#0D2E36;}
	.st26{fill:#EF995A;}
</style>
<g>
	<g>
		<path class="st0" d="M564.01,88.55c-0.05,0.23-0.11,0.47-0.17,0.7c0.22-0.04,0.43-0.07,0.65-0.09
			C564.29,89,564.13,88.79,564.01,88.55z"/>
		<path class="st1" d="M230.39,255.28c0.15-9.14,0.3-18.28,0.15-27.43c-0.07-4.23-0.21-8.45-0.45-12.67
			c1.28-14.16,2.34-27.61,3.09-38.89c-10.03-9.87-14.1-25.65-10.21-39.72c2.52-9.12,7.99-17.82,16.1-22.66
			c4.79-2.86,9.81-4.52,15-5.68c1.23-0.46,2.4-0.86,3.44-1.24c-5.29-3.34-18.56-4.03-31.95-4.02c-0.38,0.93-0.74,1.88-1.08,2.83
			c0,0,0,0,0,0c-2.35,6.53-3.75,12.86-3.75,12.86s-0.28,13.66-9.68,11.55c-11.21-2.51-20.45-24.95-20.45-24.95l0.91-1.17
			c-3.95,0.23-6.36,0.41-6.36,0.41s-8.37,0.88-15.91,3.41c0.85,4.07,2.08,8.08,3.52,12.05c5.66,2.05,16.96,9.63,26.15,37.51
			c3.16,9.58,16.35,76.31,18.97,88.6c-0.34,0.1-0.7,0.21-1.05,0.31c3.39,19.21,5.57,34.68,5.57,34.68l1.25,0.95h6.33
			c0.01-0.3,0.03-0.59,0.04-0.89C230.39,272.52,230.25,263.89,230.39,255.28z"/>
		<path class="st2" d="M227.78,98.16c-0.02,0.05-0.05,0.09-0.07,0.14C227.73,98.25,227.76,98.21,227.78,98.16z"/>
		<path class="st2" d="M211.04,130.2c9.4,2.11,9.68-11.55,9.68-11.55s1.4-6.34,3.75-12.86c-5.98-4.13-12.65-11.24-15.76-15.51
			c-1.55-0.79-3.15-1.52-4.68-2.34l-3.13,4.03l-9.4,12.11l-0.91,1.17C190.59,105.25,199.84,127.69,211.04,130.2z"/>
		<path class="st3" d="M227.46,98.13c-2.31-0.32-4.53-1.27-6.37-2.7c-1.57-1.23-6.36-1.06-7.89-2.33c-1.36-1.13-2.9-2.01-4.48-2.81
			c3.11,4.26,9.78,11.37,15.76,15.51c0,0,0,0,0,0c0.34-0.94,0.7-1.89,1.08-2.83c0.66-1.63,1.38-3.22,2.15-4.66
			c0.02-0.05,0.05-0.09,0.07-0.14c0,0,0,0,0,0C227.68,98.15,227.57,98.14,227.46,98.13z"/>
		<path class="st2" d="M228.2,48.5c-4.81-0.65-9.2-3.03-13.27-5.67c-0.57-0.37-1.22-0.76-1.88-0.6c-0.96,0.24-1.27,1.46-1.25,2.45
			c0.07,5.33,4.68,11.38,1.75,16.29c-0.64-2.16-1.91-3.72-3.53-3.97c-2.64-0.42-5.18,2.78-5.67,7.13c-0.34,2.99,0.38,5.74,1.71,7.31
			c0.72,2.49,0.87,5.44,0.81,7.94c0.58,0.76,1.17,1.53,1.75,2.29c1.58,2.06,3.26,4.2,5.64,5.25c1.69,0.75,3.58,0.87,5.43,0.94
			c0.87,0.03,1.8,0.04,2.56-0.39c0.79-0.44,1.26-1.29,1.59-2.13c0.63-1.61,0.89-3.33,1.39-4.99c0.5-1.65,1.32-3.3,2.76-4.26
			c0.85-0.56,1.85-0.85,2.85-1.02c3.83-0.66,7.54,0.56,11.17,1.6c2.08,0.6,3.09,0.96,3.47,1.65c2.01-10.21,2.1-23.07-1.21-32.69
			c-1.14,0.8-2.11,1.45-2.57,1.55C237.25,48.15,232.7,49.11,228.2,48.5z"/>
		<path class="st2" d="M231.99,79.6c-0.71-0.03-1.51-0.02-2.02,0.47c-0.34,0.33-0.48,0.82-0.53,1.29c-0.19,1.68,0.65,3.44,2.08,4.35
			c1.69,1.07,4.03,2.33,6.09,2.34c2.7,0.01,3.82-1.98,6.09-2.82c0.28-0.85,0.55-1.74,0.8-2.66c-2.31-1.28-4.5-0.47-7-1.17
			C235.48,80.83,234.32,79.68,231.99,79.6z"/>
		<path class="st4" d="M208.72,90.28c1.58,0.81,3.11,1.68,4.48,2.81c1.53,1.27,6.32,1.1,7.89,2.33c1.84,1.44,4.06,2.38,6.37,2.7
			c0.11,0.01,0.21,0.02,0.32,0.03c3.96,0.44,7.92-1.31,10.89-3.83c1.19-1.01,3.07-2.47,3.93-3.74c0.33-0.49,1.65-5.58,1.16-5.41
			c-0.03,0.01-0.05,0.02-0.08,0.03c-2.27,0.84-3.4,2.83-6.09,2.82c-2.05-0.01-4.4-1.26-6.09-2.34c-1.43-0.91-2.27-2.66-2.08-4.35
			c0.05-0.47,0.19-0.96,0.53-1.29c0.51-0.5,1.31-0.5,2.02-0.47c2.34,0.09,3.49,1.23,5.5,1.79c2.5,0.7,4.69-0.11,7,1.17
			c0.13,0.07,0.25,0.14,0.38,0.22c0.64-2.46,1.03-3.66,0.61-4.44c-0.38-0.69-1.39-1.05-3.47-1.65c-3.63-1.04-7.34-2.26-11.17-1.6
			c-1,0.17-2,0.46-2.85,1.02c-1.44,0.96-2.26,2.61-2.76,4.26c-0.5,1.65-0.76,3.38-1.39,4.99c-0.33,0.84-0.81,1.68-1.59,2.13
			c-0.76,0.43-1.68,0.42-2.56,0.39c-1.85-0.07-3.74-0.19-5.43-0.94c-2.38-1.05-4.06-3.19-5.64-5.25c-0.58-0.76-1.17-1.53-1.75-2.29
			c0.06-2.51-0.09-5.45-0.81-7.94c-1.33-1.57-2.05-4.33-1.71-7.31c0.49-4.36,3.03-7.55,5.67-7.13c1.62,0.25,2.9,1.81,3.53,3.97
			c2.93-4.91-1.68-10.96-1.75-16.29c-0.01-0.99,0.29-2.21,1.25-2.45c0.66-0.16,1.31,0.23,1.88,0.6c4.07,2.64,8.46,5.02,13.27,5.67
			c4.5,0.6,9.05-0.35,13.49-1.3c0.46-0.1,1.43-0.75,2.57-1.55c2.37-1.67,5.47-4.02,6.19-3.51c-4.96-3.49-4.29-11-8.66-15.17
			c-2.32-2.21-5.28-4.3-8.41-5.84c-2.24-1.1-4.56-1.92-6.8-2.29c-0.7-0.12-1.43-0.21-2.12-0.01c-0.78,0.23-1.41,0.8-2.02,1.33
			c-5.9,5.04-10.15,3.58-16.79,4.28c-5.91,0.62-11.66,6.59-15.28,10.81c-10.86,12.62-6.26,29.5,3.22,39.03
			c1.95,1.97,3.4,3.88,4.47,5.69c0.41,1.7,1.11,3.36,2.12,4.75c1.36,4.49,0.51,7.53,0.51,7.53l0.21-0.27l3.13-4.03
			C205.57,88.76,207.17,89.49,208.72,90.28z"/>
		<path class="st5" d="M302.27,218.34c-0.77-0.12-1.52-0.26-2.26-0.41c-0.04-0.84-0.08-1.69-0.12-2.54
			c-12.36,0.04-22.65-0.08-23.63-0.62c-2.44-1.36-44-39.55-44-39.55l18.94-26.32l37.47,36.8c0.69,0.15,5,0.89,10.72,1.86
			c0.53-26.13,4.62-50.12,18.82-55.44c0.5-0.19,1.02-0.29,1.56-0.3c1.34-0.23,4.23-0.73,10.44-1.8c-0.5-13.98-2.57-24.18-7.45-24.88
			c-3.71-0.53-8.22-0.8-12.89-0.91c-4.99,7.72-8.88,21.04-8.88,21.04s-1.31,13.54-10.16,11.24c-10.55-2.75-17.7-25.22-17.7-25.22
			l5.3-6.29c-4.71,0.05-16.46,0.33-20.83,1.95c-0.03,0.01-0.06,0.02-0.09,0.03c-1.05,0.39-2.21,0.78-3.44,1.24
			c-5.19,1.16-10.21,2.82-15,5.68c-8.11,4.84-13.58,13.54-16.1,22.66c-3.89,14.08,0.18,29.85,10.21,39.72
			c-0.75,11.28-1.81,24.73-3.09,38.89c0.24,4.22,0.38,8.45,0.45,12.67c0.15,9.14,0,18.28-0.15,27.43c-0.14,8.6,0,17.23-0.38,25.83
			c-0.01,0.3-0.03,0.59-0.04,0.89h86.36C307.79,273.24,303.09,246.42,302.27,218.34z"/>
		<path class="st6" d="M290.84,136.51c8.85,2.31,10.16-11.24,10.16-11.24s3.89-13.32,8.88-21.04c0.15-0.23,0.3-0.46,0.45-0.68
			c3.8,0.41,7.29-0.25,9.84-2.29c6.67-5.36,12.54-28.84,9.52-45.32c-1.01-0.05-2.01-0.23-2.98-0.58c-0.38-0.14-0.76-0.3-1.07-0.59
			c-0.43-0.41-0.66-1.01-0.92-1.56c-2.03-4.23-6.61-6.17-10.83-6.47c-4.22-0.3-8.4,0.64-12.61,0.4c-0.24-0.01-0.48-0.03-0.72-0.06
			c-0.97,2.24-2.39,4.22-4.17,5.7c-2.21,1.83-4.98,3-6.5,5.57c-2.18,3.68-0.97,8.68-1.14,13.16c-0.07,1.73-0.35,3.43-0.49,5.15
			c-0.56,6.7,1.13,13.72,4.65,19.37c-1.1-1.9-2.35-3.71-3.71-5.4c0.21,0.29,0.41,0.58,0.63,0.86L278.43,105l-5.3,6.29
			C273.13,111.29,280.28,133.76,290.84,136.51z M304.58,85.53l16.22,3.1c0,0-1.55,6.11-8.72,4.95
			C303.34,92.18,304.58,85.53,304.58,85.53z"/>
		<path class="st7" d="M292.89,96.02c-3.53-5.66-5.21-12.67-4.65-19.37c0.14-1.72,0.43-3.42,0.49-5.15
			c0.17-4.48-1.03-9.48,1.14-13.16c1.52-2.57,4.29-3.74,6.5-5.57c1.78-1.48,3.2-3.46,4.17-5.7c0.24,0.02,0.48,0.04,0.72,0.06
			c4.22,0.25,8.4-0.7,12.61-0.4c4.22,0.3,8.8,2.24,10.83,6.47c0.27,0.55,0.49,1.15,0.92,1.56c0.31,0.29,0.69,0.45,1.07,0.59
			c0.97,0.35,1.98,0.54,2.98,0.58c3.39,0.16,6.79-1.32,9.11-4.01c0.85-0.98,1.57-2.14,1.88-3.48c0.52-2.23-0.17-4.63-0.9-6.85
			c-1.46-4.5-3.49-9.4-7.44-11.26c-1.52-0.71-3.18-0.89-4.81-0.95c-0.82-0.03-1.65-0.03-2.47-0.01c-0.42-0.65-0.93-1.24-1.47-1.76
			c-3.03-2.91-6.93-4.39-10.77-5.42c-6.99-1.87-14.63-2.42-20.8,1.28c-2.57,1.54-4.79,3.76-7.47,5.05
			c-1.97,0.94-4.12,1.35-6.16,2.12c-2.03,0.77-4.03,2.02-5.07,4.11c-0.78,1.58-0.96,3.55-2.05,4.88c-0.5,0.61-1.16,1.04-1.61,1.69
			c-1.48,2.13-0.19,5.24,0.12,7.98c0.28,2.51-0.33,5.05,0.07,7.55c0.23,1.44,0.79,2.79,1.26,4.17c0.78,2.27,1.32,4.62,1.61,7
			c0.2,1.62,0.34,3.39,1.34,4.62c0.88,1.08,2.24,1.51,3.17,2.53c1.5,1.66,1.46,4.38,2.68,6.3c0.68,1.08,1.71,1.81,2.67,2.57
			c2.41,1.9,4.63,4.11,6.6,6.57C290.54,92.32,291.79,94.12,292.89,96.02z"/>
		<path class="st8" d="M500.01,131.23c-5.31,2.49-10.01,8.14-14.05,15.1c0.88,1.15,1.75,2.35,2.59,3.6
			C492.21,139.97,496.49,133.01,500.01,131.23z"/>
		<path class="st8" d="M500.62,130.95c0.06-0.02,0.12-0.04,0.17-0.07C500.74,130.9,500.68,130.92,500.62,130.95z"/>
		<path class="st9" d="M561.73,137.78c0.15,1,4.74-1.09,9.06-2.64l3.66-3.62l0.02-0.26c-1.04-0.31-2.8-0.55-5.05-0.73
			C565.75,133.67,561.58,136.81,561.73,137.78z"/>
		<path class="st9" d="M560.55,198.99c0,0-6.87-30.46-11.05-38.82c-1.06,1.09-2.14,2.38-3.24,3.96
			c-6.24,8.91-35.17,57.51-48.51,58.84l-11.76,27.33c2.17,15.84,4.32,29.54,4.81,31.71h74.33c1.56-20.93,2.81-53.38,3.88-74.46
			c-0.5-2.5-0.98-4.9-1.43-7.17C564.62,200.31,562.14,199.9,560.55,198.99z"/>
		<path class="st9" d="M541.89,135.85c0.33,1.19,0.83,1.99,1.65,2.05c1.38,0.09,5.48-3.56,9.99-7.85
			c-3.76-0.01-7.68,0.01-11.48,0.05C541.89,132.26,541.82,134.24,541.89,135.85z"/>
		<path class="st9" d="M557.79,133.8c0.49,0.76,2.83-1.17,5.64-3.58c-1.09-0.04-2.23-0.06-3.41-0.09
			C558.46,131.87,557.43,133.23,557.79,133.8z"/>
		<path class="st9" d="M488.55,149.93c7.63,11.2,13.71,25.64,17.07,34.49c4.8-4.6,10.21-10.26,15.16-15.61
			c-12.56-2.83-0.75-31.32,0.69-38.39h0c-0.54,0-1.32-0.19-2.11-0.44c-3.8-0.68-12.01-1.66-18.56,0.91
			c-0.06,0.02-0.12,0.04-0.17,0.07c-0.09,0.04-0.19,0.07-0.28,0.11c-0.11,0.05-0.22,0.12-0.33,0.17
			C496.49,133.01,492.21,139.97,488.55,149.93z"/>
		<path class="st10" d="M543.93,115.67c-0.04,0.22-0.07,0.44-0.11,0.67C543.85,116.12,543.89,115.9,543.93,115.67z"/>
		<path class="st10" d="M544.08,114.76c-0.04,0.23-0.08,0.46-0.12,0.71C544,115.23,544.04,114.99,544.08,114.76z"/>
		<path class="st10" d="M543.77,116.65c-0.03,0.2-0.07,0.41-0.1,0.62C543.7,117.06,543.74,116.85,543.77,116.65z"/>
		<path class="st10" d="M543.61,117.62c-0.03,0.2-0.06,0.4-0.09,0.61C543.55,118.02,543.58,117.82,543.61,117.62z"/>
		<path class="st10" d="M544.37,113.09c-0.08,0.47-0.17,0.98-0.26,1.53C544.2,114.07,544.29,113.56,544.37,113.09z"/>
		<path class="st10" d="M520.78,168.81c8.34-9.02,15.39-17.17,16.06-17.86c1.36-1.41-0.5-28.37,2.48-27.55
			c2.28,0.62,1.52,8.61,2.57,12.46c-0.08-1.61,0-3.6,0.16-5.75c0.29-3.7,0.85-7.88,1.4-11.48c-0.01,0.09-0.03,0.18-0.04,0.28
			c-9.46,1.9-16.31-1.6-20.4-7.45c0-0.06,0-0.12,0.01-0.18c-0.27,6.94-0.75,15.21-1.55,19.14
			C520.03,137.49,508.22,165.98,520.78,168.81z"/>
		<path class="st11" d="M543.41,118.9c0.01-0.09,0.03-0.19,0.04-0.28c0.02-0.13,0.04-0.27,0.06-0.4c0.03-0.2,0.06-0.41,0.09-0.61
			c0.02-0.12,0.04-0.23,0.06-0.35c0.03-0.21,0.07-0.41,0.1-0.62c0.02-0.1,0.03-0.2,0.05-0.3c0.04-0.23,0.07-0.45,0.11-0.67
			c0.01-0.07,0.02-0.14,0.03-0.2c0.04-0.24,0.08-0.48,0.12-0.71c0.01-0.05,0.02-0.1,0.02-0.14c0.09-0.55,0.18-1.06,0.26-1.53
			c0.01-0.05,0.02-0.1,0.03-0.14c0.02-0.1,0.03-0.19,0.05-0.29c-0.7,0.26-1.42,0.5-2.16,0.72c-8.23,2.38-14.67,0.85-19.24-2.83
			c0,0.04,0,0.09-0.01,0.13c-0.01,0.2-0.02,0.4-0.02,0.6c0,0.06,0,0.12-0.01,0.18C527.11,117.3,533.96,120.8,543.41,118.9z"/>
		<path class="st10" d="M542.28,113.38c0.74-0.22,1.46-0.46,2.16-0.72c-0.02,0.09-0.03,0.19-0.05,0.29c0.02-0.1,0.03-0.19,0.05-0.29
			c5.61-2.09,9.87-5.58,13.02-9.73c0.17,0.18,0.36,0.34,0.57,0.48c2.54,1.71,6.64,0.05,9.17-3.71c2.53-3.75,2.52-8.18-0.02-9.89
			c-0.32-0.22-0.66-0.38-1.03-0.49c-0.35,0.21-0.75,0.29-1.22,0.11c-0.17-0.07-0.31-0.16-0.45-0.27c-0.21,0.02-0.43,0.04-0.65,0.09
			c0.06-0.23,0.11-0.47,0.17-0.7c-0.3-0.63-0.33-1.43-0.22-2.08c0.29-1.69,0.58-3.37,0.87-5.06c0.42-7.56-2.98-15.13-9.07-19.83
			c-0.18-0.14-0.31-0.31-0.43-0.49c-1.97-0.61-4.01-1-6.07-1.14c-0.27-0.02-0.54-0.02-0.81-0.03c-9.72,1.15-19.01,5.66-25.71,12.9
			c-1.82,1.97-3.52-1.01-2.78-2.8c-0.84-0.88-1.83-1.35-2.83-1.26c-2.5,0.25-4.19,3.93-3.77,8.22c0.27,2.71,1.31,5.01,2.67,6.28
			c-2.7,9.85-0.18,21.36,7.17,27.29c0,0.04,0,0.09-0.01,0.13c0-0.04,0-0.09,0.01-0.13C527.62,114.23,534.05,115.76,542.28,113.38z
			 M526.69,95.13l15.15,3.81c0,0-1.82,5.76-8.54,4.27C525.12,101.41,526.69,95.13,526.69,95.13z"/>
		<path class="st12" d="M533.3,103.22c6.71,1.48,8.54-4.27,8.54-4.27l-15.15-3.81C526.69,95.13,525.12,101.41,533.3,103.22z"/>
		<path class="st10" d="M567.58,200.37c0.45,2.27,0.93,4.67,1.43,7.17c4.34,21.81,10.15,51.46,14.35,74.46h27.61
			c-3.97-25.94-9.75-61.93-13.68-86.2C590.28,197.54,576.65,200.57,567.58,200.37z"/>
		<path class="st8" d="M574.84,131.13l-0.38,0.38l-3.66,3.62c3.81-1.37,7.4-2.33,7.58-0.41c0.2,2.22-14.39,7.62-12.98,9.73
			c1.42,2.11,13.22-0.01,13.23,2.57c0.02,2.57-10.16,0.24-15.26,4.22c-4.22,3.3-8.79,3.71-13.86,8.93
			c4.18,8.36,11.05,38.82,11.05,38.82c1.6,0.91,4.07,1.32,7.03,1.38c9.07,0.2,22.69-2.83,29.71-4.57c2.78-0.69,4.54-1.18,4.54-1.18
			S589.63,128.44,574.84,131.13z"/>
		<path class="st13" d="M522.58,72.81c6.7-7.23,15.99-11.74,25.71-12.9c0.27,0.01,0.54,0.02,0.81,0.03c2.06,0.14,4.1,0.53,6.07,1.14
			c0.11,0.19,0.25,0.36,0.43,0.49c6.09,4.7,9.49,12.27,9.07,19.83c-0.29,1.69-0.58,3.37-0.87,5.06c-0.11,0.65-0.08,1.45,0.22,2.08
			c0.12,0.24,0.28,0.45,0.48,0.62c0.13,0.11,0.27,0.2,0.45,0.27c0.46,0.18,0.87,0.11,1.22-0.11c0.5-0.31,0.87-0.91,1.03-1.48
			c0.6-2.02,0.95-4.1,1.07-6.19l3.89-22.56c1.88-3.37,3.08-7.07,3.59-10.95c0.19-1.48-1.18-3.01-2.61-2.15
			c-2,1.2-3.79,2.69-5.37,4.39c0.18-1.12,0.37-2.24,0.55-3.37c0.08-0.49,0.09-1.05-0.03-1.56c0.3-2.15,0.59-4.29,0.89-6.44
			c0.14-1,0.07-2.28-0.93-2.84c-0.88-0.49-1.87-0.01-2.26,0.9c-0.48,1.11-0.95,2.22-1.43,3.33c-0.09-0.12-0.19-0.22-0.31-0.31
			c-0.14-2.74-0.23-5.48-0.26-8.22c-0.01-0.88-0.32-1.98-1.23-2.34c-0.86-0.34-1.68,0.27-2.05,1.02c-0.12,0.24-0.23,0.48-0.35,0.71
			c-0.23,0.17-0.45,0.43-0.62,0.81c-1.53,3.24-3.06,6.49-4.59,9.73c-0.08-3.01-0.15-6.01-0.23-9.02c-0.02-0.95-0.38-2.19-1.46-2.39
			c-1.05-0.2-1.76,0.71-2.02,1.63c-0.4,1.47-0.8,2.95-1.2,4.42c-0.07-2.01-0.13-4.03-0.2-6.04c-0.03-0.95-0.37-2.18-1.46-2.39
			c-1.03-0.19-1.79,0.7-2.02,1.63c-0.91,3.86-1.83,7.72-2.74,11.57c-1.32-4.19-2.64-8.38-3.97-12.57c-0.6-1.89-2.99-1.3-3.28,0.45
			c-0.17,1.03-0.34,2.05-0.52,3.08c-0.28,0.26-0.49,0.64-0.58,1.14l-1.34,8.12c-1.1-3.67-2.21-7.34-3.31-11.01
			c-0.28-0.92-0.95-1.24-1.62-1.15c-0.5-0.13-1.04,0.02-1.49,0.5c-0.95,4.78-0.82,9.7-0.8,14.57c-1.47-3.03-3.44-5.81-5.81-8.22
			c-0.62-0.63-1.7-0.34-2.17,0.3c-0.15,0.2-0.27,0.43-0.37,0.68c-0.37,0.47-0.58,1.09-0.55,1.61c0.24,3.64,0.47,7.29,0.71,10.93
			c-1.15-1.17-2.3-2.33-3.45-3.5c-0.64-0.65-1.67-0.32-2.17,0.3c-0.64,0.78-0.72,1.95-0.38,2.87c2.03,5.55,4.07,11.11,6.1,16.66
			c0.06,0.18,0.16,0.34,0.27,0.48c0.32,1.02,0.63,2.05,0.95,3.07l-0.15,0.28c-0.03,0.06-0.05,0.12-0.08,0.18
			C519.06,71.8,520.75,74.78,522.58,72.81z"/>
		<path class="st14" d="M541.89,135.85c-1.05-3.85-0.29-11.84-2.57-12.46c-2.99-0.82-1.12,26.15-2.48,27.55
			c-0.66,0.69-7.71,8.84-16.06,17.86c-4.95,5.36-10.36,11.02-15.16,15.61c1.85,4.87,2.88,8.06,2.88,8.06s-12.5,4.96-23.79,7.57
			h13.65c4.42,0,7.36,4.57,5.56,8.61l-6.15,14.3c13.34-1.33,42.27-49.93,48.51-58.84c1.1-1.58,2.18-2.87,3.24-3.96
			c5.07-5.22,9.64-5.64,13.86-8.93c5.1-3.98,15.28-1.65,15.26-4.22c-0.02-2.58-11.81-0.46-13.23-2.57
			c-1.42-2.11,13.18-7.5,12.98-9.73c-0.17-1.92-3.77-0.96-7.58,0.41c-4.32,1.55-8.91,3.64-9.06,2.64c-0.15-0.96,4.01-4.11,7.69-7.25
			c3.48-2.97,6.52-5.94,5.09-7.08c-1.76-1.39-6.93,3.21-11.08,6.77c-2.81,2.41-5.16,4.34-5.64,3.58c-0.36-0.56,0.67-1.93,2.23-3.67
			c3.62-4.04,10.1-10.14,8.79-13.19c-0.61-1.41-8.42,6.6-15.28,13.12c-4.51,4.29-8.62,7.94-9.99,7.85
			C542.72,137.85,542.22,137.05,541.89,135.85z"/>
		<path class="st13" d="M445.82,90.16L445.82,90.16c-0.26-0.99-0.47-1.98-0.63-2.98c-0.23,0.07-0.46,0.13-0.71,0.15
			c-2.95,0.3-5.7-2.99-6.14-7.36c-0.44-4.36,1.59-8.14,4.54-8.44c1.22-0.12,2.4,0.37,3.4,1.29c0.86-0.03,1.77-0.21,2.7-0.52
			c-0.29,1.71-0.24,3.5,1.45,4.75c0.67,0.49,1.42,0.81,2.18,1.05c0.38,0.12,0.75,0.22,1.13,0.32c3.39,0.88,6.88,1.44,10.36,1.66
			c0.92,0.06,1.98,0.08,2.84-0.39c1.39-0.76,1.66-2.4,1.75-3.74c0.09-1.36,0.1-2.73,0.04-4.09c-0.02-0.52-0.07-1.02-0.32-1.5
			c-0.5-0.96-1.58-1.39-2.65-1.73c-3.02-0.94-5.77-1.46-8.32-1.6c7.29-6.16,14.13-15.25,15.38-16.95
			c13.65,2.17,18.15,11.38,18.74,21.69c-0.33-0.16-0.67-0.23-0.96-0.28c-4.51-0.81-9.62-1.73-14.52-0.41
			c-0.29,0.08-0.6,0.18-0.86,0.44c-0.32,0.33-0.42,0.78-0.47,1.05l-0.02,0.11c-0.58,2.77-1.18,5.64,0.01,7.52
			c0.49,0.78,1.24,1.33,2.27,1.66c0.3,0.09,0.61,0.17,0.96,0.23c2.09,0.36,4.42,0.5,7.33,0.46l0.33,0c6.71-0.04,6.85-0.5,7-0.99
			c0.54-1.77,0.73-3.67,0.58-5.5c0.83-0.13,1.6-0.01,2.22,0.41c2.03,1.35,1.78,5.27-0.54,8.75c-1.46,2.19-3.41,3.69-5.15,4.15
			c-1.06,4.64-3.33,9.06-6.39,12.59c0.91,0.97,1.94,1.79,3.23,2.26c4.02,1.46,7.61-1.51,9.77-4.64c2.43-3.53,4.22-7.54,5.39-11.66
			c2.27-8.03,1.93-17-1.89-24.52c-3.7-7.29-10.06-13.12-17.81-15.82c-1.43-4.02-5.76-6.62-9.87-5.87c-0.28-1.14-0.86-2.23-1.75-3.16
			c-2.1-2.19-5.15-2.39-7.87-1.3c-3.15,1.27-5.84,3.64-8.55,5.62c-2.86,2.09-5.67,4.28-8.59,6.29c-1.02,0.7-2.35,0.92-3.47,1.49
			c-1.13,0.57-2.18,1.25-3.14,2.07c-2.01,1.73-3.58,3.81-4.92,6.09c-2.62,4.44-4.25,9.57-5.46,14.56
			c-1.29,5.33-1.98,12.52,2.62,16.45c1.15,5.83,8.26,9.61,13.6,7.04c0.33-1.5,0.62-2.87,0.85-4.02L445.82,90.16z M491.71,81.12
			c-0.34,0.13-1.58,0.35-6.06,0.38l-0.34,0c-2.85,0.04-5.13-0.1-7.16-0.45c-1.26-0.21-2.1-0.69-2.58-1.46
			c-0.96-1.52-0.43-4.05,0.13-6.73l0.02-0.11c0.03-0.16,0.08-0.4,0.18-0.49c0.08-0.08,0.27-0.13,0.4-0.17
			c4.69-1.25,9.69-0.36,14.11,0.43c0.29,0.05,0.6,0.1,0.81,0.25c0.18,0.12,0.31,0.31,0.42,0.54c0.02,1.08,0.01,2.18-0.04,3.27
			c0.21-0.11,0.43-0.19,0.64-0.27C492.33,77.92,492.16,79.57,491.71,81.12z M465.47,69.57c0.86,0.29,1.67,0.59,1.98,1.19
			c0.16,0.31,0.19,0.68,0.21,1.09c0.06,1.33,0.05,2.67-0.03,3.99c-0.07,1.11-0.28,2.45-1.26,2.99c-0.61,0.34-1.44,0.31-2.24,0.26
			c-3.41-0.22-6.82-0.77-10.14-1.63c-1.02-0.26-2.08-0.57-2.91-1.18c-1.44-1.06-1.27-2.72-0.9-4.43c1.98-0.86,4.06-2.23,6.12-3.87
			C459.05,68,462.08,68.52,465.47,69.57z"/>
		<path class="st15" d="M469.37,200.05h15.33c11.29-2.61,23.79-7.57,23.79-7.57s-1.03-3.18-2.88-8.06
			c-3.36-8.85-9.44-23.29-17.07-34.49c-0.85-1.24-1.71-2.45-2.59-3.6c-0.94-1.23-1.91-2.4-2.89-3.49
			C484.73,154.23,480.55,178.27,469.37,200.05z"/>
		<path class="st14" d="M448.85,162.38c20.26,11.77,18.51-22.63,19.33-33.68c0.05-0.71,0.12-1.33,0.2-1.83
			c0.67-4.12,3.48-11.7,6.12-18.27c0,0,0,0,0,0c-8.11,5.61-20.97,9.12-29.11-15.16l0.08-0.61c-0.23,1.15-0.52,2.52-0.85,4.02
			c-1.18,5.37-2.96,12.43-5,17.14c-0.53,1.23-1.08,2.3-1.64,3.13C433.55,123.79,427.29,149.85,448.85,162.38z"/>
		<path class="st16" d="M453.39,103.04c-3.97-3.88-6.34-8.31-7.56-12.89l-0.01,0l-0.35,2.69l-0.08,0.61
			c8.15,24.27,21,20.76,29.11,15.16c0,0,0,0,0,0c0.03-0.07,0.07-0.15,0.1-0.22C468.19,110.99,460.6,110.08,453.39,103.04z"/>
		<path class="st14" d="M451.07,76.28c0.83,0.61,1.89,0.92,2.91,1.18c3.32,0.87,6.73,1.41,10.14,1.63c0.8,0.05,1.63,0.08,2.24-0.26
			c0.98-0.54,1.19-1.88,1.26-2.99c0.08-1.32,0.1-2.66,0.03-3.99c-0.02-0.42-0.05-0.79-0.21-1.09c-0.32-0.6-1.13-0.9-1.98-1.19
			c-3.39-1.05-6.43-1.57-9.18-1.59c-2.07,1.64-4.14,3.01-6.12,3.87C449.79,73.56,449.63,75.23,451.07,76.28z"/>
		<path class="st14" d="M491.62,73.32c-0.1-0.22-0.24-0.42-0.42-0.54c-0.21-0.15-0.52-0.2-0.81-0.25
			c-4.41-0.79-9.41-1.69-14.11-0.43c-0.13,0.03-0.32,0.09-0.4,0.17c-0.09,0.09-0.14,0.33-0.18,0.49l-0.02,0.11
			c-0.56,2.68-1.09,5.2-0.13,6.73c0.48,0.77,1.33,1.25,2.58,1.46c2.03,0.35,4.31,0.49,7.16,0.45l0.34,0
			c4.48-0.03,5.72-0.25,6.06-0.38c0.45-1.55,0.62-3.19,0.5-4.8c-0.21,0.08-0.42,0.17-0.64,0.27
			C491.63,75.5,491.64,74.4,491.62,73.32z"/>
		<path class="st14" d="M494.88,85.22c2.32-3.48,2.56-7.39,0.54-8.75c-0.62-0.42-1.39-0.54-2.22-0.41c0.15,1.84-0.04,3.73-0.58,5.5
			c-0.15,0.49-0.29,0.95-7,0.99l-0.33,0c-2.91,0.04-5.24-0.1-7.33-0.46c-0.34-0.06-0.66-0.14-0.96-0.23
			c-1.03-0.33-1.77-0.88-2.27-1.66c-1.19-1.88-0.59-4.75-0.01-7.52l0.02-0.11c0.06-0.27,0.15-0.72,0.47-1.05
			c0.26-0.26,0.57-0.36,0.86-0.44c4.9-1.31,10.01-0.39,14.52,0.41c0.29,0.05,0.63,0.12,0.96,0.28
			c-0.59-10.31-5.09-19.52-18.74-21.69c-1.26,1.7-8.1,10.79-15.38,16.95c2.55,0.14,5.3,0.66,8.32,1.6c1.07,0.34,2.15,0.78,2.65,1.73
			c0.25,0.48,0.3,0.99,0.32,1.5c0.06,1.36,0.05,2.74-0.04,4.09c-0.09,1.34-0.36,2.98-1.75,3.74c-0.86,0.48-1.92,0.45-2.84,0.39
			c-3.48-0.22-6.97-0.78-10.36-1.66c-0.37-0.1-0.75-0.2-1.13-0.32c-0.76-0.24-1.51-0.56-2.18-1.05c-1.7-1.24-1.74-3.04-1.45-4.75
			c-0.93,0.31-1.84,0.5-2.7,0.52c-1-0.92-2.18-1.42-3.4-1.29c-2.95,0.3-4.98,4.08-4.54,8.44c0.44,4.36,3.19,7.66,6.14,7.36
			c0.24-0.02,0.48-0.08,0.71-0.15c0.16,1,0.37,1.99,0.64,2.98c1.22,4.57,3.59,9.01,7.56,12.89c7.21,7.03,14.8,7.95,21.21,5.34
			c3.29-1.33,6.26-3.59,8.73-6.43c3.07-3.53,5.34-7.95,6.39-12.59C491.47,88.9,493.41,87.41,494.88,85.22z M465.71,98.46
			c-6.41-1.8-5.34-7.55-5.34-7.55l14.69,3.67C475.06,94.57,473.53,100.66,465.71,98.46z"/>
		<path class="st12" d="M475.06,94.57l-14.69-3.67c0,0-1.07,5.75,5.34,7.55C473.53,100.66,475.06,94.57,475.06,94.57z"/>
		<path class="st17" d="M419.16,131.54C419.17,131.54,419.17,131.54,419.16,131.54c1.5,0.06,5.6,1.43,11.59,12.75
			c6.58,12.43,15.76,46.44,18.21,55.75h20.4c11.19-21.78,15.36-45.81,13.71-57.21c-0.36-2.5-1-4.4-1.91-5.52
			c-3.46-4.27-9-7.05-12.98-8.61c-0.82,11.05,0.93,45.44-19.33,33.68c-21.57-12.53-15.3-38.59-10.86-45.24
			c0.56-0.84,1.11-1.91,1.64-3.13c-9.44-5.08-18.6-9.72-21.91-10.4l-0.1,0.23l-0.15-0.5c-6.47-5.13-22.34,9.02-34.87,22.25
			C393.87,126.44,410.48,128.77,419.16,131.54z"/>
		<path class="st18" d="M216.81,246.37c-6.41,1.94-14.17,5.33-20.95,7.62c1.5,12.48,2.73,22.97,3.32,28.01h24.46l-1.25-0.95
			C222.39,281.05,220.2,265.58,216.81,246.37z"/>
		<path class="st19" d="M195.86,253.99c6.78-2.29,14.55-5.69,20.95-7.62c0.35-0.11,0.71-0.21,1.05-0.31
			c-2.62-12.29-15.81-79.03-18.97-88.6c-9.19-27.89-20.5-35.46-26.15-37.51c-0.31-0.11-0.61-0.21-0.88-0.29
			c0.13,0.48,0.25,0.97,0.39,1.45c1.72,5.97,4.8,11.11,7.67,16.55c0.87,1.65,1.74,3.31,2.59,4.98c1.71,3.34,3.37,6.71,4.98,10.1
			c0.55,1.16,2.29,3.34,0.99,4.29c-1.3,0.95-3.75,1.17-5.27,1.78c-2.46,0.98-4.75,2.35-7.2,3.34c-1.71,0.69-3.32,0.99-5.13,1.19
			c-0.19,0.02-0.37,0.06-0.56,0.09c-1.8,4.11-6.17,10.06-4.06,11.62c2.94,2.16,34.62-6.92,34.19-4.28
			c-0.81,4.93-19.28,6.36-19.27,8.69c0.01,2.33,19.34-3.45,20.63,0.28c1.29,3.74-18.59,3.64-19.39,5.46
			c-0.8,1.82,18.42,2.86,16.44,6.69c-1.08,2.08-17.03-1.39-16.97,1.28c0.06,2.66,11.69,7.45,10.25,9.74
			c-1.44,2.29-9.12-5.52-15.88-4.88c-6.76,0.64-11.59-2.72-22.4,1.75c-6.18,2.56-26.96,12.77-45.63,19.51
			c-0.24-1.9-0.44-3.81-0.59-5.72c-0.5-6.32-0.52-12.68-0.08-19c18.31-3.72,43.88-11.4,45.4-11.76c1.34-0.32,7.92-11.69,12.75-18.37
			c-0.21,0.05-0.42,0.1-0.62,0.14c-4.07,0.82-8.18,1.39-12.31,1.79c-8.22,0.8-16.48,0.93-24.73,0.96
			c-7.13,0.03-14.27-0.01-21.39-0.36c-0.59-0.03-1.23-0.07-1.88-0.11c1.16-19.27,1.24-40.98-3.85-44.64
			c-5.11-3.67-12.66-2.92-19.26,0.49c-5.62,2.9-10.55,7.73-12.68,13.39c-3.89,10.32-3.98,49.17-3.9,61.48
			c-0.98,8.56,2.82,16.99,6.53,24.94c1.09,2.33,2.21,4.71,4.03,6.58c3.05,3.14,7.73,4.45,12.16,4.4c4.43-0.05,8.72-1.31,12.92-2.6
			c0.62-0.19,1.24-0.4,1.85-0.59c0.35,1.13,0.6,2.09,0.72,2.82c1.62,9.37-10.09,35.22-16.74,48.88h112.6
			C198.59,276.97,197.35,266.47,195.86,253.99z"/>
		<path class="st18" d="M118.71,77.6c0.01,0,0.01,0,0.02,0c0.59,3.62,1.78,7.16,3.71,10.41c0.88,1.16,1.84,2.25,2.93,3.21
			c1.03,0.9,2.14,1.64,3.31,2.25c0.32,0.25,0.66,0.49,1.02,0.69c0.83,0.46,1.75,0.74,2.68,0.94c0.18,0.04,0.37,0.08,0.55,0.11
			c2.27,0.44,4.58,0.61,6.89,0.68c2.49,0.07,5.01,0.01,7.42-0.62c2.21-0.58,4.27-1.65,6.05-3.08c0.91-0.72,2.35-3.05,3.67-4.46
			c1.21-2.16,2.19-4.51,2.89-6.94c1.85-0.09,4.09-1.92,5.55-4.77c1.85-3.6,1.74-7.45-0.24-8.6c-0.97-0.56-2.2-0.36-3.43,0.4
			c0.98-13.98-1.58-27.57-20.35-27.08c0,0-9.95-1.15-16.19,6.94c-2.43,3.15-4.93,8.87-6.16,15.48c-0.97-0.75-2.06-1.09-3.12-0.87
			c-2.69,0.55-4.25,4.43-3.48,8.65C113.21,75.18,116.02,78.15,118.71,77.6z M134.3,82.06l18.99,0.86c0,0-0.76,7.2-9.13,7.06
			C133.97,89.81,134.3,82.06,134.3,82.06z"/>
		<path class="st12" d="M144.17,89.97c8.36,0.14,9.13-7.06,9.13-7.06l-18.99-0.86C134.3,82.06,133.97,89.81,144.17,89.97z"/>
		<path class="st20" d="M100.94,122.2c5.09,3.66,5.01,25.37,3.85,44.64c0.66,0.04,1.29,0.08,1.88,0.11
			c7.12,0.35,14.26,0.39,21.39,0.36c8.25-0.03,16.51-0.16,24.73-0.96c4.13-0.4,8.24-0.97,12.31-1.79c0.21-0.04,0.42-0.09,0.62-0.14
			c2.35-3.25,4.28-5.39,5-4.6c0.61,0.67,0.3,2-0.4,3.6c0.19-0.03,0.37-0.07,0.56-0.09c1.81-0.2,3.42-0.49,5.13-1.19
			c2.46-1,4.74-2.36,7.2-3.34c1.52-0.61,3.97-0.82,5.27-1.78c1.3-0.95-0.44-3.13-0.99-4.29c-1.61-3.39-3.28-6.76-4.98-10.1
			c-0.85-1.66-1.71-3.32-2.59-4.98c-2.87-5.44-5.95-10.58-7.67-16.55c-0.14-0.48-0.26-0.97-0.39-1.45c0.28,0.08,0.57,0.18,0.88,0.29
			c-1.44-3.97-2.66-7.98-3.52-12.05c-0.85-4.06-1.34-8.17-1.3-12.37c0.08-8.08,2.14-16.07,1.87-24.15
			c-0.58-17.35-19.32-45.95-40.01-38.77c-23.87,8.29-22.29,37.79-28.81,57.17c-4.11,12.23-12.56,22.2-19.31,32.92
			C88.28,119.28,95.83,118.52,100.94,122.2z M115.91,62.3c1.07-0.22,2.15,0.12,3.12,0.87c1.24-6.61,3.73-12.33,6.16-15.48
			c6.24-8.09,16.19-6.94,16.19-6.94c18.77-0.49,21.32,13.1,20.35,27.08c1.23-0.76,2.46-0.95,3.43-0.4c1.98,1.14,2.09,4.99,0.24,8.6
			c-1.46,2.84-3.7,4.68-5.55,4.77c-0.7,2.43-1.68,4.77-2.89,6.94c-1.32,1.41-2.76,3.73-3.67,4.46c-1.78,1.42-3.84,2.5-6.05,3.08
			c-2.41,0.63-4.93,0.69-7.42,0.62c-2.31-0.07-4.62-0.24-6.89-0.68c-0.18-0.04-0.37-0.07-0.55-0.11c-0.93-0.2-1.85-0.48-2.68-0.94
			c-0.36-0.2-0.69-0.44-1.02-0.69c-1.17-0.61-2.28-1.34-3.31-2.25c-1.09-0.96-2.05-2.05-2.93-3.21c-1.93-3.25-3.12-6.8-3.71-10.41
			c-0.01,0-0.01,0-0.02,0c-2.69,0.55-5.5-2.42-6.28-6.64C111.66,66.73,113.22,62.85,115.91,62.3z"/>
		<path class="st18" d="M170.72,159.81c-0.71-0.79-2.65,1.36-5,4.6c-4.83,6.68-11.41,18.05-12.75,18.37
			c-1.52,0.36-27.09,8.04-45.4,11.76c-0.45,6.33-0.42,12.68,0.08,19c0.15,1.91,0.35,3.81,0.59,5.72
			c18.67-6.74,39.44-16.96,45.63-19.51c10.81-4.47,15.64-1.1,22.4-1.75c6.76-0.64,14.44,7.16,15.88,4.88
			c1.44-2.29-10.19-7.08-10.25-9.74c-0.07-2.66,15.89,0.8,16.97-1.28c1.99-3.83-17.24-4.87-16.44-6.69
			c0.8-1.82,20.68-1.72,19.39-5.46c-1.29-3.74-20.62,2.05-20.63-0.28c-0.01-2.34,18.46-3.76,19.27-8.69
			c0.43-2.63-31.25,6.44-34.19,4.28c-2.11-1.56,2.26-7.51,4.06-11.62C171.02,161.81,171.33,160.49,170.72,159.81z"/>
		<path class="st21" d="M419.17,131.54C419.17,131.54,419.17,131.54,419.17,131.54C419.17,131.54,419.17,131.54,419.17,131.54
			c0,0,3.69,31.71,1.33,68.51h28.47c-2.45-9.32-11.64-43.33-18.21-55.75C424.76,132.97,420.67,131.6,419.17,131.54z"/>
		<path class="st22" d="M337.43,193.97c2.97,0.58,7.98,1.51,11.11,1.79c2.29-0.03,4.35-0.57,6.12-1.14
			c2.23-0.72,6.74-1.25,7.78-0.92c1.21,0.38,3.68,1.28,5.16,1.86c1.48,0.58,3.24,1.16,3.99,1.62c0.46,0.28,1.59,0.22,2.41,0.12
			c1.22-0.14,1.77,2.2,0.84,3.62c-0.87,1.34-2.52,1.6-3.54,1.76c-2.89,0.44-7.18-1.52-7.16-0.82c0.02,0.7,5.94,7.85,6.57,8.74
			c0.64,0.89,7.49,9.27,8.43,11.66c0.95,2.39,0.11,3.89-0.92,3.63c-0.89-0.22-10.96-10.57-10.96-10.57s-1.29-1.32-1.22,0.04
			c0.07,1.36,9.19,10.79,10.36,12.63c1.17,1.84,1.35,4.05-0.27,4.5c-1.98,0.55-11.27-10.55-11.27-10.55s-1.18-1.36-1.4-0.32
			c-0.21,1.04,7.65,8.84,8.11,10.14c0.46,1.3,0.06,3.35-1.45,3.28c-1.77-0.09-10.01-10.12-10.01-10.12s-0.78-0.45-0.74,0.33
			c0.03,0.78,6.39,8.25,6.61,9.98c0.18,1.45-0.65,1.88-0.65,1.88c-1.68,1.51-7.15-7.24-10.48-9.86c-3.33-2.62-6.13-8.22-10.36-10.6
			c-1.42-0.8-3.45-1.32-5.68-1.64c-0.48,0-0.98,0.01-1.49,0.02c-0.03,1.19-0.07,2.4-0.11,3.62c-1.57,0.13-3.25,0.25-5.01,0.37
			c0.91,14.25,1.52,27.61,1.88,37.2c12.37,1.16,31.34,0.66,43.8,0.08l21.43-52.45c0.94-2.29,3.16-3.79,5.63-3.79h15.53
			c2.36-36.8-1.33-68.51-1.33-68.51c0,0-0.01,0-0.01,0c-8.69-2.77-25.3-5.09-36.58-5.95c-0.11-0.01-0.22-0.02-0.34-0.02l0.17,1.26
			c0,0,4.26,20.39-1.22,24.32c-5.48,3.93-23.3-24.9-23.3-24.9l0.01-0.19c-6.02,0.52-12.03,1.26-17.05,2.13
			c-4.34,0.75-7.82,1.35-10.63,1.84c-6.22,1.07-9.11,1.57-10.44,1.8C326.62,131.69,336.41,146.4,337.43,193.97z"/>
		<path class="st23" d="M316.79,278.56l-0.01-1.13c0.07-1.71,0.88-3.23,2.32-3.23h51.48l7.32-17.92
			c-12.46,0.57-31.43,1.07-43.8-0.08c-0.36-9.59-0.98-22.94-1.88-37.2c-9.25,0.59-20.7,0.82-29.95-0.67
			c0.83,28.08,5.52,54.91,14.06,63.67h2.77C317.66,282,316.85,279.74,316.79,278.56z"/>
		<path class="st21" d="M337.22,218.64c0.04-1.22,0.08-2.43,0.11-3.62c-9.11,0.1-24.43,0.32-37.45,0.36
			c0.04,0.85,0.08,1.7,0.12,2.54c0.74,0.15,1.49,0.28,2.26,0.41c9.25,1.5,20.7,1.26,29.95,0.67
			C333.97,218.89,335.66,218.77,337.22,218.64z"/>
		<path class="st21" d="M335.01,193.49c0,0,0.97,0.2,2.42,0.49c-1.02-47.58-10.81-62.29-17.65-62.16c-0.54,0.01-1.06,0.11-1.56,0.3
			c-14.19,5.32-18.29,29.31-18.82,55.44C313.12,189.87,335.01,193.49,335.01,193.49z"/>
		<path class="st24" d="M503.9,208.66c1.81-4.04-1.14-8.61-5.56-8.61H484.7h-15.33h-20.4H420.5h-15.53c-2.47,0-4.7,1.5-5.63,3.79
			l-21.43,52.45l-7.32,17.92H319.1c-1.44,0-2.25,1.51-2.32,3.23l0.01,1.13c0.07,1.17,0.87,3.44,2.31,3.44h146.52
			c4.03,0,7.68-2.37,9.33-6.06l11.04-25.65l11.76-27.33L503.9,208.66z M448.07,243.81c-0.63,3.16-3.38,5.27-6.14,4.72
			c-2.76-0.55-4.48-3.56-3.85-6.73c0.63-3.16,3.38-5.27,6.14-4.72C446.98,237.64,448.7,240.65,448.07,243.81z"/>
		<path class="st12" d="M444.22,237.08c-2.76-0.55-5.51,1.56-6.14,4.72c-0.63,3.16,1.09,6.17,3.85,6.73
			c2.76,0.55,5.51-1.56,6.14-4.72C448.7,240.65,446.98,237.64,444.22,237.08z"/>
		<path class="st25" d="M355.59,87.81c-0.35,0.02-0.7,0.01-1.06-0.05c-2.93-0.51-4.8-3.84-4.18-7.43c0.62-3.59,3.5-6.09,6.43-5.58
			c0,0,0,0,0,0l0,0c0,0,8.91,2.21,12.22-3.52c3.1-5.37,13.68-16.57,27.38-13.74c3.04,3.44,4.87,7.98,4.75,12.94
			c-0.13,5.05-0.54,11.36-1.59,18.15c-0.53,3.43-1.44,6.77-2.62,9.89c0,0,0.01,0,0.01,0c0-0.52,34.12-46.39,0.31-57.77
			c-2.81-0.95-5.58-2.02-8.26-3.31c-3.02-1.46-6.94-3.17-9.42-3.55c-5.21-0.8-14.16-0.27-19.11,5.1c-6.16,6.68-17.1,1.21-14.9,36.2
			c1.25,19.88,7.42,28.68,13.33,32.44l0.36-6.87C357.35,96.96,356,92.65,355.59,87.81z"/>
		<path class="st23" d="M381.2,151.15c5.48-3.93,1.22-24.32,1.22-24.32l-0.17-1.26l-0.12-0.9c-7.65-2.92-18.43-10.44-22.96-22.67
			l0.07-1.28c5.22,10.39,14.53,16.49,19.26,17.31c0.86,0.15,1.78,0.08,2.72-0.18c5.44-1.47,11.94-9.32,15.71-19.37
			c1.17-3.13,2.09-6.47,2.62-9.89c1.05-6.79,1.46-13.1,1.59-18.15c0.12-4.96-1.71-9.51-4.75-12.94
			c-13.69-2.84-24.28,8.36-27.38,13.74c-3.31,5.73-12.22,3.52-12.22,3.52l0,0c0,0,0,0,0,0c-2.93-0.51-5.8,1.99-6.43,5.58
			c-0.62,3.59,1.25,6.92,4.18,7.43c0.36,0.06,0.71,0.08,1.06,0.05c0.4,4.84,1.76,9.15,3.65,12.91l-0.36,6.87l-0.97,18.46l-0.01,0.19
			C357.9,126.24,375.72,155.08,381.2,151.15z M370.36,97.38l15.5,2.96c0,0-1.48,5.84-8.33,4.73
			C369.17,103.73,370.36,97.38,370.36,97.38z"/>
		<path class="st26" d="M378.5,118.03c-4.73-0.82-14.04-6.92-19.26-17.31l-0.07,1.28c4.53,12.23,15.31,19.75,22.96,22.67
			c0,0,0,0,0,0l-0.92-6.82C380.27,118.11,379.36,118.18,378.5,118.03z"/>
		<path class="st12" d="M377.53,105.08c6.85,1.11,8.33-4.73,8.33-4.73l-15.5-2.96C370.36,97.38,369.17,103.73,377.53,105.08z"/>
		<path class="st12" d="M312.08,93.59c7.17,1.16,8.72-4.95,8.72-4.95l-16.22-3.1C304.58,85.53,303.34,92.18,312.08,93.59z"/>
		<path class="st6" d="M337.34,215.02c0.52-0.01,1.02-0.01,1.49-0.02c2.23,0.32,4.26,0.84,5.68,1.64c4.23,2.38,7.03,7.98,10.36,10.6
			c3.33,2.62,8.79,11.37,10.48,9.86c0,0,0.83-0.42,0.65-1.88c-0.22-1.73-6.58-9.2-6.61-9.98c-0.04-0.78,0.74-0.33,0.74-0.33
			s8.23,10.03,10.01,10.12c1.51,0.08,1.9-1.97,1.45-3.28c-0.46-1.3-8.32-9.1-8.11-10.14c0.21-1.03,1.4,0.32,1.4,0.32
			s9.29,11.1,11.27,10.55c1.63-0.45,1.45-2.66,0.27-4.5c-1.17-1.84-10.3-11.27-10.36-12.63c-0.07-1.36,1.22-0.04,1.22-0.04
			s10.07,10.35,10.96,10.57c1.03,0.26,1.87-1.24,0.92-3.63c-0.95-2.39-7.79-10.77-8.43-11.66c-0.64-0.89-6.56-8.04-6.57-8.74
			c-0.02-0.7,4.27,1.26,7.16,0.82c1.02-0.16,2.67-0.42,3.54-1.76c0.93-1.42,0.38-3.76-0.84-3.62c-0.82,0.09-1.95,0.16-2.41-0.12
			c-0.75-0.46-2.51-1.04-3.99-1.62c-1.48-0.58-3.95-1.49-5.16-1.86c-1.04-0.32-5.55,0.21-7.78,0.92c-1.77,0.57-3.83,1.11-6.12,1.14
			c-3.13-0.28-8.15-1.2-11.11-1.79c-1.45-0.29-2.42-0.49-2.42-0.49s-21.89-3.62-35.61-5.93c-5.73-0.97-10.03-1.71-10.72-1.86
			l-37.47-36.8l-18.94,26.32c0,0,41.56,38.19,44,39.55c0.97,0.54,11.27,0.66,23.63,0.62C312.91,215.34,328.22,215.12,337.34,215.02z
			"/>
	</g>
	<rect class="st0" width="647" height="282"/>
</g>
</svg>
