<?xml version="1.0" encoding="utf-8"?>
<!-- Generator: Adobe Illustrator 27.0.1, SVG Export Plug-In . SVG Version: 6.00 Build 0)  -->
<svg version="1.1" id="Layer_1" xmlns="http://www.w3.org/2000/svg" xmlns:xlink="http://www.w3.org/1999/xlink" x="0px" y="0px"
	 viewBox="0 0 187 187" style="enable-background:new 0 0 187 187;" xml:space="preserve">
<style type="text/css">
	.st0{fill:#FFFFFF;}
	.st1{fill:#F7CC7F;}
	.st2{fill:#CDA767;}
	.st3{fill:#0D2E36;}
	.st4{fill:#F59A28;}
</style>
<g>
	<circle class="st0" cx="93.5" cy="93.5" r="89.8"/>
	<g>
		<path class="st1" d="M85.89,128.56c4.29,0,10.83-1.85,20.78-7.72c-1.34-1.88-2.3-5.49-2.36-12.51c-0.02-2.46,0.07-5.34,0.3-8.72
			l-0.01,0c1.33-2.04,2.2-4.49,2.39-7.43c0.15-2.32,0.35-4.54,0.55-6.67c-2.44-0.3-5.33-0.9-8.67-1.99
			c-8.47-2.76-18.13-12.53-24-19.2c-1.48,1.27-2.87,2.63-3.81,3.93c-2.99,4.13-5.94,14.82-5.35,19.62c0.08,0.91,0.18,1.81,0.29,2.71
			c1.13,9.5,3.57,18.39,7.75,18.99c0,0,1.95,0.15,4.89,0.09c5.99-0.13,16.12-1.18,22.52-6.28c-4.08,6.61-11.48,14.89-22.84,14.49
			c-0.12,1.98-0.28,3.92-0.49,5.66C78.1,124.54,79.55,128.56,85.89,128.56z M70.86,97.95L88.43,97c0,0-0.09,5.58-7.8,6.18
			C71.22,103.92,70.86,97.95,70.86,97.95z"/>
		<path class="st2" d="M101.15,103.37c-6.4,5.1-16.53,6.14-22.52,6.28c-0.05,2.48-0.14,5.38-0.32,8.22
			C89.67,118.26,97.07,109.98,101.15,103.37z"/>
		<path class="st3" d="M71.06,68.24c0.94-1.3,2.33-2.66,3.81-3.93c5.87,6.68,15.54,16.45,24,19.2c3.34,1.09,6.22,1.69,8.67,1.99
			c-0.2,2.13-0.4,4.35-0.55,6.67c-0.19,2.94-1.06,5.39-2.39,7.43l0.01,0c-0.23,3.38-0.32,6.26-0.3,8.72
			c5.21-2.34,11.22-8.49,13.56-23.61c0.18-0.08,0.27-0.13,0.27-0.13s-0.08-0.11-0.21-0.28c0.33-2.18,0.58-4.55,0.74-7.12
			c2.04-32.41-8.09-27.34-13.8-33.53c-4.58-4.97-12.87-5.46-17.7-4.72c-2.29,0.35-5.92,1.94-8.72,3.29
			c-2.48,1.19-5.04,2.19-7.65,3.06c-22.79,7.68-12.25,32.27-4.83,45.27c-0.11-0.9-0.2-1.81-0.29-2.71
			C65.11,83.07,68.07,72.37,71.06,68.24z"/>
		<path class="st4" d="M93.5,183.3c21.75,0,41.69-7.73,57.23-20.6c-3.4-13.36-6.6-24.78-8.73-27.75
			c-9.04-12.61-35.17-14.22-35.17-14.22v0.01c0,0.01-0.01,0-0.02,0.01c-0.05,0.03-0.1,0.06-0.15,0.09c0,0,0,0,0,0
			c-9.94,5.87-16.48,7.72-20.78,7.72c-6.34,0-7.79-4.02-8.06-5.04c0,0,0-0.01,0-0.01v-0.02c-0.03-0.13-0.04-0.21-0.04-0.21v-0.01
			c0,0-18.86,3.2-27.25,11.02c-1.77,1.64-3.07,3.49-3.64,5.57c-0.6,2.18-2.04,14.13-3.83,27.94C57.44,177.59,74.8,183.3,93.5,183.3z
			"/>
		<path class="st0" d="M88.43,97l-17.56,0.95c0,0,0.36,5.97,9.76,5.23C88.34,102.58,88.43,97,88.43,97z"/>
	</g>
</g>
</svg>
