<?xml version="1.0" encoding="utf-8"?>
<!-- Generator: Adobe Illustrator 27.0.1, SVG Export Plug-In . SVG Version: 6.00 Build 0)  -->
<svg version="1.1" id="Layer_1" xmlns="http://www.w3.org/2000/svg" xmlns:xlink="http://www.w3.org/1999/xlink" x="0px" y="0px"
	 viewBox="0 0 445 219.75" style="enable-background:new 0 0 445 219.75;" xml:space="preserve">
<style type="text/css">
	.st0{fill:none;}
	.st1{fill:#E6ECFF;}
	.st2{fill:#ACC1FF;}
	.st3{fill:#223763;}
	.st4{fill:#F7CC7F;}
	.st5{fill:#CCA666;}
	.st6{fill:#FFFFFF;}
	.st7{fill:#FA963B;}
	.st8{fill:#CDDCFF;}
	.st9{fill:#233862;}
	.st10{fill:#3D2413;}
	.st11{fill:#A97C4C;}
	.st12{fill:#764C25;}
	.st13{fill:#284C97;}
	.st14{fill:#EE7D18;}
	.st15{fill:#AA443A;}
	.st16{fill:#FCB813;}
	.st17{fill:#FFB178;}
	.st18{fill:#EE9759;}
	.st19{fill:#2B3965;}
	.st20{fill:#F69826;}
</style>
<g>
	<g>
		<path class="st0" d="M107.63,67.27c-0.21-0.56-0.75-1.02-1.34-1.04c0.3,1.11,0.6,2.22,0.9,3.34
			C107.59,68.87,107.92,68.04,107.63,67.27z"/>
		<path class="st0" d="M341.41,82.08c0.42,4.99,1.12,8.54,1.88,11.08l0.73-0.32C342.21,87.91,341.48,82.63,341.41,82.08z"/>
		<path class="st1" d="M254.22,45.35h-10.87c3.7,1.83,6.23,5.52,6.23,9.65h14.59C264.18,55,262.6,45.35,254.22,45.35z"/>
		<path class="st2" d="M243.36,45.35c-1.57-0.78-3.35-1.23-5.23-1.23h-8.61c3.78,2.16,6.34,6.21,6.43,10.89h13.64c0,0,0-0.01,0-0.01
			C249.58,50.86,247.05,47.18,243.36,45.35z"/>
		<path class="st1" d="M159.25,55.25c0-0.03,0-0.06,0-0.1h0V55.25z"/>
		<path class="st1" d="M235.96,55.15L235.96,55.15c0,0.03,0,0.06,0,0.1V55.15z"/>
		<path class="st1" d="M229.52,44.12c-1.83-1.05-3.94-1.65-6.2-1.65h-51.43c-6.95,0-12.58,5.67-12.63,12.69h76.7
			c0-0.05-0.01-0.1-0.01-0.14C235.86,50.33,233.29,46.27,229.52,44.12z M174.41,48.08h30.14v2.96h-30.14V48.08z"/>
		<path class="st1" d="M299.38,211.06L299.38,211.06l9.2-28.06c-0.8-0.58-1.28-0.97-1.28-0.97s1.63-4.2,3.8-9.5
			c0.6-1.46,1.44-6.42,2.43-13l-3.2,1l-3.43-0.12l2.75-2.07l4.26-1.32c0.61-4.16,1.26-8.82,1.94-13.57V56.75h-156.6v81.1
			c0.51-0.54,1.03-1.07,1.54-1.61c0.71,0.16,1.35,0.36,1.93,0.59c0,0,0,0,0,0l0,0c0,0,1.12-4.8,1.97-6.87
			c0.84-2.07,0.93-3.87,1.43-3.71c0.51,0.15,0.62,0.63,0.53,1.37c-0.05,0.44-0.27,2.21-0.44,3.57c0.3-0.3,0.61-0.58,0.93-0.81
			c0.97-0.69,1.83-1.46,2.8-2.11v-6.89h41.03v41.03h-41.03v-20.36c-0.03,0.01-0.06,0.03-0.1,0.04c-0.01,0-0.02,0-0.03,0.01
			c-0.67,0.39-1.32,0.75-1.91,1.08c0.07,0.7,0.01,1.16,0.01,1.16s-3.51,7.38-8.67,16.45v59h130.68c0.02-0.06,0.03-0.13,0.05-0.19
			C290.93,216.51,296.62,212.74,299.38,211.06z M200.2,205.96h-7.45v-5.76h-4.74v5.76h-7.22v-23.04l1.69-2.65h16.37l1.35,2.65
			V205.96z M253.3,80.81h19.94v1.81H253.3V80.81z M248.95,85.06h24.28v1.81h-24.28V85.06z M221.82,68.52h15.73v15.73h-15.73V68.52z
			 M221.82,96.79h51.41v1.03h-51.41V96.79z M221.82,101.6h51.41v1.03h-51.41V101.6z M221.82,106.48h51.41v1.03h-51.41V106.48z
			 M250.99,136.07v-1.81h22.24v1.81H250.99z M273.23,138.5v1.81h-27.08v-1.81H273.23z M221.82,121.97h15.73v15.73h-15.73V121.97z
			 M221.82,150.23h53.35v1.03h-53.35V150.23z M221.82,155.05h53.35v1.03h-53.35V155.05z M221.82,159.92h53.35v1.03h-53.35V159.92z
			 M221.82,173.54h15.73v15.73h-15.73V173.54z M187.66,99.39c0.01,0.01,0.03,0.02,0.04,0.02c0.3-0.42,0.52-1.16,0.6-2.46
			c-1.77-0.16-3.8-0.37-5.42-1.14c-1.14-0.54-1.06-0.43-0.91-1.52c0.14-1.02,0.64-1.95,0.7-3.04c0.08-1.54-0.12-3.09-0.03-4.63
			c0.22-3.93,2.18-8.43,6.56-8.78c0.55-0.04,3.87-0.6,6.27,0.07c7.33,2.04,5.4,12.83,6.55,18.23c0.02,0.09,0.04,0.2,0,0.29
			c-0.05,0.13-0.21,0.19-0.35,0.23c-2.01,0.58-4.2,0.76-6.41,0.75c0.01,0.4,0.03,0.81,0.06,1.22c0.03,0.53,0.08,1.05,0.13,1.51v0
			c0.01-0.04,0.01-0.06,0.01-0.06v0c0,0,5.07,0.86,7.32,2.96c0.48,0.44,0.83,0.94,0.98,1.5c0.32,1.17,1.21,4.43,2.21,8.09h-32.03
			c1.43-4.1,3.05-7.73,4.26-9.41C180.63,99.82,187.65,99.38,187.66,99.39L187.66,99.39C187.65,99.39,187.65,99.39,187.66,99.39z
			 M276.18,212.52h-54.35v-1.03h54.35V212.52z M276.18,207.65h-54.35v-1.03h54.35V207.65z M276.18,202.83h-54.35v-1.03h54.35V202.83
			z M276.18,191.89h-25.67v-1.81h25.67V191.89z M276.18,187.64H255.1v-1.81h21.08V187.64z"/>
		<path class="st1" d="M303.53,219.75h12.33v-23.31l-10.44,17.01C304.71,215.2,304.2,218.05,303.53,219.75z"/>
		<path class="st3" d="M188.25,93.71L188.25,93.71c-0.35-0.55-0.59-1.21-0.64-2c-0.04-0.62-0.09-1.22-0.15-1.79
			c0.66-0.08,1.43-0.24,2.33-0.54c2.28-0.74,4.87-3.37,6.45-5.16c0.4,0.34,0.77,0.71,1.02,1.06c0.8,1.11,1.6,3.98,1.44,5.27
			c-0.26,2.81-0.93,5.66-2.16,5.83c0,0-0.52,0.04-1.32,0.02c0.01,0.31,0.02,0.64,0.03,0.99c2.21,0.01,4.4-0.17,6.41-0.75
			c0.14-0.04,0.3-0.1,0.35-0.23c0.04-0.09,0.02-0.19,0-0.29c-1.15-5.4,0.79-16.19-6.55-18.23c-2.4-0.67-5.72-0.11-6.27-0.07
			c-4.38,0.35-6.33,4.85-6.56,8.78c-0.09,1.54,0.11,3.09,0.03,4.63c-0.05,1.09-0.56,2.02-0.7,3.04c-0.15,1.1-0.23,0.98,0.91,1.52
			c1.62,0.78,3.65,0.98,5.42,1.14C188.35,96.12,188.34,95.06,188.25,93.71z"/>
		<path class="st4" d="M193.28,101.49c1.71,0,2.1-1.09,2.17-1.36v0c-0.06-0.47-0.1-0.98-0.13-1.51c-3.05,0.11-5.04-2.12-6.13-3.89
			c1.72,1.37,4.44,1.65,6.05,1.68c0.79,0.02,1.32-0.02,1.32-0.02c1.23-0.17,1.9-3.02,2.16-5.83c0.16-1.29-0.64-4.16-1.44-5.27
			c-0.25-0.35-0.63-0.71-1.02-1.06c-1.58,1.8-4.17,4.42-6.45,5.16c-0.9,0.29-1.67,0.46-2.33,0.54c0.05,0.57,0.11,1.17,0.15,1.79
			c0.05,0.79,0.29,1.45,0.64,2l0,0c0.09,1.36,0.1,2.41,0.05,3.24c-0.08,1.31-0.31,2.05-0.6,2.46c0,0,0,0,0,0
			C190.37,100.99,192.13,101.49,193.28,101.49z"/>
		<path class="st5" d="M189.18,94.72c1.1,1.78,3.08,4,6.13,3.89c-0.02-0.41-0.04-0.82-0.06-1.22c-0.01-0.35-0.02-0.68-0.03-0.99
			C193.62,96.37,190.9,96.09,189.18,94.72z"/>
		<path class="st2" d="M178.2,103.21c-1.21,1.68-2.83,5.31-4.26,9.41h32.03c-1-3.66-1.89-6.92-2.21-8.09
			c-0.15-0.56-0.5-1.06-0.98-1.5c-2.26-2.1-7.32-2.96-7.32-2.96v0c0,0,0,0.02-0.01,0.06v0v0c-0.07,0.27-0.46,1.36-2.17,1.36
			c-1.15,0-2.91-0.5-5.58-2.08c0,0,0,0,0,0c-0.01-0.01-0.03-0.02-0.04-0.02c0,0,0,0,0,0v0C187.65,99.38,180.63,99.82,178.2,103.21z"
			/>
		<rect x="221.82" y="96.79" class="st2" width="51.41" height="1.03"/>
		<rect x="221.82" y="101.6" class="st2" width="51.41" height="1.03"/>
		<rect x="221.82" y="106.48" class="st2" width="51.41" height="1.03"/>
		<path class="st6" d="M237.55,68.52h-15.73v15.73h15.73V68.52z M228.62,82.53l-5.26-7.25l4.25,2.27l7.27-6.61L228.62,82.53z"/>
		<rect x="253.3" y="80.81" class="st2" width="19.94" height="1.81"/>
		<rect x="248.95" y="85.06" class="st2" width="24.28" height="1.81"/>
		<rect x="221.82" y="201.8" class="st2" width="54.35" height="1.03"/>
		<rect x="221.82" y="206.62" class="st2" width="54.35" height="1.03"/>
		<rect x="221.82" y="211.49" class="st2" width="54.35" height="1.03"/>
		<rect x="221.82" y="173.54" class="st6" width="15.73" height="15.73"/>
		<rect x="255.1" y="185.83" class="st2" width="21.08" height="1.81"/>
		<rect x="250.51" y="190.08" class="st2" width="25.67" height="1.81"/>
		<path class="st2" d="M180.79,205.96h7.22v-5.76h-3.44l3.32-5.27h5.08l2.8,5.27h-3.03v5.76h7.45v-23.04h-19.41V205.96z
			 M194.26,185.06h3.34v3.34h-3.34V185.06z M194.26,189.75h3.34v3.34h-3.34V189.75z M188.84,185.06h3.34v3.34h-3.34V185.06z
			 M188.84,189.75h3.34v3.34h-3.34V189.75z M183.38,185.06h3.34v3.34h-3.34V185.06z M183.38,189.75h3.34v3.34h-3.34V189.75z"/>
		<polygon class="st7" points="192.97,194.93 187.89,194.93 184.57,200.2 188.01,200.2 192.75,200.2 195.78,200.2 		"/>
		<polygon class="st7" points="182.48,180.27 180.79,182.92 200.2,182.92 198.85,180.27 		"/>
		<rect x="183.38" y="185.06" class="st6" width="3.34" height="3.34"/>
		<rect x="188.84" y="185.06" class="st6" width="3.34" height="3.34"/>
		<rect x="194.26" y="185.06" class="st6" width="3.34" height="3.34"/>
		<rect x="183.38" y="189.75" class="st6" width="3.34" height="3.34"/>
		<rect x="188.84" y="189.75" class="st6" width="3.34" height="3.34"/>
		<rect x="194.26" y="189.75" class="st6" width="3.34" height="3.34"/>
		<path class="st6" d="M178.13,123.01c0.35-0.15,0.72-0.29,1.11-0.26c0.38,0.02,0.78,0.25,0.87,0.62c0.07,0.26-0.02,0.53-0.11,0.78
			c-0.26,0.69-0.6,1.34-1,1.95c0.39-0.44,1.3-0.3,1.67,0.23c0.43,0.6,0.37,1.41,0.29,2.15c-0.01,0.13-0.03,0.25-0.04,0.38
			c-0.05,0.49-0.1,0.97-0.16,1.46c-0.59,5.49-5.88,9.7-10.82,11.71v20.36h41.03v-41.03h-41.03v6.89c0.34-0.23,0.7-0.44,1.08-0.63
			C173.55,126.37,175.42,124.14,178.13,123.01z M183.5,130.61c1.05-2.86,1.57-2.44,4.62-2.39c1.4,0.02,16.74,0.25,16.74,0.29
			c-0.2,1.23-0.41,2.45-0.63,3.67c1.92,0.03,3.26,0.06,3.26,0.07c-1.43,8.95-3.48,17.8-6.12,26.46c-7.82,0.02-16.14-0.1-22.67-4.39
			c0.86-0.27,1.61-0.75,2.27-1.35c-1.71-0.6-3.36-1.38-4.9-2.4c2.24-0.72,3.82-2.8,4.62-5.01c0.8-2.21,0.95-4.6,1.24-6.94
			C182.24,136.01,182.58,133.1,183.5,130.61z"/>
		<rect x="221.82" y="150.23" class="st2" width="53.35" height="1.03"/>
		<rect x="221.82" y="155.05" class="st2" width="53.35" height="1.03"/>
		<rect x="221.82" y="159.92" class="st2" width="53.35" height="1.03"/>
		<path class="st6" d="M237.55,121.97h-15.73v15.73h15.73V121.97z M229.19,135.62l-5.26-7.25l4.25,2.27l7.27-6.61L229.19,135.62z"/>
		<rect x="250.99" y="134.26" class="st2" width="22.24" height="1.81"/>
		<rect x="246.15" y="138.5" class="st2" width="27.08" height="1.81"/>
		<path class="st8" d="M180.96,152.97c-0.66,0.6-1.41,1.08-2.27,1.35c6.53,4.3,14.85,4.42,22.67,4.39
			c2.64-8.67,4.69-17.52,6.12-26.46c0-0.01-1.34-0.04-3.26-0.07c-1.38,7.7-3.22,15.31-5.5,22.79
			C192.76,154.99,186.49,154.91,180.96,152.97z"/>
		<path class="st2" d="M176.06,150.57c1.54,1.02,3.19,1.79,4.9,2.4c5.54,1.95,11.8,2.02,17.77,2c2.28-7.48,4.12-15.1,5.5-22.79
			c0.22-1.22,0.43-2.44,0.63-3.67c0-0.04-15.34-0.26-16.74-0.29c-3.05-0.05-3.57-0.47-4.62,2.39c-0.92,2.49-1.26,5.4-1.58,8.02
			c-0.29,2.34-0.44,4.72-1.24,6.94C179.88,147.78,178.3,149.86,176.06,150.57z M196.02,150.62c-0.81,0.3-1.62,0.6-2.43,0.9
			c-0.08,0.03-0.17-0.02-0.22-0.08c-0.23-0.34-0.46-0.68-0.68-1.02c-0.14,0.4-0.43,0.74-0.85,0.88c-0.58,0.19-1.16-0.08-1.5-0.54
			c-0.4,0.31-0.79,0.63-1.19,0.94c-0.22,0.18-0.34-0.19-0.32-0.35c0.06-0.44,0.15-0.96-0.16-1.33c-0.13-0.15-0.31-0.27-0.52-0.25
			c-0.14,0.01-0.42,0.15-0.35,0.34c0.1,0.29-0.27,0.66-0.4,0.29c-0.25-0.69,0.4-1.46,1.13-1.16c0.67,0.27,0.81,0.98,0.79,1.64
			c0.32-0.25,0.64-0.51,0.96-0.76c0.12-0.1,0.25,0.01,0.3,0.12c0.4,0.83,1.85,0.61,1.75-0.39c-0.02-0.2,0.2-0.56,0.39-0.28
			c0.3,0.44,0.6,0.89,0.89,1.33c0.77-0.28,1.54-0.57,2.3-0.85C196.22,149.92,196.29,150.52,196.02,150.62z"/>
		<path class="st6" d="M195.92,150.03c-0.77,0.28-1.54,0.57-2.3,0.85c-0.3-0.44-0.6-0.89-0.89-1.33c-0.19-0.28-0.4,0.08-0.39,0.28
			c0.09,1-1.35,1.22-1.75,0.39c-0.05-0.11-0.18-0.22-0.3-0.12c-0.32,0.25-0.64,0.51-0.96,0.76c0.02-0.66-0.11-1.36-0.79-1.64
			c-0.73-0.3-1.38,0.47-1.13,1.16c0.13,0.37,0.5,0,0.4-0.29c-0.07-0.19,0.21-0.32,0.35-0.34c0.21-0.02,0.39,0.1,0.52,0.25
			c0.3,0.37,0.22,0.89,0.16,1.33c-0.02,0.16,0.09,0.53,0.32,0.35c0.4-0.31,0.79-0.63,1.19-0.94c0.34,0.46,0.92,0.73,1.5,0.54
			c0.43-0.14,0.72-0.48,0.85-0.88c0.23,0.34,0.46,0.68,0.68,1.02c0.05,0.07,0.13,0.12,0.22,0.08c0.81-0.3,1.62-0.6,2.43-0.9
			C196.29,150.52,196.22,149.92,195.92,150.03z"/>
		<rect x="174.41" y="48.08" class="st2" width="30.14" height="2.96"/>
		<polygon class="st9" points="223.93,128.38 229.19,135.62 235.45,124.04 228.18,130.65 		"/>
		<polygon class="st9" points="223.36,75.29 228.62,82.53 234.88,70.95 227.62,77.56 		"/>
		<path class="st10" d="M397.76,91.5c-11.87-6.15-11.93-15.34-11.46-23.15c0.48-7.81-3.11-41.4-25.92-32.61c0,0-3.66-1.63-5.3-1.38
			c0,0,1.34,0.26,2.02,0.96c-2.65-0.16-6.43,0.04-9.58,1.83c-1.73,0.98-3.42,3.59-4.91,7.21c-0.44,0.35-0.89,0.74-1.33,1.18
			c-0.83,0.48-1.73,1.24-2.71,2.42c-4.88,5.91-1.07,16.11-0.62,17.26c-0.97,10.7-0.02,21.85,4.26,28.4l1.08-0.47
			c-0.76-2.54-1.47-6.09-1.88-11.08c0.07,0.55,0.79,5.83,2.62,10.76l4.59-1.98c0-0.36,0.01-0.73,0-1.1c0-1.98-0.07-4-0.14-5.73
			c-2.05,0.17-3.41,0.15-3.41,0.15c-3.83-0.3-6.22-10.56-7.08-18.84c2.13,0.25,2.63-7.05,3.74-10.59c0.84-2.67,3.64-5.4,4.97-6.58
			c1.95,4.39,7.31,14.9,14.69,16.8c2.37,0.61,4.4,0.9,6.11,1c-0.05,1.49-0.09,3.04-0.09,4.66c0,2.06-0.5,3.79-1.33,5.27l0.01,0
			c-0.04,9.84,0.32,14.01,1.43,15.66c0.05-0.05,0.1-0.11,0.14-0.16c0.1,0.04,0.2,0.07,0.3,0.11c2.68,0.24,23.21,2.42,28.42,14.02
			c2.05,4.58,3.59,13.08,4.36,22.6C406.59,114.7,410.39,98.04,397.76,91.5z"/>
		<path class="st10" d="M348.61,91.43c0-0.08,0-0.16,0-0.24C348.61,91.27,348.61,91.35,348.61,91.43z"/>
		<path class="st11" d="M348.62,91.19c0,0.08,0,0.16,0,0.24c0.04,2.33,1.94,4.34,7.01,4.45c4.65,0.1,9.99-2.13,11.91-4.31
			c-1.12-1.66-1.47-5.83-1.43-15.66l-0.01,0c0.83-1.48,1.33-3.22,1.33-5.27c0-1.62,0.04-3.17,0.09-4.66c-1.71-0.1-3.74-0.39-6.11-1
			c-7.39-1.9-12.75-12.41-14.69-16.8c-1.33,1.18-4.13,3.91-4.97,6.58c-1.11,3.54-1.61,10.83-3.74,10.59
			c0.86,8.29,3.25,18.54,7.08,18.84c0,0,1.36,0.02,3.41-0.15c4.16-0.36,11.16-1.53,15.38-5.35c-2.55,4.77-7.33,10.86-15.24,11.08
			c0,0.37,0,0.74,0,1.1l0.02-0.01C348.62,90.96,348.62,91.07,348.62,91.19z M342.25,74.17l11.17,0.58c0,0-0.25,4.63-6.23,4.14
			C342.28,78.49,342.25,74.17,342.25,74.17z"/>
		<path class="st12" d="M363.87,78.67c-4.23,3.83-11.23,5-15.38,5.35c0.07,1.73,0.14,3.75,0.14,5.73
			C356.54,89.53,361.32,83.45,363.87,78.67z"/>
		<path class="st13" d="M334.22,200.81c-0.09,7.02-0.17,13.53-0.23,18.94h32.46c-0.8-4.56-1.75-10.05-2.77-16.02
			C351.44,205.02,340.93,202.87,334.22,200.81z"/>
		<path class="st6" d="M334.74,161.52c-0.18,12.46-0.36,26.7-0.52,39.29c6.71,2.06,17.21,4.21,29.45,2.92
			c-1.94-11.29-4.14-24.34-6.05-36.27c-6.49-1.33-13.69-3.23-21.53-5.93C335.62,161.54,335.17,161.53,334.74,161.52z"/>
		<path class="st6" d="M355.62,95.88c-5.07-0.11-6.97-2.13-7.01-4.45c0-0.08,0-0.16,0-0.24c0-0.11,0.01-0.22,0.02-0.34
			c0,0-12.92,31.92-13.3,38.38c-0.1,1.72-0.26,10.01-0.43,21.25l12.72-3.96c0,0,0.66,0,0.94,0.85c0.25,0.77-0.26,1.34-0.26,1.34
			l-12.94,4.03c0.46,0.26,0.73,0.43,0.73,0.43s9.08,0.48,19.47,1.08c-1.79-11.83-2.96-20.87-2.75-23.12
			c0.76-7.97,14.82-39.53,14.86-39.63c0,0,0,0,0,0s0,0,0,0l0,0l0,0c0,0,0.11,0.01,0.29,0.02c-0.1-0.04-0.2-0.07-0.3-0.11
			c-0.04,0.05-0.1,0.11-0.14,0.16C365.61,93.76,360.27,95.99,355.62,95.88z"/>
		<path class="st11" d="M308.59,183l-9.2,28.06l0,0c-2.76,1.68-8.45,5.45-9.4,8.5c-0.02,0.06-0.04,0.13-0.05,0.19h13.6
			c0.67-1.71,1.18-4.56,1.89-6.3l10.44-17.01l3.82-6.22c0.07-0.84,0.14-1.68,0.21-2.52C315.3,187.42,310.73,184.55,308.59,183z"/>
		<path class="st7" d="M314.42,156.86c-1.18-2.25,6.28-7.46,9.45-8.17c2.1-0.47,5.88,1.12,8.69,2.53l2.35-0.73
			c0.17-11.24,0.33-19.53,0.43-21.25c0.38-6.46,13.3-38.38,13.3-38.38l-0.02,0.01l-4.59,1.98l-0.73,0.32l-1.08,0.47l-3.84,1.66
			c0,0-12.44,4.94-16.04,12.63c-1.9,4.05-4.31,20.29-6.48,35.53c-0.68,4.76-1.33,9.41-1.94,13.57L314.42,156.86z"/>
		<path class="st7" d="M334.74,161.52c-6.74-0.18-7.95-1.94-9.55-2.92c-1.37-0.84-3.97-0.03-7.24-0.43l-4.41,1.37
			c-0.99,6.58-1.83,11.54-2.43,13c-2.17,5.3-3.8,9.5-3.8,9.5s0.48,0.4,1.28,0.97c2.15,1.54,6.71,4.42,11.3,4.7
			c-0.07,0.84-0.14,1.68-0.21,2.52c-0.94,10.78-2.13,21.45-3.09,29.53h17.41c0.06-5.41,0.14-11.92,0.23-18.94
			C334.38,188.22,334.56,173.98,334.74,161.52z"/>
		<path class="st14" d="M381.45,150.64c-0.59-1.87-2.8-11.23-5.29-21.97c-3.81,6.44-7.09,13.65-6.87,19.19
			c0.08,2.02,0.22,4.35,0.51,6.88C373.4,154.78,382.67,154.53,381.45,150.64z"/>
		<path class="st14" d="M373.92,171.68c4.05,10.11,11.66,20.5,26.02,27.61c0.07,0.03,0.14,0.07,0.22,0.1
			c-2.54-8.48-5.29-17.81-7.98-27.21C388.36,172.61,382.17,172.84,373.92,171.68z"/>
		<path class="st7" d="M367.97,91.52c-0.19-0.02-0.29-0.02-0.29-0.02l0,0l0,0c0,0,0,0,0,0s0,0,0,0c-0.04,0.1-14.1,31.66-14.86,39.63
			c-0.21,2.24,0.96,11.28,2.75,23.12c4.08,0.24,8.37,0.49,12.38,0.75c-3.22,2.53-0.78,10.79,0.44,14.27
			c-3.32-0.43-6.91-1.02-10.75-1.81c1.91,11.92,4.11,24.97,6.05,36.27c1.02,5.97,1.98,11.46,2.77,16.02h39.89
			c-1.76-5.71-3.88-12.69-6.18-20.36c-0.07-0.03-0.14-0.07-0.22-0.1c-14.36-7.11-21.96-17.5-26.02-27.61
			c8.25,1.17,14.44,0.93,18.26,0.5c2.93-0.33,4.47-0.76,4.47-0.76c4.48-7.68,5.42-26.97,4.11-43.27c-0.77-9.52-2.31-18.02-4.36-22.6
			C391.19,93.95,370.66,91.76,367.97,91.52z M369.28,147.86c-0.22-5.54,3.06-12.75,6.87-19.19c2.48,10.74,4.7,20.1,5.29,21.97
			c1.23,3.89-8.05,4.14-11.65,4.09C369.5,152.2,369.36,149.88,369.28,147.86z"/>
		<path class="st15" d="M335.37,152.75l12.94-4.03c0,0,0.51-0.58,0.26-1.34c-0.28-0.85-0.94-0.85-0.94-0.85l-12.72,3.96l-2.35,0.73
			C333.73,151.81,334.73,152.38,335.37,152.75z"/>
		<path class="st15" d="M315.47,157.62c-0.55-0.18-0.89-0.44-1.05-0.76l-0.5,0.16l-4.26,1.32l-2.75,2.07l3.43,0.12l3.2-1l4.41-1.37
			C317.16,158.07,316.33,157.9,315.47,157.62z"/>
		<path class="st11" d="M335.37,152.75c-0.64-0.37-1.64-0.93-2.82-1.53c-2.81-1.42-6.59-3.01-8.69-2.53
			c-3.17,0.71-10.63,5.92-9.45,8.17c0.17,0.32,0.51,0.58,1.05,0.76c0.86,0.28,1.69,0.45,2.48,0.55c3.27,0.4,5.87-0.41,7.24,0.43
			c1.6,0.99,2.81,2.74,9.55,2.92c0.43,0.01,0.88,0.02,1.35,0.02c7.84,2.7,15.05,4.6,21.53,5.93c3.84,0.79,7.44,1.38,10.75,1.81
			c-1.22-3.48-3.66-11.74-0.44-14.27c-4.01-0.25-8.3-0.51-12.38-0.75c-10.39-0.6-19.47-1.08-19.47-1.08S335.82,153.01,335.37,152.75
			z"/>
		<path class="st6" d="M353.42,74.75l-11.17-0.58c0,0,0.03,4.32,4.94,4.72C353.17,79.38,353.42,74.75,353.42,74.75z"/>
		<path class="st16" d="M167.91,143.15c-1.38,0.77-2.39,1.29-2.39,1.29l-3.48-5.85c0,0,0.24-0.73,0.68-1.78
			c-0.58-0.23-1.22-0.42-1.93-0.59c-0.51,0.54-1.03,1.07-1.54,1.61c-2.54,2.67-5.11,5.32-7.71,7.93
			c-4.36,4.38-7.83,10.38-13.56,13.19c-2.85,1.4-5.24,1.13-6.67-1.76c-2.67-5.37-5.43-10.86-7.58-16.5
			c-3.23-8.48-6.7-16.74-12.66-23.76c-2.44-2.86-5.31-5.56-8.68-7.11c0.31,2.8-0.8,6.03-0.8,6.03c-2.01-6.02-10.38-8.21-10.38-8.21
			c-0.1,4.48,1.83,11.54,1.83,11.54c-14.79,1.68-25.28-10.34-26.43-11.71c-1.9,1-3.9,2.17-5.99,3.57c-2.53,1.68-4.95,3.93-7.11,6.68
			c-5.37,5.38-11.65,13.75-14.82,25.43c-5.05,18.65-12.86,46.39-13.79,55.06c-0.34,3.13,0.81,11.76,2.41,21.5h19.11
			c0.14-5.43,0.18-10.55,0.02-14.55c-0.08-2.09,2.93-7.68,7.61-14.52c2.17,12.33,2.74,21.79,2.74,29.07h0.18
			c0.06-7.35-0.47-16.91-2.7-29.39c4.37-6.35,10.14-13.73,16.22-20.41c-0.11,13.24-1.37,33.51-7.18,49.8h63.95
			c-0.06-6.07-0.3-15.64-1.12-26.86c0.41,0.18,0.81,0.35,1.2,0.51c9.22,3.6,23.02-17.03,31.92-32.65
			c5.16-9.06,8.67-16.45,8.67-16.45S167.98,143.85,167.91,143.15z"/>
		<path class="st17" d="M165.53,144.44c0,0,1-0.53,2.39-1.29c0.58-0.32,1.23-0.69,1.91-1.08c0.01,0,0.02,0,0.03-0.01
			c0.03-0.01,0.06-0.03,0.1-0.04c4.94-2,10.23-6.22,10.82-11.71c0.05-0.49,0.1-0.97,0.16-1.46c0.01-0.13,0.03-0.25,0.04-0.38
			c0.08-0.74,0.14-1.55-0.29-2.15c-0.37-0.53-1.28-0.66-1.67-0.23c0.4-0.61,0.75-1.26,1-1.95c0.09-0.25,0.18-0.52,0.11-0.78
			c-0.1-0.37-0.49-0.6-0.87-0.62c-0.38-0.02-0.75,0.12-1.11,0.26c-2.71,1.13-4.58,3.36-7.11,4.61c-0.38,0.19-0.73,0.4-1.08,0.63
			c-0.97,0.65-1.83,1.42-2.8,2.11c-0.33,0.23-0.63,0.51-0.93,0.81c0.17-1.36,0.38-3.12,0.44-3.57c0.09-0.74-0.02-1.22-0.53-1.37
			c-0.51-0.15-0.59,1.65-1.43,3.71c-0.84,2.07-1.97,6.87-1.97,6.87l0,0c0,0,0,0,0,0c-0.44,1.04-0.68,1.78-0.68,1.78L165.53,144.44z"
			/>
		<path class="st16" d="M91.08,107.66c0.07,0.01,0.12,0.01,0.12,0.01c0.14-0.04,0.27-0.09,0.4-0.13
			C91.43,107.58,91.26,107.62,91.08,107.66z"/>
		<path class="st17" d="M97.04,97.43c0.1-2.77,0.05-4.8,0-5.98C97.09,93.14,97.11,95.29,97.04,97.43z"/>
		<path class="st17" d="M91.08,107.66c0.17-0.04,0.35-0.08,0.52-0.12c6.32-2.11,5.23-5.66,5.23-5.66c0.22-2.72,0.18-2.47,0.21-4.45
			c-11.39-1.99-18.19-12.12-18.19-12.12l0.1-0.01c4.02,5.49,11.9,5.61,18.04,4.66c4.76-0.74,8.47-2.12,8.47-2.12
			c3.16-1.4,2.86-9.28,1.47-16.9c0,0,0,0-0.01-0.01c-0.4-1.48-0.74-1.99-1.14-3.47c-0.06-0.1-0.21-0.18-0.3-0.23
			c-1.4-0.72-3.09-0.74-4.5-0.05c0,0.18-0.01,0.35-0.04,0.53c-0.21,1.14-0.87,2.23-1.68,3.05c-1.66,1.66-4.1,2.4-6.36,1.66
			c-0.51-0.17-0.99-0.41-1.44-0.69c-0.07,0.04-0.15,0.05-0.25-0.01c-1.18-0.8-2.44-1.74-2.65-3.25c-0.04-0.28-0.03-0.54,0.01-0.79
			c-0.01-0.05-0.03-0.1-0.04-0.15c-1.02-0.07-2.04-0.07-3.06,0.01c-0.33,1.32-0.65,2.38-1.16,2.83c-1.74,1.54-1.37-0.65-4.26-1.32
			c-2.9-0.68-2.28,3.78-0.94,6.49c1.31,2.67-1.47,7.05-1.56,7.2c0.31,0.77,0.68,1.47,1.09,2.1c-0.25,5.43-1.66,9.87-3.3,13.3
			c0,0,0.01,0,0.01,0C77.95,105.77,89.8,107.49,91.08,107.66z M95.47,79.94l10.28,2.54c0,0-0.8,3.12-6.28,1.64
			C94.98,82.91,95.47,79.94,95.47,79.94z"/>
		<path class="st18" d="M78.95,85.29l-0.1,0.01c0,0,6.8,10.13,18.19,12.12c0.07-2.13,0.05-4.28,0-5.98
			c-0.02-0.55-0.03-1.05-0.05-1.49C90.86,90.91,82.98,90.79,78.95,85.29z"/>
		<path class="st17" d="M93.67,71.45c1.68,0.41,3.5-0.22,4.69-1.45c0.58-0.6,1.07-1.38,1.22-2.21c0.08-0.41,0.06-0.93-0.37-1.14
			c-0.4-0.19-1.03-0.08-1.46-0.08c-1.14,0.02-2.29,0.04-3.43,0.06c-1,0.02-2.08-0.08-3.06,0.14c-0.43,0.1-0.86,0.27-1.12,0.64
			c-0.09,0.13-0.14,0.27-0.18,0.42C90.42,69.6,91.9,71.02,93.67,71.45z"/>
		<path class="st17" d="M91.2,58.66c-3.51,0.99-4.65,4.62-5.41,7.62c1.19-0.11,2.39-0.12,3.58-0.03c0.3-0.25,0.67-0.44,1.09-0.54
			c0.6-0.14,1.21-0.16,1.82-0.17c0.83-0.01,1.66-0.03,2.49-0.04l2.4-0.04c0.79-0.01,1.6-0.09,2.38-0.03
			c0.47,0.04,0.81,0.23,1.04,0.51c1.43-0.77,3.17-0.87,4.67-0.25c-0.08-0.18-0.04-0.5,0.17-0.57c0.07-0.02,0.13-0.03,0.2-0.05
			c-0.61-2.36-1.27-4.48-1.9-6.13C99.92,58.72,94.91,57.62,91.2,58.66z"/>
		<path class="st19" d="M79.11,75.55c-1.33-2.71-1.95-7.17,0.94-6.49c2.9,0.68,2.52,2.86,4.26,1.32c0.51-0.45,0.82-1.52,1.16-2.83
			c1.01-0.08,2.04-0.08,3.06-0.01c0.01,0.05,0.03,0.1,0.04,0.15c-0.04,0.25-0.05,0.51-0.01,0.79c0.21,1.51,1.47,2.45,2.65,3.25
			c0.1,0.06,0.18,0.06,0.25,0.01c0.45,0.29,0.93,0.52,1.44,0.69c2.26,0.74,4.7-0.01,6.36-1.66c0.81-0.81,1.48-1.9,1.68-3.05
			c0.03-0.18,0.04-0.35,0.04-0.53c1.41-0.69,3.1-0.67,4.5,0.05c0.09,0.05,0.24,0.13,0.3,0.23c0.4,1.48,0.74,1.99,1.14,3.47
			c0,0,0,0,0.01,0.01c0.07,0.24,0.33,0.21,0.45,0.03c0.79-1.21,1.5-2.83,0.91-4.28c-0.42-1.02-1.52-1.89-2.65-1.62
			c-0.07,0.02-0.13,0.02-0.2,0.05c-0.2,0.07-0.25,0.39-0.17,0.57c-1.5-0.62-3.24-0.53-4.67,0.25c-0.23-0.28-0.57-0.47-1.04-0.51
			c-0.78-0.06-1.6,0.01-2.38,0.03l-2.4,0.04c-0.83,0.01-1.66,0.03-2.49,0.04c-0.61,0.01-1.23,0.03-1.82,0.17
			c-0.43,0.1-0.79,0.29-1.09,0.54c-1.2-0.09-2.39-0.08-3.58,0.03c0.76-3,1.9-6.63,5.41-7.62c3.71-1.04,8.72,0.06,12.54,0.29
			c2.05,0.12,3.76,0,4.72-0.86c2.75-2.45,7.62-19.38-16.76-16.53c-18.5,2.16-24.63,5.76-27.07,9.52c-0.14-1.67,1.14-2.71,1.14-2.71
			c-2.52,1.19-2.8,4.07-2.73,5.66C61.86,54.28,61.08,55,61.08,55c1.12-0.16,1.66-0.06,1.92,0.15c-0.09,0.35-0.17,0.7-0.26,1.05
			c-0.97,3.92,5.84,20.07,10.31,23.31c4.48,3.25,4.48,3.25,4.48,3.25s0.01-0.01,0.01-0.01C77.64,82.6,80.42,78.22,79.11,75.55z
			 M107.63,67.27c0.29,0.77-0.04,1.61-0.44,2.3c-0.3-1.11-0.6-2.22-0.9-3.34C106.88,66.25,107.42,66.71,107.63,67.27z M90.14,67.41
			c0.26-0.37,0.7-0.54,1.12-0.64c0.98-0.22,2.06-0.13,3.06-0.14c1.14-0.02,2.29-0.04,3.43-0.06c0.43-0.01,1.06-0.12,1.46,0.08
			c0.43,0.21,0.44,0.73,0.37,1.14c-0.16,0.83-0.65,1.61-1.22,2.21c-1.19,1.24-3.01,1.87-4.69,1.45c-1.77-0.43-3.25-1.86-3.71-3.62
			C89.99,67.69,90.05,67.54,90.14,67.41z"/>
		<path class="st20" d="M54.27,190.36c2.23,12.48,2.76,22.04,2.7,29.39h6.33c5.81-16.29,7.08-36.56,7.18-49.8
			C64.41,176.63,58.64,184.01,54.27,190.36z"/>
		<path class="st20" d="M93.03,119.21c0,0-1.93-7.06-1.83-11.54c0,0-0.05-0.01-0.12-0.01c-1.28-0.16-13.14-1.88-15.75-9.51
			c0,0,0,0-0.01,0c-0.06,0.03-3.06,1.54-8.83,9.23c0,0,0.04,0.05,0.11,0.13C67.75,108.88,78.25,120.89,93.03,119.21z"/>
		<path class="st20" d="M91.6,107.54c-0.13,0.04-0.26,0.09-0.4,0.13c0,0,8.37,2.18,10.38,8.21c0,0,1.1-3.23,0.8-6.03
			c-0.08-0.74-0.26-1.46-0.58-2.07c-1.56-2.92-4.96-5.89-4.96-5.89S97.93,105.43,91.6,107.54z"/>
		<path class="st6" d="M99.47,84.12c5.48,1.48,6.28-1.64,6.28-1.64l-10.28-2.54C95.47,79.94,94.98,82.91,99.47,84.12z"/>
	</g>
	<rect class="st0" width="445" height="219.75"/>
</g>
</svg>
