<?xml version="1.0" encoding="utf-8"?>
<!-- Generator: Adobe Illustrator 27.0.1, SVG Export Plug-In . SVG Version: 6.00 Build 0)  -->
<svg version="1.1" id="Layer_1" xmlns="http://www.w3.org/2000/svg" xmlns:xlink="http://www.w3.org/1999/xlink" x="0px" y="0px"
	 viewBox="0 0 460 200.5" style="enable-background:new 0 0 460 200.5;" xml:space="preserve">
<style type="text/css">
	.st0{fill:none;}
	.st1{fill:#355389;}
	.st2{fill:#F4E6D3;}
	.st3{fill:#C1B5A8;}
	.st4{fill:#929497;}
	.st5{fill:#AE92C1;}
	.st6{fill:#8F7A6D;}
	.st7{fill:#302D2C;}
	.st8{fill:#226753;}
	.st9{fill:#2E806B;}
	.st10{fill:#F5A390;}
	.st11{fill:#EF7357;}
	.st12{fill:#FFFFFF;}
	.st13{fill:#12375B;}
	.st14{fill:#F4DA95;}
	.st15{fill:#6893C9;}
	.st16{fill:#C1AC79;}
	.st17{fill:#9BBAE0;}
	.st18{fill:#E7AF99;}
	.st19{fill:#F8DA00;}
	.st20{fill:#006FA3;}
	.st21{fill:#F07A1D;}
	.st22{fill:#F49827;}
	.st23{fill:#FBD0A4;}
	.st24{fill:#060300;}
	.st25{fill:#0C2E35;}
	.st26{fill:#EE9759;}
</style>
<g>
	<g>
		<path class="st0" d="M401,62.96c-0.04,0.17-0.08,0.33-0.12,0.5c0.15-0.03,0.31-0.05,0.46-0.06
			C401.19,63.27,401.08,63.13,401,62.96z"/>
		<path class="st1" d="M163.8,181.5c0.11-6.5,0.21-13,0.11-19.5c-0.05-3.01-0.15-6.01-0.32-9.01c0.91-10.07,1.66-19.63,2.2-27.65
			c-7.13-7.02-10.02-18.23-7.26-28.24c1.79-6.48,5.68-12.67,11.45-16.11c3.4-2.03,6.97-3.21,10.66-4.04
			c0.88-0.33,1.7-0.61,2.45-0.88c-3.76-2.37-13.2-2.87-22.72-2.86c-0.27,0.66-0.53,1.34-0.77,2.01c0,0,0,0,0,0
			c-1.67,4.64-2.67,9.14-2.67,9.14s-0.2,9.71-6.88,8.21c-7.97-1.79-14.54-17.74-14.54-17.74l0.65-0.83
			c-2.81,0.16-4.52,0.29-4.52,0.29s-5.95,0.62-11.31,2.42c0.61,2.89,1.48,5.75,2.5,8.57c4.02,1.46,12.06,6.84,18.59,26.67
			c2.24,6.81,11.62,54.26,13.49,62.99c-0.24,0.07-0.5,0.15-0.75,0.22c2.41,13.66,3.96,24.65,3.96,24.65l0.89,0.68h4.5
			c0.01-0.21,0.02-0.42,0.03-0.63C163.8,193.75,163.7,187.62,163.8,181.5z"/>
		<path class="st2" d="M161.95,69.79c-0.02,0.03-0.03,0.06-0.05,0.1C161.91,69.86,161.93,69.82,161.95,69.79z"/>
		<path class="st2" d="M150.05,92.57c6.69,1.5,6.88-8.21,6.88-8.21s1-4.5,2.67-9.14c-4.25-2.94-9-7.99-11.21-11.02
			c-1.1-0.56-2.24-1.08-3.33-1.66l-2.23,2.86L136.15,74l-0.65,0.83C135.51,74.83,142.08,90.78,150.05,92.57z"/>
		<path class="st3" d="M161.72,69.77c-1.64-0.23-3.22-0.9-4.53-1.92c-1.12-0.87-4.52-0.75-5.61-1.66c-0.97-0.8-2.06-1.43-3.18-2
			c2.21,3.03,6.95,8.09,11.21,11.02c0,0,0,0,0,0c0.24-0.67,0.5-1.35,0.77-2.01c0.47-1.16,0.98-2.29,1.53-3.32
			c0.02-0.03,0.03-0.06,0.05-0.1c0,0,0,0,0,0C161.87,69.78,161.8,69.78,161.72,69.77z"/>
		<path class="st2" d="M162.25,34.48c-3.42-0.46-6.54-2.15-9.43-4.03c-0.41-0.26-0.87-0.54-1.34-0.43c-0.69,0.17-0.9,1.03-0.89,1.74
			c0.05,3.79,3.32,8.09,1.24,11.58c-0.45-1.54-1.36-2.64-2.51-2.82c-1.88-0.3-3.68,1.98-4.03,5.07c-0.24,2.12,0.27,4.08,1.22,5.2
			c0.51,1.77,0.62,3.86,0.57,5.65c0.42,0.54,0.83,1.08,1.25,1.63c1.12,1.47,2.32,2.99,4.01,3.74c1.2,0.53,2.55,0.62,3.86,0.67
			c0.62,0.02,1.28,0.03,1.82-0.28c0.56-0.32,0.9-0.92,1.13-1.51c0.45-1.14,0.63-2.37,0.99-3.54c0.36-1.17,0.94-2.35,1.96-3.03
			c0.6-0.4,1.31-0.6,2.03-0.72c2.72-0.47,5.36,0.4,7.94,1.14c1.48,0.43,2.2,0.68,2.47,1.17c1.43-7.26,1.5-16.4-0.86-23.24
			c-0.81,0.57-1.5,1.03-1.83,1.1C168.68,34.23,165.45,34.91,162.25,34.48z"/>
		<path class="st2" d="M164.94,56.59c-0.51-0.02-1.07-0.02-1.44,0.34c-0.24,0.23-0.34,0.58-0.38,0.92c-0.13,1.2,0.47,2.44,1.48,3.09
			c1.2,0.76,2.87,1.66,4.33,1.66c1.92,0.01,2.72-1.41,4.33-2.01c0.2-0.6,0.39-1.24,0.57-1.89c-1.64-0.91-3.2-0.34-4.98-0.83
			C167.42,57.47,166.6,56.65,164.94,56.59z"/>
		<path class="st4" d="M148.39,64.19c1.12,0.57,2.21,1.19,3.18,2c1.09,0.91,4.49,0.78,5.61,1.66c1.31,1.02,2.89,1.69,4.53,1.92
			c0.08,0.01,0.15,0.02,0.23,0.02c2.81,0.31,5.63-0.93,7.74-2.72c0.84-0.71,2.18-1.75,2.8-2.66c0.24-0.35,1.18-3.97,0.83-3.84
			c-0.02,0.01-0.04,0.02-0.05,0.02c-1.62,0.6-2.42,2.01-4.33,2.01c-1.46-0.01-3.13-0.9-4.33-1.66c-1.02-0.65-1.61-1.89-1.48-3.09
			c0.04-0.34,0.14-0.68,0.38-0.92c0.36-0.35,0.93-0.36,1.44-0.34c1.66,0.06,2.48,0.88,3.91,1.27c1.78,0.49,3.33-0.08,4.98,0.83
			c0.09,0.05,0.18,0.1,0.27,0.16c0.45-1.75,0.73-2.61,0.43-3.16c-0.27-0.49-0.99-0.75-2.47-1.17c-2.58-0.74-5.22-1.61-7.94-1.14
			c-0.71,0.12-1.43,0.32-2.03,0.72c-1.02,0.68-1.61,1.85-1.96,3.03c-0.36,1.17-0.54,2.4-0.99,3.54c-0.24,0.6-0.57,1.2-1.13,1.51
			c-0.54,0.31-1.2,0.3-1.82,0.28c-1.31-0.05-2.66-0.13-3.86-0.67c-1.69-0.75-2.88-2.27-4.01-3.74c-0.42-0.54-0.83-1.08-1.25-1.63
			c0.04-1.78-0.06-3.87-0.57-5.65c-0.95-1.12-1.45-3.08-1.22-5.2c0.35-3.1,2.15-5.37,4.03-5.07c1.15,0.18,2.06,1.28,2.51,2.82
			c2.08-3.49-1.2-7.79-1.24-11.58c-0.01-0.71,0.21-1.57,0.89-1.74c0.47-0.12,0.93,0.16,1.34,0.43c2.89,1.88,6.02,3.57,9.43,4.03
			c3.2,0.43,6.43-0.25,9.59-0.93c0.33-0.07,1.02-0.53,1.83-1.1c1.69-1.19,3.89-2.86,4.4-2.49c-3.53-2.48-3.05-7.82-6.16-10.78
			c-1.65-1.57-3.75-3.06-5.98-4.15c-1.59-0.78-3.25-1.36-4.84-1.63c-0.5-0.08-1.02-0.15-1.51-0.01c-0.56,0.16-1,0.57-1.44,0.94
			c-4.2,3.58-7.22,2.54-11.94,3.04c-4.2,0.44-8.29,4.68-10.87,7.68c-7.72,8.97-4.45,20.97,2.29,27.75c1.39,1.4,2.42,2.76,3.18,4.05
			c0.29,1.21,0.79,2.39,1.51,3.38c0.97,3.19,0.36,5.35,0.36,5.35l0.15-0.19l2.23-2.86C146.16,63.11,147.29,63.63,148.39,64.19z"/>
		<path class="st5" d="M214.9,155.23c-0.55-0.09-1.08-0.18-1.61-0.29c-0.03-0.6-0.06-1.2-0.09-1.81c-8.79,0.03-16.11-0.06-16.8-0.44
			c-1.73-0.96-31.28-28.12-31.28-28.12l13.47-18.71l26.64,26.16c0.49,0.11,3.55,0.64,7.62,1.32c0.38-18.58,3.29-35.63,13.38-39.42
			c0.35-0.13,0.73-0.2,1.11-0.21c0.95-0.16,3.01-0.52,7.43-1.28c-0.36-9.94-1.83-17.19-5.3-17.69c-2.64-0.37-5.84-0.57-9.16-0.65
			c-3.55,5.49-6.31,14.96-6.31,14.96s-0.93,9.63-7.23,7.99c-7.5-1.95-12.59-17.93-12.59-17.93l3.77-4.47
			c-3.35,0.03-11.7,0.23-14.81,1.39c-0.02,0.01-0.04,0.01-0.06,0.02c-0.74,0.28-1.57,0.55-2.45,0.88
			c-3.69,0.82-7.26,2.01-10.66,4.04c-5.77,3.44-9.65,9.63-11.45,16.11c-2.77,10.01,0.13,21.22,7.26,28.24
			c-0.53,8.02-1.29,17.58-2.2,27.65c0.17,3,0.27,6,0.32,9.01c0.11,6.5,0,13-0.11,19.5c-0.1,6.12,0,12.25-0.27,18.37
			c-0.01,0.21-0.02,0.42-0.03,0.63h61.4C218.83,194.27,215.49,175.2,214.9,155.23z"/>
		<path class="st6" d="M206.78,97.05c6.3,1.64,7.23-7.99,7.23-7.99s2.77-9.47,6.31-14.96c0.11-0.16,0.21-0.33,0.32-0.48
			c2.7,0.29,5.18-0.18,6.99-1.63c4.74-3.81,8.91-20.5,6.77-32.22c-0.71-0.03-1.43-0.17-2.12-0.41c-0.27-0.1-0.54-0.21-0.76-0.42
			c-0.31-0.29-0.47-0.72-0.66-1.11c-1.44-3-4.7-4.38-7.7-4.6c-3-0.21-5.97,0.46-8.97,0.28c-0.17-0.01-0.34-0.02-0.51-0.04
			c-0.69,1.59-1.7,3-2.97,4.05c-1.57,1.3-3.54,2.13-4.62,3.96c-1.55,2.62-0.69,6.17-0.81,9.36c-0.05,1.23-0.25,2.44-0.35,3.66
			c-0.4,4.77,0.8,9.75,3.31,13.77c-0.78-1.35-1.67-2.63-2.64-3.84c0.15,0.21,0.29,0.41,0.45,0.61l-8.09,9.6l-3.77,4.47
			C194.19,79.12,199.28,95.1,206.78,97.05z M216.55,60.81l11.53,2.2c0,0-1.1,4.34-6.2,3.52C215.66,65.53,216.55,60.81,216.55,60.81z
			"/>
		<path class="st7" d="M208.24,68.27c-2.51-4.02-3.71-9.01-3.31-13.77c0.1-1.22,0.3-2.43,0.35-3.66c0.12-3.19-0.74-6.74,0.81-9.36
			c1.08-1.82,3.05-2.66,4.62-3.96c1.27-1.05,2.28-2.46,2.97-4.05c0.17,0.02,0.34,0.03,0.51,0.04c3,0.18,5.97-0.5,8.97-0.28
			c3,0.21,6.26,1.59,7.7,4.6c0.19,0.39,0.35,0.82,0.66,1.11c0.22,0.21,0.49,0.32,0.76,0.42c0.69,0.25,1.41,0.38,2.12,0.41
			c2.41,0.11,4.83-0.94,6.47-2.85c0.6-0.7,1.12-1.52,1.34-2.47c0.37-1.59-0.12-3.29-0.64-4.87c-1.04-3.2-2.48-6.69-5.29-8
			c-1.08-0.51-2.26-0.63-3.42-0.67c-0.59-0.02-1.17-0.02-1.75-0.01c-0.3-0.46-0.66-0.88-1.05-1.25c-2.16-2.07-4.93-3.12-7.66-3.86
			c-4.97-1.33-10.4-1.72-14.79,0.91c-1.83,1.09-3.4,2.67-5.31,3.59c-1.4,0.67-2.93,0.96-4.38,1.51c-1.44,0.55-2.87,1.43-3.6,2.92
			c-0.55,1.12-0.68,2.53-1.46,3.47c-0.35,0.43-0.82,0.74-1.14,1.2c-1.05,1.51-0.13,3.73,0.09,5.67c0.2,1.79-0.24,3.59,0.05,5.37
			c0.17,1.02,0.56,1.99,0.9,2.96c0.55,1.61,0.94,3.29,1.15,4.98c0.14,1.15,0.24,2.41,0.95,3.28c0.62,0.77,1.59,1.07,2.25,1.8
			c1.06,1.18,1.04,3.11,1.91,4.48c0.49,0.77,1.21,1.29,1.9,1.83c1.72,1.35,3.29,2.92,4.69,4.67
			C206.57,65.63,207.45,66.92,208.24,68.27z"/>
		<path class="st8" d="M355.49,93.3c-3.78,1.77-7.12,5.79-9.99,10.74c0.63,0.82,1.24,1.67,1.84,2.56
			C349.95,99.52,352.99,94.57,355.49,93.3z"/>
		<path class="st8" d="M355.93,93.1c0.04-0.02,0.08-0.03,0.12-0.05C356.01,93.07,355.97,93.08,355.93,93.1z"/>
		<path class="st9" d="M399.38,97.95c0.11,0.71,3.37-0.77,6.44-1.88l2.6-2.58l0.01-0.18c-0.74-0.22-1.99-0.39-3.59-0.52
			C402.23,95.04,399.27,97.27,399.38,97.95z"/>
		<path class="st9" d="M398.53,141.47c0,0-4.89-21.65-7.86-27.6c-0.75,0.77-1.52,1.69-2.3,2.81c-4.43,6.33-25,40.89-34.49,41.83
			l-8.36,19.43c1.54,11.26,3.07,21,3.42,22.54h52.85c1.11-14.88,1.99-37.95,2.76-52.94c-0.35-1.78-0.69-3.48-1.02-5.1
			C401.43,142.41,399.67,142.12,398.53,141.47z"/>
		<path class="st9" d="M385.27,96.59c0.23,0.85,0.59,1.42,1.17,1.46c0.98,0.07,3.9-2.53,7.11-5.58c-2.68-0.01-5.46,0.01-8.16,0.04
			C385.27,94.03,385.22,95.44,385.27,96.59z"/>
		<path class="st9" d="M396.57,95.13c0.35,0.54,2.01-0.83,4.01-2.55c-0.78-0.03-1.59-0.05-2.42-0.06
			C397.05,93.76,396.32,94.73,396.57,95.13z"/>
		<path class="st9" d="M347.35,106.59c5.42,7.97,9.75,18.23,12.13,24.52c3.42-3.27,7.26-7.29,10.78-11.1
			c-8.93-2.01-0.54-22.27,0.49-27.3h0c-0.38,0-0.94-0.13-1.5-0.31c-2.7-0.48-8.54-1.18-13.19,0.64c-0.04,0.02-0.08,0.03-0.12,0.05
			c-0.07,0.03-0.13,0.05-0.2,0.08c-0.08,0.03-0.16,0.08-0.23,0.12C352.99,94.57,349.95,99.52,347.35,106.59z"/>
		<path class="st10" d="M386.72,82.24c-0.03,0.16-0.05,0.32-0.08,0.48C386.67,82.56,386.69,82.4,386.72,82.24z"/>
		<path class="st10" d="M386.83,81.59c-0.03,0.16-0.06,0.33-0.08,0.5C386.77,81.92,386.8,81.76,386.83,81.59z"/>
		<path class="st10" d="M386.6,82.94c-0.02,0.14-0.05,0.29-0.07,0.44C386.56,83.23,386.58,83.08,386.6,82.94z"/>
		<path class="st10" d="M386.49,83.62c-0.02,0.14-0.04,0.29-0.07,0.43C386.45,83.91,386.47,83.77,386.49,83.62z"/>
		<path class="st10" d="M387.03,80.4c-0.06,0.33-0.12,0.7-0.19,1.09C386.91,81.1,386.97,80.74,387.03,80.4z"/>
		<path class="st10" d="M370.26,120.02c5.93-6.42,10.94-12.21,11.42-12.7c0.97-1-0.36-20.17,1.77-19.59
			c1.62,0.44,1.08,6.12,1.83,8.86c-0.05-1.15,0-2.56,0.12-4.09c0.2-2.63,0.6-5.61,1-8.16c-0.01,0.07-0.02,0.13-0.03,0.2
			c-6.72,1.35-11.59-1.14-14.51-5.3c0-0.04,0-0.08,0-0.13c-0.19,4.94-0.53,10.81-1.1,13.61
			C369.72,97.75,361.33,118.01,370.26,120.02z"/>
		<path class="st11" d="M386.35,84.54c0.01-0.07,0.02-0.13,0.03-0.2c0.01-0.1,0.03-0.19,0.04-0.28c0.02-0.15,0.05-0.29,0.07-0.43
			c0.01-0.08,0.03-0.17,0.04-0.25c0.02-0.15,0.05-0.29,0.07-0.44c0.01-0.07,0.02-0.14,0.03-0.22c0.03-0.16,0.05-0.32,0.08-0.48
			c0.01-0.05,0.02-0.1,0.02-0.15c0.03-0.17,0.06-0.34,0.08-0.5c0.01-0.03,0.01-0.07,0.02-0.1c0.07-0.39,0.13-0.75,0.19-1.09
			c0.01-0.04,0.01-0.07,0.02-0.1c0.01-0.07,0.02-0.14,0.04-0.2c-0.5,0.19-1.01,0.36-1.54,0.51c-5.85,1.7-10.43,0.61-13.68-2.01
			c0,0.03,0,0.06,0,0.09c-0.01,0.14-0.01,0.28-0.02,0.42c0,0.04,0,0.08,0,0.13C374.76,83.4,379.63,85.89,386.35,84.54z"/>
		<path class="st10" d="M385.55,80.61c0.53-0.15,1.04-0.33,1.54-0.51c-0.01,0.07-0.02,0.14-0.04,0.2c0.01-0.07,0.02-0.14,0.04-0.2
			c3.99-1.48,7.02-3.97,9.26-6.92c0.12,0.13,0.26,0.24,0.41,0.34c1.8,1.21,4.72,0.03,6.52-2.63c1.8-2.67,1.79-5.82-0.01-7.03
			c-0.23-0.15-0.47-0.27-0.73-0.35c-0.25,0.15-0.54,0.21-0.87,0.07c-0.12-0.05-0.22-0.12-0.32-0.19c-0.15,0.01-0.3,0.03-0.46,0.06
			c0.04-0.17,0.08-0.33,0.12-0.5c-0.22-0.45-0.24-1.02-0.16-1.48c0.21-1.2,0.41-2.4,0.62-3.6c0.3-5.37-2.12-10.76-6.45-14.1
			c-0.13-0.1-0.22-0.22-0.3-0.35c-1.4-0.43-2.85-0.71-4.31-0.81c-0.19-0.01-0.38-0.02-0.57-0.02c-6.91,0.82-13.52,4.03-18.28,9.17
			c-1.3,1.4-2.5-0.72-1.97-1.99c-0.6-0.62-1.3-0.96-2.01-0.89c-1.78,0.17-2.98,2.79-2.68,5.84c0.19,1.93,0.93,3.56,1.9,4.47
			c-1.92,7-0.13,15.19,5.1,19.4c0,0.03,0,0.06,0,0.09c0-0.03,0-0.06,0-0.09C375.12,81.22,379.7,82.3,385.55,80.61z M374.46,67.63
			l10.77,2.71c0,0-1.3,4.09-6.07,3.04C373.35,72.1,374.46,67.63,374.46,67.63z"/>
		<path class="st12" d="M379.17,73.38c4.77,1.05,6.07-3.04,6.07-3.04l-10.77-2.71C374.46,67.63,373.35,72.1,379.17,73.38z"/>
		<path class="st10" d="M403.54,142.46c0.32,1.62,0.66,3.32,1.02,5.1c3.08,15.5,7.22,36.58,10.21,52.94h19.63
			c-2.82-18.44-6.93-44.03-9.73-61.29C419.67,140.45,409.98,142.6,403.54,142.46z"/>
		<path class="st8" d="M408.69,93.23l-0.27,0.27l-2.6,2.58c2.71-0.97,5.26-1.66,5.39-0.29c0.14,1.58-10.23,5.42-9.23,6.91
			c1.01,1.5,9.4-0.01,9.41,1.83c0.01,1.83-7.22,0.17-10.85,3c-3,2.34-6.25,2.64-9.86,6.35c2.97,5.94,7.86,27.6,7.86,27.6
			c1.13,0.65,2.9,0.94,5,0.98c6.45,0.14,16.14-2.01,21.12-3.25c1.98-0.49,3.23-0.84,3.23-0.84S419.21,91.32,408.69,93.23z"/>
		<path class="st13" d="M371.54,51.77c4.76-5.14,11.37-8.35,18.28-9.17c0.19,0.01,0.38,0.01,0.57,0.02c1.46,0.1,2.91,0.38,4.31,0.81
			c0.08,0.13,0.18,0.25,0.3,0.35c4.33,3.34,6.75,8.72,6.45,14.1c-0.21,1.2-0.41,2.4-0.62,3.6c-0.08,0.46-0.06,1.03,0.16,1.48
			c0.08,0.17,0.2,0.32,0.34,0.44c0.09,0.08,0.19,0.15,0.32,0.19c0.33,0.13,0.62,0.08,0.87-0.07c0.36-0.22,0.62-0.65,0.73-1.05
			c0.43-1.43,0.67-2.91,0.76-4.4l2.76-16.04c1.34-2.39,2.19-5.02,2.55-7.79c0.14-1.05-0.84-2.14-1.86-1.53
			c-1.42,0.85-2.7,1.91-3.81,3.12c0.13-0.8,0.26-1.6,0.39-2.39c0.06-0.35,0.07-0.75-0.02-1.11c0.21-1.53,0.42-3.05,0.63-4.58
			c0.1-0.71,0.05-1.62-0.66-2.02c-0.62-0.35-1.33-0.01-1.61,0.64c-0.34,0.79-0.68,1.58-1.02,2.37c-0.06-0.08-0.14-0.15-0.22-0.22
			c-0.1-1.95-0.16-3.89-0.18-5.84c-0.01-0.62-0.23-1.41-0.87-1.66c-0.61-0.24-1.2,0.19-1.46,0.73c-0.08,0.17-0.17,0.34-0.25,0.51
			c-0.17,0.12-0.32,0.31-0.44,0.57c-1.09,2.31-2.17,4.61-3.26,6.92c-0.05-2.14-0.11-4.27-0.16-6.41c-0.02-0.68-0.27-1.55-1.04-1.7
			c-0.75-0.14-1.25,0.5-1.43,1.16c-0.28,1.05-0.57,2.09-0.85,3.14c-0.05-1.43-0.1-2.86-0.14-4.29c-0.02-0.68-0.27-1.55-1.04-1.7
			c-0.73-0.14-1.28,0.5-1.43,1.16c-0.65,2.74-1.3,5.49-1.95,8.23c-0.94-2.98-1.88-5.96-2.82-8.93c-0.42-1.34-2.12-0.92-2.33,0.32
			c-0.12,0.73-0.24,1.46-0.37,2.19c-0.2,0.19-0.35,0.45-0.41,0.81l-0.95,5.77c-0.78-2.61-1.57-5.22-2.35-7.83
			c-0.2-0.65-0.67-0.88-1.15-0.82c-0.35-0.09-0.74,0.01-1.06,0.35c-0.68,3.4-0.58,6.89-0.57,10.36c-1.05-2.15-2.45-4.13-4.13-5.85
			c-0.44-0.45-1.21-0.24-1.55,0.21c-0.11,0.14-0.19,0.3-0.27,0.48c-0.26,0.33-0.41,0.77-0.39,1.15c0.17,2.59,0.34,5.18,0.51,7.77
			c-0.82-0.83-1.63-1.66-2.45-2.49c-0.45-0.46-1.19-0.23-1.55,0.21c-0.46,0.56-0.51,1.39-0.27,2.04c1.45,3.95,2.89,7.9,4.34,11.84
			c0.05,0.13,0.11,0.24,0.19,0.34c0.22,0.73,0.45,1.45,0.67,2.18l-0.11,0.2c-0.02,0.04-0.04,0.08-0.05,0.13
			C369.03,51.05,370.24,53.17,371.54,51.77z"/>
		<path class="st14" d="M385.27,96.59c-0.75-2.74-0.21-8.42-1.83-8.86c-2.12-0.58-0.8,18.59-1.77,19.59
			c-0.47,0.49-5.48,6.28-11.42,12.7c-3.52,3.81-7.37,7.83-10.78,11.1c1.32,3.47,2.04,5.73,2.04,5.73s-8.89,3.53-16.92,5.38h9.71
			c3.14,0,5.24,3.25,3.95,6.12l-4.38,10.17c9.49-0.94,30.05-35.5,34.49-41.83c0.78-1.12,1.55-2.04,2.3-2.81
			c3.61-3.71,6.85-4.01,9.86-6.35c3.63-2.83,10.86-1.17,10.85-3c-0.01-1.83-8.4-0.33-9.41-1.83c-1.01-1.5,9.37-5.33,9.23-6.91
			c-0.12-1.36-2.68-0.68-5.39,0.29c-3.07,1.11-6.33,2.59-6.44,1.88c-0.11-0.68,2.85-2.92,5.47-5.15c2.47-2.11,4.64-4.22,3.62-5.03
			c-1.25-0.99-4.93,2.28-7.88,4.81c-2,1.71-3.67,3.08-4.01,2.55c-0.26-0.4,0.48-1.37,1.59-2.61c2.57-2.87,7.18-7.21,6.25-9.38
			c-0.43-1-5.98,4.69-10.87,9.33c-3.21,3.05-6.13,5.65-7.11,5.58C385.86,98.01,385.5,97.44,385.27,96.59z"/>
		<path class="st13" d="M316.97,64.1L316.97,64.1c-0.18-0.7-0.33-1.41-0.45-2.12c-0.16,0.05-0.33,0.09-0.5,0.11
			c-2.1,0.21-4.05-2.13-4.37-5.23c-0.32-3.1,1.13-5.79,3.22-6c0.87-0.09,1.7,0.26,2.42,0.92c0.61-0.02,1.26-0.15,1.92-0.37
			c-0.21,1.21-0.17,2.49,1.03,3.37c0.47,0.35,1.01,0.58,1.55,0.75c0.27,0.09,0.54,0.16,0.8,0.23c2.41,0.63,4.89,1.03,7.37,1.18
			c0.66,0.04,1.41,0.06,2.02-0.28c0.99-0.54,1.18-1.71,1.24-2.66c0.06-0.96,0.07-1.94,0.03-2.91c-0.02-0.37-0.05-0.72-0.23-1.07
			c-0.36-0.68-1.13-0.99-1.88-1.23c-2.15-0.67-4.1-1.04-5.92-1.13c5.18-4.38,10.04-10.84,10.94-12.05
			c9.7,1.54,12.91,8.09,13.32,15.42c-0.23-0.12-0.48-0.17-0.68-0.2c-3.21-0.58-6.84-1.23-10.32-0.29c-0.21,0.06-0.43,0.13-0.61,0.31
			c-0.23,0.23-0.3,0.55-0.34,0.74l-0.02,0.08c-0.41,1.97-0.84,4.01,0,5.35c0.35,0.56,0.88,0.95,1.61,1.18
			c0.21,0.07,0.44,0.12,0.68,0.16c1.49,0.25,3.14,0.36,5.21,0.33l0.23,0c4.77-0.03,4.87-0.35,4.98-0.7
			c0.38-1.26,0.52-2.61,0.42-3.91c0.59-0.09,1.14,0,1.58,0.29c1.44,0.96,1.27,3.75-0.38,6.22c-1.04,1.56-2.42,2.62-3.66,2.95
			c-0.75,3.3-2.37,6.44-4.55,8.95c0.64,0.69,1.38,1.27,2.3,1.61c2.86,1.04,5.41-1.07,6.94-3.3c1.73-2.51,3-5.36,3.83-8.29
			c1.62-5.71,1.37-12.09-1.34-17.43c-2.63-5.18-7.15-9.33-12.66-11.25c-1.02-2.86-4.1-4.71-7.02-4.17c-0.2-0.81-0.61-1.59-1.24-2.25
			c-1.5-1.56-3.66-1.7-5.6-0.92c-2.24,0.9-4.16,2.59-6.08,4c-2.03,1.49-4.03,3.04-6.11,4.47c-0.72,0.5-1.67,0.66-2.47,1.06
			c-0.8,0.41-1.55,0.89-2.23,1.47c-1.43,1.23-2.55,2.71-3.5,4.33c-1.86,3.16-3.02,6.81-3.88,10.35c-0.92,3.79-1.41,8.9,1.87,11.7
			c0.82,4.15,5.87,6.83,9.67,5c0.24-1.07,0.44-2.04,0.6-2.86L316.97,64.1z M349.59,57.67c-0.24,0.09-1.13,0.25-4.31,0.27l-0.24,0
			c-2.03,0.03-3.64-0.07-5.09-0.32c-0.89-0.15-1.5-0.49-1.84-1.04c-0.68-1.08-0.31-2.88,0.09-4.78l0.02-0.08
			c0.02-0.11,0.06-0.28,0.12-0.35c0.06-0.06,0.19-0.09,0.28-0.12c3.34-0.89,6.89-0.25,10.03,0.31c0.21,0.03,0.42,0.07,0.57,0.18
			c0.13,0.09,0.22,0.22,0.3,0.38c0.02,0.77,0,1.55-0.03,2.33c0.15-0.07,0.3-0.14,0.45-0.19C350.03,55.4,349.91,56.57,349.59,57.67z
			 M330.94,49.46c0.61,0.2,1.19,0.42,1.41,0.84c0.11,0.22,0.13,0.48,0.15,0.78c0.04,0.94,0.04,1.9-0.02,2.84
			c-0.05,0.79-0.2,1.74-0.9,2.13c-0.43,0.24-1.03,0.22-1.6,0.19c-2.43-0.15-4.85-0.54-7.21-1.16c-0.73-0.19-1.48-0.41-2.07-0.84
			c-1.02-0.75-0.91-1.94-0.64-3.15c1.41-0.61,2.88-1.58,4.35-2.75C326.37,48.34,328.53,48.72,330.94,49.46z"/>
		<path class="st15" d="M333.71,142.23h10.9c8.03-1.86,16.92-5.38,16.92-5.38s-0.73-2.26-2.04-5.73
			c-2.39-6.29-6.71-16.56-12.13-24.52c-0.6-0.88-1.22-1.74-1.84-2.56c-0.67-0.87-1.35-1.7-2.05-2.48
			C344.63,109.66,341.66,126.74,333.71,142.23z"/>
		<path class="st14" d="M319.12,115.45c14.41,8.37,13.16-16.09,13.75-23.94c0.04-0.51,0.08-0.94,0.14-1.3
			c0.47-2.93,2.47-8.32,4.35-12.99c0,0,0,0,0,0c-5.77,3.99-14.91,6.48-20.7-10.78l0.06-0.43c-0.16,0.82-0.37,1.79-0.6,2.86
			c-0.84,3.82-2.1,8.84-3.55,12.19c-0.38,0.87-0.77,1.63-1.16,2.23C308.25,88.01,303.79,106.54,319.12,115.45z"/>
		<path class="st16" d="M322.35,73.26c-2.83-2.76-4.51-5.91-5.38-9.16l-0.01,0l-0.25,1.91l-0.06,0.43
			c5.79,17.26,14.93,14.76,20.7,10.78c0,0,0,0,0,0c0.02-0.05,0.05-0.11,0.07-0.16C332.87,78.91,327.48,78.26,322.35,73.26z"/>
		<path class="st14" d="M320.7,54.24c0.59,0.43,1.34,0.65,2.07,0.84c2.36,0.62,4.79,1.01,7.21,1.16c0.57,0.04,1.16,0.05,1.6-0.19
			c0.7-0.38,0.85-1.34,0.9-2.13c0.06-0.94,0.07-1.89,0.02-2.84c-0.01-0.3-0.03-0.56-0.15-0.78c-0.23-0.43-0.8-0.64-1.41-0.84
			c-2.41-0.75-4.57-1.12-6.53-1.13c-1.47,1.17-2.95,2.14-4.35,2.75C319.79,52.3,319.68,53.49,320.7,54.24z"/>
		<path class="st14" d="M349.53,52.13c-0.07-0.16-0.17-0.3-0.3-0.38c-0.15-0.1-0.37-0.14-0.57-0.18c-3.14-0.56-6.69-1.2-10.03-0.31
			c-0.09,0.02-0.22,0.06-0.28,0.12c-0.07,0.07-0.1,0.24-0.12,0.35l-0.02,0.08c-0.4,1.9-0.78,3.7-0.09,4.78
			c0.34,0.55,0.94,0.89,1.84,1.04c1.45,0.25,3.06,0.35,5.09,0.32l0.24,0c3.19-0.02,4.07-0.18,4.31-0.27
			c0.32-1.1,0.44-2.27,0.36-3.41c-0.15,0.06-0.3,0.12-0.45,0.19C349.53,53.68,349.55,52.9,349.53,52.13z"/>
		<path class="st14" d="M351.85,60.59c1.65-2.47,1.82-5.26,0.38-6.22c-0.44-0.3-0.99-0.38-1.58-0.29c0.1,1.31-0.03,2.65-0.42,3.91
			c-0.11,0.35-0.21,0.67-4.98,0.7l-0.23,0c-2.07,0.03-3.73-0.07-5.21-0.33c-0.24-0.04-0.47-0.1-0.68-0.16
			c-0.73-0.23-1.26-0.62-1.61-1.18c-0.84-1.34-0.42-3.38,0-5.35l0.02-0.08c0.04-0.19,0.11-0.51,0.34-0.74
			c0.18-0.19,0.4-0.26,0.61-0.31c3.48-0.93,7.12-0.28,10.32,0.29c0.2,0.04,0.45,0.08,0.68,0.2c-0.42-7.33-3.62-13.88-13.32-15.42
			c-0.89,1.21-5.76,7.67-10.94,12.05c1.81,0.1,3.77,0.47,5.92,1.13c0.76,0.24,1.53,0.55,1.88,1.23c0.18,0.34,0.21,0.7,0.23,1.07
			c0.04,0.97,0.04,1.95-0.03,2.91c-0.06,0.95-0.26,2.12-1.24,2.66c-0.61,0.34-1.36,0.32-2.02,0.28c-2.48-0.16-4.96-0.56-7.37-1.18
			c-0.26-0.07-0.53-0.14-0.8-0.23c-0.54-0.17-1.08-0.4-1.55-0.75c-1.21-0.88-1.24-2.16-1.03-3.37c-0.66,0.22-1.31,0.35-1.92,0.37
			c-0.71-0.66-1.55-1.01-2.42-0.92c-2.1,0.21-3.54,2.9-3.22,6c0.32,3.1,2.27,5.44,4.37,5.23c0.17-0.02,0.34-0.06,0.5-0.11
			c0.11,0.71,0.27,1.42,0.45,2.12c0.87,3.25,2.55,6.4,5.38,9.16c5.12,5,10.52,5.65,15.08,3.8c2.34-0.95,4.45-2.55,6.2-4.57
			c2.18-2.51,3.79-5.65,4.55-8.95C349.42,63.21,350.8,62.15,351.85,60.59z M331.11,70c-4.56-1.28-3.8-5.37-3.8-5.37l10.45,2.61
			C337.76,67.24,336.67,71.56,331.11,70z"/>
		<path class="st12" d="M337.76,67.24l-10.45-2.61c0,0-0.76,4.09,3.8,5.37C336.67,71.56,337.76,67.24,337.76,67.24z"/>
		<path class="st17" d="M298.02,93.52C298.02,93.52,298.02,93.52,298.02,93.52c1.07,0.04,3.98,1.02,8.24,9.07
			c4.68,8.84,11.21,33.01,12.95,39.64h14.5c7.95-15.48,10.92-32.57,9.74-40.67c-0.26-1.78-0.71-3.13-1.36-3.93
			c-2.46-3.04-6.4-5.01-9.23-6.12c-0.58,7.85,0.66,32.31-13.75,23.94c-15.33-8.91-10.88-27.44-7.72-32.17
			c0.4-0.6,0.79-1.35,1.16-2.23c-6.72-3.61-13.23-6.91-15.58-7.39l-0.07,0.16l-0.11-0.35c-4.6-3.65-15.88,6.42-24.79,15.82
			C280.03,89.9,291.84,91.55,298.02,93.52z"/>
		<path class="st18" d="M154.15,175.16c-4.56,1.38-10.08,3.79-14.9,5.42c1.06,8.87,1.94,16.33,2.36,19.91H159l-0.89-0.68
			C158.11,199.82,156.56,188.82,154.15,175.16z"/>
		<path class="st19" d="M139.25,180.58c4.82-1.63,10.34-4.04,14.9-5.42c0.25-0.08,0.5-0.15,0.75-0.22
			c-1.86-8.74-11.24-56.19-13.49-62.99c-6.54-19.83-14.57-25.21-18.59-26.67c-0.22-0.08-0.43-0.15-0.63-0.21
			c0.09,0.34,0.18,0.69,0.28,1.03c1.22,4.25,3.41,7.9,5.46,11.76c0.62,1.18,1.23,2.35,1.84,3.54c1.21,2.38,2.4,4.77,3.54,7.18
			c0.39,0.83,1.63,2.37,0.7,3.05c-0.93,0.68-2.67,0.83-3.75,1.26c-1.75,0.7-3.38,1.67-5.12,2.38c-1.22,0.49-2.36,0.7-3.65,0.84
			c-0.13,0.01-0.26,0.04-0.4,0.06c-1.28,2.92-4.39,7.16-2.88,8.26c2.09,1.54,24.62-4.92,24.31-3.04c-0.58,3.5-13.71,4.52-13.7,6.18
			c0.01,1.66,13.75-2.45,14.67,0.2c0.92,2.66-13.21,2.59-13.78,3.88c-0.57,1.29,13.1,2.03,11.69,4.75
			c-0.77,1.48-12.11-0.99-12.06,0.91c0.05,1.89,8.31,5.3,7.29,6.92c-1.02,1.63-6.48-3.92-11.29-3.47
			c-4.81,0.46-8.24-1.94-15.93,1.24c-4.39,1.82-19.17,9.08-32.44,13.87c-0.17-1.35-0.31-2.71-0.42-4.07
			c-0.35-4.5-0.37-9.01-0.06-13.51c13.02-2.65,31.2-8.11,32.28-8.36c0.95-0.23,5.63-8.31,9.07-13.06c-0.15,0.03-0.3,0.07-0.44,0.1
			c-2.89,0.58-5.82,0.99-8.75,1.27c-5.84,0.57-11.72,0.66-17.58,0.68c-5.07,0.02-10.14-0.01-15.21-0.25
			c-0.42-0.02-0.87-0.05-1.34-0.08c0.82-13.7,0.88-29.13-2.74-31.74c-3.63-2.61-9-2.07-13.69,0.35c-3.99,2.06-7.5,5.49-9.02,9.52
			c-2.77,7.34-2.83,34.96-2.77,43.71c-0.7,6.09,2,12.08,4.64,17.73c0.77,1.66,1.57,3.35,2.87,4.68c2.17,2.24,5.5,3.17,8.65,3.13
			c3.15-0.04,6.2-0.93,9.18-1.85c0.44-0.14,0.88-0.28,1.32-0.42c0.25,0.81,0.42,1.49,0.51,2c1.15,6.66-7.17,25.04-11.9,34.75h80.05
			C141.19,196.92,140.31,189.45,139.25,180.58z"/>
		<path class="st18" d="M84.4,55.17c0,0,0.01,0,0.01,0c0.42,2.57,1.26,5.09,2.64,7.4c0.62,0.83,1.31,1.6,2.09,2.28
			c0.73,0.64,1.52,1.17,2.35,1.6c0.23,0.18,0.47,0.35,0.72,0.49c0.59,0.33,1.25,0.52,1.91,0.67c0.13,0.03,0.26,0.06,0.39,0.08
			c1.61,0.31,3.25,0.44,4.9,0.48c1.77,0.05,3.56,0.01,5.28-0.44c1.57-0.41,3.03-1.17,4.3-2.19c0.65-0.52,1.67-2.17,2.61-3.17
			c0.86-1.54,1.56-3.21,2.06-4.93c1.32-0.06,2.91-1.37,3.95-3.39c1.32-2.56,1.24-5.3-0.17-6.11c-0.69-0.4-1.57-0.26-2.44,0.28
			c0.69-9.94-1.12-19.6-14.47-19.25c0,0-7.08-0.82-11.51,4.93c-1.73,2.24-3.5,6.31-4.38,11c-0.69-0.53-1.46-0.78-2.22-0.62
			c-1.91,0.39-3.02,3.15-2.47,6.15C80.49,53.45,82.49,55.56,84.4,55.17z M95.49,58.34l13.5,0.61c0,0-0.54,5.12-6.49,5.02
			C95.25,63.85,95.49,58.34,95.49,58.34z"/>
		<path class="st12" d="M102.5,63.97c5.95,0.1,6.49-5.02,6.49-5.02l-13.5-0.61C95.49,58.34,95.25,63.85,102.5,63.97z"/>
		<path class="st20" d="M71.76,86.88c3.62,2.6,3.56,18.04,2.74,31.74c0.47,0.03,0.92,0.06,1.34,0.08
			c5.06,0.25,10.14,0.28,15.21,0.25c5.87-0.02,11.74-0.12,17.58-0.68c2.94-0.29,5.86-0.69,8.75-1.27c0.15-0.03,0.3-0.07,0.44-0.1
			c1.67-2.31,3.05-3.83,3.55-3.27c0.43,0.48,0.21,1.42-0.29,2.56c0.13-0.02,0.27-0.05,0.4-0.06c1.29-0.14,2.43-0.35,3.65-0.84
			c1.75-0.71,3.37-1.68,5.12-2.38c1.08-0.43,2.82-0.59,3.75-1.26c0.93-0.68-0.31-2.22-0.7-3.05c-1.15-2.41-2.33-4.8-3.54-7.18
			c-0.6-1.18-1.22-2.36-1.84-3.54c-2.04-3.87-4.23-7.52-5.46-11.76c-0.1-0.34-0.19-0.69-0.28-1.03c0.2,0.06,0.41,0.13,0.63,0.21
			c-1.02-2.82-1.89-5.67-2.5-8.57c-0.61-2.88-0.95-5.81-0.92-8.8c0.06-5.74,1.52-11.43,1.33-17.17
			c-0.41-12.34-13.74-32.67-28.45-27.56C75.31,29.07,76.43,50.05,71.8,63.83c-2.92,8.7-8.93,15.79-13.73,23.4
			C62.76,84.81,68.13,84.27,71.76,86.88z M82.41,44.29c0.76-0.16,1.53,0.09,2.22,0.62c0.88-4.7,2.65-8.77,4.38-11
			c4.44-5.75,11.51-4.93,11.51-4.93c13.35-0.35,15.16,9.32,14.47,19.25c0.87-0.54,1.75-0.68,2.44-0.28
			c1.41,0.81,1.48,3.55,0.17,6.11c-1.04,2.02-2.63,3.33-3.95,3.39c-0.5,1.73-1.2,3.39-2.06,4.93c-0.94,1-1.96,2.65-2.61,3.17
			c-1.27,1.01-2.73,1.78-4.3,2.19c-1.71,0.45-3.51,0.49-5.28,0.44c-1.64-0.05-3.28-0.17-4.9-0.48c-0.13-0.03-0.26-0.05-0.39-0.08
			c-0.66-0.15-1.32-0.34-1.91-0.67c-0.26-0.14-0.49-0.31-0.72-0.49c-0.83-0.43-1.62-0.95-2.35-1.6c-0.78-0.68-1.46-1.46-2.09-2.28
			c-1.37-2.31-2.21-4.83-2.64-7.4c0,0-0.01,0-0.01,0c-1.91,0.39-3.91-1.72-4.46-4.72C79.39,47.44,80.49,44.69,82.41,44.29z"/>
		<path class="st18" d="M121.38,113.62c-0.51-0.56-1.88,0.96-3.55,3.27c-3.43,4.75-8.11,12.83-9.07,13.06
			c-1.08,0.26-19.26,5.72-32.28,8.36c-0.32,4.5-0.3,9.02,0.06,13.51c0.11,1.36,0.25,2.71,0.42,4.07
			c13.27-4.79,28.04-12.06,32.44-13.87c7.69-3.18,11.12-0.79,15.93-1.24c4.81-0.46,10.27,5.09,11.29,3.47
			c1.02-1.63-7.24-5.03-7.29-6.92c-0.05-1.89,11.3,0.57,12.06-0.91c1.41-2.72-12.26-3.46-11.69-4.75c0.57-1.29,14.7-1.23,13.78-3.88
			c-0.92-2.66-14.66,1.46-14.67-0.2c-0.01-1.66,13.12-2.68,13.7-6.18c0.31-1.87-22.22,4.58-24.31,3.04c-1.5-1.11,1.6-5.34,2.88-8.26
			C121.59,115.04,121.81,114.1,121.38,113.62z"/>
		<path class="st21" d="M298.02,93.52C298.02,93.52,298.02,93.52,298.02,93.52C298.02,93.52,298.02,93.52,298.02,93.52
			c0,0,2.62,22.55,0.94,48.71h20.24c-1.74-6.62-8.27-30.8-12.95-39.64C302,94.54,299.08,93.56,298.02,93.52z"/>
		<path class="st22" d="M239.9,137.91c2.11,0.41,5.67,1.07,7.9,1.27c1.63-0.02,3.09-0.4,4.35-0.81c1.59-0.51,4.79-0.89,5.53-0.66
			c0.86,0.27,2.62,0.91,3.67,1.33c1.05,0.41,2.3,0.82,2.84,1.15c0.32,0.2,1.13,0.15,1.71,0.09c0.87-0.1,1.26,1.57,0.6,2.57
			c-0.62,0.95-1.79,1.14-2.52,1.25c-2.05,0.32-5.1-1.08-5.09-0.58c0.01,0.5,4.22,5.58,4.67,6.21c0.45,0.64,5.32,6.59,6,8.29
			c0.67,1.7,0.08,2.76-0.65,2.58c-0.63-0.15-7.79-7.51-7.79-7.51s-0.91-0.94-0.87,0.03c0.05,0.96,6.54,7.67,7.37,8.98
			c0.83,1.31,0.96,2.88-0.19,3.2c-1.41,0.39-8.01-7.5-8.01-7.5s-0.84-0.96-0.99-0.23c-0.15,0.74,5.44,6.28,5.76,7.21
			c0.32,0.93,0.04,2.38-1.03,2.33c-1.26-0.06-7.12-7.2-7.12-7.2s-0.55-0.32-0.53,0.23c0.02,0.55,4.54,5.87,4.7,7.1
			c0.13,1.03-0.46,1.33-0.46,1.33c-1.2,1.07-5.08-5.15-7.45-7.01c-2.37-1.86-4.36-5.84-7.37-7.53c-1.01-0.57-2.45-0.94-4.04-1.17
			c-0.34,0-0.69,0.01-1.06,0.01c-0.02,0.85-0.05,1.7-0.08,2.57c-1.11,0.09-2.31,0.18-3.56,0.26c0.64,10.13,1.08,19.63,1.34,26.45
			c8.79,0.82,22.28,0.47,31.14,0.06l15.24-37.29c0.67-1.63,2.25-2.7,4.01-2.7h11.04c1.68-26.16-0.94-48.71-0.94-48.71
			c0,0,0,0-0.01,0c-6.18-1.97-17.99-3.62-26.01-4.23c-0.08-0.01-0.16-0.01-0.24-0.02l0.12,0.89c0,0,3.03,14.5-0.87,17.29
			c-3.9,2.79-16.57-17.71-16.57-17.71l0.01-0.14c-4.28,0.37-8.55,0.89-12.13,1.51c-3.08,0.53-5.56,0.96-7.56,1.31
			c-4.42,0.76-6.48,1.12-7.43,1.28C232.22,93.63,239.18,104.08,239.9,137.91z"/>
		<path class="st23" d="M225.23,198.05l0-0.8c0.05-1.22,0.62-2.29,1.65-2.29h36.6l5.21-12.74c-8.86,0.41-22.35,0.76-31.14-0.06
			c-0.25-6.82-0.69-16.31-1.34-26.45c-6.58,0.42-14.72,0.59-21.3-0.48c0.59,19.97,3.92,39.04,10,45.26h1.97
			C225.84,200.5,225.27,198.89,225.23,198.05z"/>
		<path class="st21" d="M239.76,155.45c0.03-0.87,0.06-1.73,0.08-2.57c-6.48,0.07-17.37,0.23-26.63,0.26
			c0.03,0.61,0.06,1.21,0.09,1.81c0.52,0.11,1.06,0.2,1.61,0.29c6.58,1.06,14.72,0.9,21.3,0.48
			C237.45,155.63,238.64,155.54,239.76,155.45z"/>
		<path class="st21" d="M238.18,137.56c0,0,0.69,0.14,1.72,0.35c-0.73-33.83-7.69-44.28-12.55-44.2c-0.38,0.01-0.76,0.08-1.11,0.21
			c-10.09,3.79-13,20.84-13.38,39.42C222.62,134.99,238.18,137.56,238.18,137.56z"/>
		<path class="st24" d="M358.26,148.35c1.29-2.87-0.81-6.12-3.95-6.12h-9.71h-10.9h-14.5h-20.24h-11.04c-1.76,0-3.34,1.07-4.01,2.7
			l-15.24,37.29l-5.21,12.74h-36.6c-1.02,0-1.6,1.07-1.65,2.29l0,0.8c0.05,0.83,0.62,2.44,1.64,2.44h104.18
			c2.86,0,5.46-1.69,6.63-4.31l7.85-18.23l8.36-19.43L358.26,148.35z M318.57,173.34c-0.45,2.25-2.4,3.75-4.36,3.36
			c-1.96-0.39-3.19-2.53-2.74-4.78c0.45-2.25,2.4-3.75,4.36-3.36C317.79,168.95,319.02,171.09,318.57,173.34z"/>
		<path class="st12" d="M315.83,168.56c-1.96-0.39-3.92,1.11-4.36,3.36c-0.45,2.25,0.78,4.39,2.74,4.78
			c1.96,0.39,3.92-1.11,4.36-3.36C319.02,171.09,317.79,168.95,315.83,168.56z"/>
		<path class="st25" d="M252.82,62.43c-0.25,0.02-0.5,0.01-0.75-0.04c-2.08-0.36-3.41-2.73-2.97-5.28c0.44-2.55,2.49-4.33,4.57-3.97
			c0,0,0,0,0,0l0,0c0,0,6.34,1.57,8.69-2.5c2.2-3.82,9.73-11.78,19.46-9.77c2.16,2.44,3.47,5.67,3.38,9.2
			c-0.09,3.59-0.38,8.08-1.13,12.91c-0.38,2.44-1.03,4.81-1.86,7.03c0,0,0.01,0,0.01,0c0-0.37,24.26-32.98,0.22-41.07
			c-2-0.67-3.97-1.43-5.87-2.35c-2.15-1.04-4.94-2.25-6.7-2.52c-3.71-0.57-10.07-0.19-13.59,3.62c-4.38,4.75-12.16,0.86-10.59,25.74
			c0.89,14.13,5.28,20.39,9.47,23.06l0.26-4.89C254.07,68.94,253.1,65.87,252.82,62.43z"/>
		<path class="st23" d="M271.02,107.46c3.9-2.8,0.87-17.29,0.87-17.29l-0.12-0.89l-0.09-0.64c-5.44-2.07-13.11-7.42-16.32-16.12
			l0.05-0.91c3.71,7.39,10.33,11.72,13.69,12.31c0.61,0.11,1.26,0.06,1.93-0.13c3.87-1.05,8.49-6.63,11.17-13.77
			c0.83-2.22,1.48-4.6,1.86-7.03c0.75-4.83,1.04-9.32,1.13-12.91c0.09-3.53-1.22-6.76-3.38-9.2c-9.74-2.02-17.26,5.95-19.46,9.77
			c-2.35,4.08-8.69,2.5-8.69,2.5l0,0c0,0,0,0,0,0c-2.08-0.36-4.13,1.41-4.57,3.97c-0.44,2.55,0.89,4.92,2.97,5.28
			c0.25,0.04,0.5,0.06,0.75,0.04c0.29,3.44,1.25,6.5,2.59,9.18l-0.26,4.89l-0.69,13.12l-0.01,0.14
			C254.46,89.76,267.13,110.26,271.02,107.46z M263.32,69.24l11.02,2.11c0,0-1.05,4.15-5.93,3.37
			C262.47,73.75,263.32,69.24,263.32,69.24z"/>
		<path class="st26" d="M269.1,83.92c-3.36-0.59-9.98-4.92-13.69-12.31l-0.05,0.91c3.22,8.7,10.88,14.04,16.32,16.12c0,0,0,0,0,0
			l-0.65-4.85C270.36,83.97,269.71,84.02,269.1,83.92z"/>
		<path class="st12" d="M268.42,74.71c4.87,0.79,5.93-3.37,5.93-3.37l-11.02-2.11C263.32,69.24,262.47,73.75,268.42,74.71z"/>
		<path class="st12" d="M221.88,66.54c5.1,0.82,6.2-3.52,6.2-3.52l-11.53-2.2C216.55,60.81,215.66,65.53,221.88,66.54z"/>
		<path class="st6" d="M239.84,152.87c0.37,0,0.72-0.01,1.06-0.01c1.59,0.23,3.03,0.6,4.04,1.17c3.01,1.69,5,5.67,7.37,7.53
			c2.37,1.86,6.25,8.08,7.45,7.01c0,0,0.59-0.3,0.46-1.33c-0.16-1.23-4.68-6.54-4.7-7.1c-0.03-0.55,0.53-0.23,0.53-0.23
			s5.85,7.13,7.12,7.2c1.07,0.05,1.35-1.4,1.03-2.33c-0.32-0.93-5.91-6.47-5.76-7.21c0.15-0.74,0.99,0.23,0.99,0.23
			s6.61,7.89,8.01,7.5c1.16-0.32,1.03-1.89,0.19-3.2c-0.83-1.31-7.32-8.01-7.37-8.98c-0.05-0.96,0.87-0.03,0.87-0.03
			s7.16,7.36,7.79,7.51c0.74,0.18,1.33-0.88,0.65-2.58c-0.67-1.7-5.54-7.65-6-8.29c-0.45-0.63-4.66-5.72-4.67-6.21
			c-0.01-0.5,3.04,0.9,5.09,0.58c0.73-0.11,1.9-0.3,2.52-1.25c0.66-1.01,0.27-2.67-0.6-2.57c-0.58,0.07-1.39,0.11-1.71-0.09
			c-0.53-0.33-1.78-0.74-2.84-1.15c-1.05-0.41-2.81-1.06-3.67-1.33c-0.74-0.23-3.95,0.15-5.53,0.66c-1.26,0.41-2.73,0.79-4.35,0.81
			c-2.23-0.2-5.79-0.86-7.9-1.27c-1.03-0.2-1.72-0.35-1.72-0.35s-15.56-2.57-25.32-4.22c-4.07-0.69-7.13-1.21-7.62-1.32
			l-26.64-26.16l-13.47,18.71c0,0,29.55,27.15,31.28,28.12c0.69,0.39,8.01,0.47,16.8,0.44C222.47,153.1,233.36,152.94,239.84,152.87
			z"/>
	</g>
	<rect class="st0" width="460" height="200.5"/>
</g>
</svg>
