<?xml version="1.0" encoding="utf-8"?>
<!-- Generator: Adobe Illustrator 27.0.1, SVG Export Plug-In . SVG Version: 6.00 Build 0)  -->
<svg version="1.1" id="Layer_1" xmlns="http://www.w3.org/2000/svg" xmlns:xlink="http://www.w3.org/1999/xlink" x="0px" y="0px"
	 viewBox="0 0 293.9 26.75" style="enable-background:new 0 0 293.9 26.75;" xml:space="preserve">
<style type="text/css">
	.st0{enable-background:new    ;}
	.st1{fill:#060400;}
</style>
<g class="st0">
	<path class="st1" d="M11.56,16.2L8.02,19.9v6.68H1.95V0.18h6.07v12.33L19.71,0.18h6.79L15.56,11.94l11.58,14.63h-7.13L11.56,16.2z"
		/>
	<path class="st1" d="M50.29,21.67v4.9H29.86V0.18H49.8v4.9H35.93v5.73h12.25v4.75H35.93v6.11H50.29z"/>
	<path class="st1" d="M55.16,0.18h6.11v26.39h-6.11V0.18z"/>
	<path class="st1" d="M77.14,16.2L73.6,19.9v6.68h-6.07V0.18h6.07v12.33L85.29,0.18h6.79L81.14,11.94l11.58,14.63h-7.13L77.14,16.2z
		"/>
	<path class="st1" d="M105.05,16.2l-3.54,3.69v6.68h-6.07V0.18h6.07v12.33L113.2,0.18h6.79l-10.93,11.76l11.58,14.63h-7.13
		L105.05,16.2z"/>
	<path class="st1" d="M139.56,20.91H127.3l-2.34,5.66h-6.26l11.76-26.39h6.03l11.8,26.39h-6.41L139.56,20.91z M137.63,16.28
		l-4.19-10.11l-4.19,10.11H137.63z"/>
	<path class="st1" d="M160.68,16.2l-3.54,3.69v6.68h-6.07V0.18h6.07v12.33l11.69-12.33h6.79l-10.93,11.76l11.58,14.63h-7.13
		L160.68,16.2z"/>
	<path class="st1" d="M195.18,20.91h-12.25l-2.34,5.66h-6.26l11.76-26.39h6.03l11.8,26.39h-6.41L195.18,20.91z M193.26,16.28
		l-4.19-10.11l-4.18,10.11H193.26z"/>
	<path class="st1" d="M230.63,0.18L219.2,26.57h-6.03L201.78,0.18h6.6l8.03,18.85l8.14-18.85H230.63z"/>
	<path class="st1" d="M253.26,21.67v4.9h-20.44V0.18h19.95v4.9h-13.88v5.73h12.25v4.75h-12.25v6.11H253.26z"/>
	<path class="st1" d="M274.94,26.57l-5.09-7.35h-0.3h-5.32v7.35h-6.11V0.18h11.43c7.05,0,11.46,3.66,11.46,9.58
		c0,3.96-2,6.86-5.43,8.33l5.92,8.48H274.94z M269.21,5.15h-4.98v9.2h4.98c3.73,0,5.62-1.73,5.62-4.6
		C274.83,6.85,272.94,5.15,269.21,5.15z"/>
	<path class="st1" d="M285.84,0.18h6.11v26.39h-6.11V0.18z"/>
</g>
</svg>
