<?xml version="1.0" encoding="utf-8"?>
<!-- Generator: Adobe Illustrator 27.0.1, SVG Export Plug-In . SVG Version: 6.00 Build 0)  -->
<svg version="1.1" id="Layer_1" xmlns="http://www.w3.org/2000/svg" xmlns:xlink="http://www.w3.org/1999/xlink" x="0px" y="0px"
	 viewBox="0 0 333.71 30.37" style="enable-background:new 0 0 333.71 30.37;" xml:space="preserve">
<style type="text/css">
	.st0{enable-background:new    ;}
	.st1{fill:#060400;}
</style>
<g class="st0">
	<path class="st1" d="M15.6,18.35l-3.96,4.13v7.46H4.86V0.44h6.78v13.77L24.7,0.44h7.58L20.06,13.59L33,29.93h-7.96L15.6,18.35z"/>
	<path class="st1" d="M58.87,24.45v5.48H36.04V0.44h22.29v5.48h-15.5v6.4h13.69v5.31H42.82v6.82H58.87z"/>
	<path class="st1" d="M64.31,0.44h6.82v29.49h-6.82V0.44z"/>
	<path class="st1" d="M88.87,18.35l-3.96,4.13v7.46h-6.78V0.44h6.78v13.77L97.97,0.44h7.58L93.33,13.59l12.93,16.35H98.3
		L88.87,18.35z"/>
	<path class="st1" d="M120.05,18.35l-3.96,4.13v7.46h-6.78V0.44h6.78v13.77l13.06-13.77h7.58l-12.22,13.14l12.93,16.35h-7.96
		L120.05,18.35z"/>
	<path class="st1" d="M158.6,23.61h-13.69l-2.61,6.32h-6.99l13.14-29.49h6.74l13.19,29.49h-7.16L158.6,23.61z M156.45,18.43
		l-4.68-11.29l-4.68,11.29H156.45z"/>
	<path class="st1" d="M182.19,18.35l-3.96,4.13v7.46h-6.78V0.44h6.78v13.77l13.06-13.77h7.58l-12.22,13.14l12.93,16.35h-7.96
		L182.19,18.35z"/>
	<path class="st1" d="M220.74,23.61h-13.69l-2.61,6.32h-6.99l13.14-29.49h6.74l13.19,29.49h-7.16L220.74,23.61z M218.59,18.43
		l-4.68-11.29l-4.68,11.29H218.59z"/>
	<path class="st1" d="M260.35,0.44l-12.76,29.49h-6.74L228.12,0.44h7.37l8.97,21.06l9.1-21.06H260.35z"/>
	<path class="st1" d="M285.63,24.45v5.48h-22.83V0.44h22.29v5.48h-15.5v6.4h13.69v5.31h-13.69v6.82H285.63z"/>
	<path class="st1" d="M309.85,29.93l-5.69-8.21h-0.34h-5.94v8.21h-6.82V0.44h12.76c7.88,0,12.81,4.09,12.81,10.7
		c0,4.42-2.23,7.67-6.07,9.31l6.61,9.48H309.85z M303.45,6h-5.56v10.28h5.56c4.17,0,6.28-1.94,6.28-5.14
		C309.73,7.9,307.62,6,303.45,6z"/>
	<path class="st1" d="M322.03,0.44h6.82v29.49h-6.82V0.44z"/>
</g>
</svg>
